<svg width="478" height="514" viewBox="0 0 478 514" fill="none" xmlns="http://www.w3.org/2000/svg">
    <path d="M120.423 0H5.762v166.569h114.661V0z" fill="#E0E0E0"/>
    <path d="M114.675 0H.014v166.569h114.661V0z" fill="#F5F5F5"/>
    <path d="M100.44 18.047H14.268v130.485h86.172V18.047z" fill="#fff"/>
    <path d="M100.408 148.533v-9.648c0-6.248 0-15.369-.08-26.882 0-23.003-.08-55.584-.137-93.956l.286.286-86.219.023.308-.309c0 49.21 0 94.608-.068 130.463l-.24-.252 62.709.137H100.441 77.149l-62.903.424h-.285v-.252c0-35.877 0-81.253-.068-130.463v-.32H100.739v.286c0 38.44-.103 71.09-.137 94.15 0 11.445 0 20.6-.08 26.814v8.915c0 .423-.114.584-.114.584z" fill="#E0E0E0"/>
    <path d="M114.983.045a19.154 19.154 0 0 1-2.044 2.976 212.876 212.876 0 0 1-5.378 6.866c-2.158 2.644-4.179 4.956-5.709 6.604-.759.931-1.6 1.793-2.512 2.575a20.585 20.585 0 0 1 2.181-2.861c1.541-1.877 3.425-4.178 5.526-6.718l5.515-6.718a22.838 22.838 0 0 1 2.421-2.724z" fill="#E0E0E0"/>
    <path d="M100.863 148.109a106.123 106.123 0 0 0 15.027 18.837z" fill="#fff"/>
    <path d="M115.912 166.946a16.566 16.566 0 0 1-2.626-2.38 84.202 84.202 0 0 1-5.709-6.409 81.664 81.664 0 0 1-4.99-6.958 17.13 17.13 0 0 1-1.747-3.09 26.432 26.432 0 0 1 2.112 2.838 182.205 182.205 0 0 0 5.104 6.867c2.067 2.655 4.054 4.863 5.504 6.489a25.003 25.003 0 0 1 2.352 2.643z" fill="#E0E0E0"/>
    <path d="m0 166.443 15.015-18.574z" fill="#fff"/>
    <path d="M15.015 147.869a110.42 110.42 0 0 1-7.273 9.487A118.494 118.494 0 0 1 0 166.443a111.7 111.7 0 0 1 7.262-9.487 114.04 114.04 0 0 1 7.753-9.087zM.014.045a104.473 104.473 0 0 1 7.284 8.732c2.454 2.92 4.741 5.977 6.851 9.156a103.609 103.609 0 0 1-7.284-8.744A100.687 100.687 0 0 1 .014.045zM73.582 44.54H44.73v82.112h28.853V44.541z" fill="#E0E0E0"/>
    <path d="M414.446 358.932H209.844v94.574h204.602v-94.574z" fill="#F5F5F5"/>
    <path d="M409.586 449.055H214.529v-85.087h195.057v85.087zm-193.789-1.271h192.51v-82.592h-192.51v82.592zM464.428 358.932h-49.989v94.574h49.989v-94.574z" fill="#E0E0E0"/>
    <path d="M215.159 390.289h193.778a.259.259 0 0 0 .208-.257.27.27 0 0 0-.058-.166.266.266 0 0 0-.15-.092H215.159a.263.263 0 0 0 0 .515z" fill="#E0E0E0"/>
    <path d="M312.687 390.003c.537-8.555.56-17.134.068-25.692a.263.263 0 1 0-.525 0 211.556 211.556 0 0 0 .068 25.692c0 .052.021.101.057.138a.198.198 0 0 0 .138.057c.051 0 .1-.021.137-.057a.198.198 0 0 0 .057-.138zM364.857 377.163a2.654 2.654 0 0 1-1.638 2.454 2.643 2.643 0 0 1-2.888-.581 2.654 2.654 0 0 1 1.888-4.528 2.654 2.654 0 0 1 2.638 2.655zM263.153 377.163a2.646 2.646 0 0 1-1.637 2.434 2.637 2.637 0 0 1-3.589-1.934 2.65 2.65 0 0 1 1.124-2.71 2.632 2.632 0 0 1 3.904 1.195c.132.322.199.667.198 1.015zM314.701 406.482a2.647 2.647 0 0 1-5.247.534 2.655 2.655 0 0 1 3.611-2.979 2.627 2.627 0 0 1 1.434 1.431c.133.322.202.666.202 1.014zM234.303 453.518l-10.528 59.372h5.926l19.423-59.372h-14.821zM399.969 453.518l8.804 59.475h-5.926l-17.699-59.475h14.821zM439.534 453.518l9.979 59.475h-5.926l-18.874-59.475h14.821zM314.504 433.25a2.647 2.647 0 0 1-1.628 2.443 2.633 2.633 0 0 1-2.875-.573 2.648 2.648 0 0 1 .4-4.068c.434-.29.944-.445 1.465-.445a2.622 2.622 0 0 1 2.441 1.63c.132.321.199.666.197 1.013zM215.159 419.552h193.778a.266.266 0 0 0 .15-.092.268.268 0 0 0 0-.332.264.264 0 0 0-.15-.091H215.159a.262.262 0 0 0-.149.423c.038.047.09.079.149.092zM335.003 483.677l-.062-11.73-57.512.302.061 11.73 57.513-.302z" fill="#E0E0E0"/>
    <path d="m341.908 513.255-.096-18.23-64.1.336.095 18.23 64.101-.336z" fill="#F5F5F5"/>
    <path d="M329.596 513.165a129.89 129.89 0 0 1 0-18.231c.412 6.07.412 12.161 0 18.231zM332.278 513.165a134.608 134.608 0 0 1 0-18.231 129.89 129.89 0 0 1 0 18.231zM287.471 513.165a134.608 134.608 0 0 1 0-18.231c.412 6.07.412 12.161 0 18.231zM290.182 513.165a134.608 134.608 0 0 1 0-18.231c.412 6.07.412 12.161 0 18.231zM295.994 504.341c0-.172 6.474-.309 14.444-.309 7.97 0 14.444.137 14.444.309s-6.463.321-14.444.321c-7.981 0-14.444-.138-14.444-.321z" fill="#E0E0E0"/>
    <path d="m365.977 494.929-.061-11.73-79.093.415.062 11.73 79.092-.415z" fill="#EBEBEB"/>
    <path d="M354.672 493.504a3.784 3.784 0 0 1-3.534-2.314 3.808 3.808 0 0 1 .792-4.156 3.785 3.785 0 0 1 5.845.555 3.8 3.8 0 0 1 .643 2.115 3.766 3.766 0 0 1-2.305 3.503 3.757 3.757 0 0 1-1.441.297zM344.404 490.883v-2.347h-52.946v2.347h52.946z" fill="#E0E0E0"/>
    <path d="M474.201 15.622H169.93v304.962h304.271V15.622z" fill="#fff"/>
    <path d="M474.186 320.583c0-2.197-.103-122.097-.251-304.962l.251.263H169.949l.297-.297v304.962l-.262-.252 304.271.252-304.271.263h-.252V15.289H474.563v.252c-.274 182.945-.365 302.845-.377 305.042z" fill="#666"/>
    <path d="M402.827 74.902c0 .16-37.223.297-83.124.297-45.901 0-83.113-.137-83.113-.297 0-.16 37.2-.298 83.113-.298 45.912 0 83.124.138 83.124.298zM429.678 127.453v-17.269l.103.114-220.211.183.297-.297v17.257l-.297-.297 156.235.126 46.814.091h17.15-17.036l-46.814.092-156.429.126h-.297v-17.67h.309l220.21.183h.114v.115c0 5.642 0 9.967-.057 12.886v3.284c0 .755-.091 1.076-.091 1.076zM429.678 170.563v-17.269l.103.114-220.211.183.297-.297v17.269l-.297-.298 156.235.126 46.814.092h17.15-17.036l-46.814.091-156.429.126h-.297v-17.853h.309l220.21.195h.114v.103c0 5.642 0 9.968-.057 12.886v3.284c0 .756-.091 1.248-.091 1.248zM429.681 257.091v-17.898c0-11.616-.057-28.611-.103-49.885l.183.194-220.211.103.297-.297v67.829l-.285-.286 157.456.126 46.084.091h16.728-16.545l-46.016.08-157.662.126h-.296v-68.31h.308l220.211.115h.194v.183c0 21.378-.08 38.349-.103 49.999v16.709c0 .801-.24 1.121-.24 1.121z" fill="#263238"/>
    <path d="M207.892 39.631a24.352 24.352 0 0 0-2.626-.114 10.7 10.7 0 0 0-6.475 2.597 10.549 10.549 0 0 0-3.539 9.407c.133 1.002.414 1.977.833 2.896a10.467 10.467 0 0 0 1.702 2.632 10.402 10.402 0 0 0 12.057 2.632A9.984 9.984 0 0 0 212.482 58a9.82 9.82 0 0 0 1.964-2.289 10.545 10.545 0 0 0 .685-10.025 10.797 10.797 0 0 0-4.762-5.07c-.792-.372-1.604-.7-2.432-.984.883.116 1.739.38 2.535.778a10.665 10.665 0 0 1 5.081 5.093 10.858 10.858 0 0 1 1.062 4.944 10.994 10.994 0 0 1-1.678 5.562 10.933 10.933 0 0 1-4.819 4.2 10.893 10.893 0 0 1-12.731-2.781 10.294 10.294 0 0 1-1.861-2.781 10.149 10.149 0 0 1-.857-3.044 10.908 10.908 0 0 1 3.803-9.808 10.74 10.74 0 0 1 6.736-2.518 8.366 8.366 0 0 1 2.684.355z" fill="#EB5976"/>
    <path d="M201.875 40.1a94.486 94.486 0 0 1 5.161 9.258 91.254 91.254 0 0 1 4.567 9.533 100.842 100.842 0 0 1-5.149-9.258 92.826 92.826 0 0 1-4.579-9.533zM204.049 39.493a87.295 87.295 0 0 1 5.001 8.96 91.1 91.1 0 0 1 4.487 9.236 88.58 88.58 0 0 1-5.012-8.96 89.29 89.29 0 0 1-4.476-9.236zM206.576 39.528a68.779 68.779 0 0 1 4.419 7.85 66.374 66.374 0 0 1 3.905 8.126 70.244 70.244 0 0 1-4.43-7.85 69.15 69.15 0 0 1-3.894-8.126zM209.297 39.929a47.17 47.17 0 0 1 3.62 6.306 43.838 43.838 0 0 1 3.083 6.58 47.17 47.17 0 0 1-3.62-6.306 43.838 43.838 0 0 1-3.083-6.58zM199.918 41.37a93.39 93.39 0 0 1 5.161 9.258 92.99 92.99 0 0 1 4.636 9.533 92.674 92.674 0 0 1-5.161-9.258 95.701 95.701 0 0 1-4.636-9.533zM197.955 42.64a93.258 93.258 0 0 1 5.161 9.247 95.417 95.417 0 0 1 4.567 9.533 92.874 92.874 0 0 1-5.161-9.258 96.245 96.245 0 0 1-4.567-9.521zM196.398 44.678a68.89 68.89 0 0 1 4.488 8.011 70.114 70.114 0 0 1 3.962 8.251 69.676 69.676 0 0 1-4.487-8.01 71.514 71.514 0 0 1-3.963-8.252zM195.207 47.424a42.857 42.857 0 0 1 3.597 6.26 44.858 44.858 0 0 1 3.072 6.534 43.694 43.694 0 0 1-3.597-6.26 42.672 42.672 0 0 1-3.072-6.534zM291.964 284.74c-.069 0-.457-.835-1.587-2.105a10.649 10.649 0 0 0-6.109-3.353 10.395 10.395 0 0 0-5.163.393 10.427 10.427 0 0 0-4.337 2.834 10.505 10.505 0 0 0-2.649 5.47 10.43 10.43 0 0 0 1.006 6.424 10.402 10.402 0 0 0 4.612 4.574c.934.486 1.94.818 2.98.984.988.171 1.996.194 2.991.069a10.602 10.602 0 0 0 7.303-4.384 10.634 10.634 0 0 0 1.729-8.354c-.365-1.647-.845-2.483-.776-2.517a8.282 8.282 0 0 1 1.004 2.472c.6 2.398.35 4.93-.707 7.164a10.81 10.81 0 0 1-3.14 3.959 10.932 10.932 0 0 1-5.344 2.289c-1.048.16-2.115.16-3.163 0a10.601 10.601 0 0 1-3.14-1.018 10.952 10.952 0 0 1-4.878-4.833 10.985 10.985 0 0 1-1.048-6.795 10.33 10.33 0 0 1 1.016-3.147 10.462 10.462 0 0 1 1.804-2.597 10.87 10.87 0 0 1 9.968-3.273 10.677 10.677 0 0 1 6.223 3.627 8.174 8.174 0 0 1 1.405 2.117z" fill="#EB5976"/>
    <path d="M287.755 280.426a96.668 96.668 0 0 1-3.871 9.876 94.935 94.935 0 0 1-4.407 9.625 96.032 96.032 0 0 1 3.859-9.865 95.747 95.747 0 0 1 4.419-9.636zM289.631 281.685a88.542 88.542 0 0 1-3.734 9.567 88.732 88.732 0 0 1-4.282 9.327 87.186 87.186 0 0 1 3.734-9.556 91.07 91.07 0 0 1 4.282-9.338zM291.2 283.664a69.31 69.31 0 0 1-3.254 8.412 66.152 66.152 0 0 1-3.792 8.171 67.622 67.622 0 0 1 3.255-8.412 66.146 66.146 0 0 1 3.791-8.171zM292.576 286.022a44.653 44.653 0 0 1-2.558 6.809 45.291 45.291 0 0 1-3.118 6.558 44.79 44.79 0 0 1 2.57-6.798 45.77 45.77 0 0 1 3.106-6.569zM285.54 279.682a98.168 98.168 0 0 1-3.871 9.865 97.215 97.215 0 0 1-4.407 9.636 94.599 94.599 0 0 1 3.859-9.876 90.414 90.414 0 0 1 4.419-9.625zM283.308 278.961a92.14 92.14 0 0 1-3.86 9.865 94.362 94.362 0 0 1-4.407 9.636 94.11 94.11 0 0 1 3.859-9.865 94.37 94.37 0 0 1 4.408-9.636zM280.772 279.007a70.082 70.082 0 0 1-3.301 8.537 70.894 70.894 0 0 1-3.848 8.297 71.376 71.376 0 0 1 3.3-8.549 70.495 70.495 0 0 1 3.849-8.285zM277.885 279.877a45.066 45.066 0 0 1-2.546 6.752 41.804 41.804 0 0 1-3.095 6.523 45.07 45.07 0 0 1 2.547-6.752 43.044 43.044 0 0 1 3.094-6.523zM450.259 66.856a31.251 31.251 0 0 0-.72-4.772 18.905 18.905 0 0 0-2.192-5.184 19.423 19.423 0 0 0-10.168-8.32 19.37 19.37 0 0 0-13.125.069 17.981 17.981 0 0 0-4.887 2.643 21.03 21.03 0 0 0-2.192 1.865 21.213 21.213 0 0 0-1.896 2.29 19.304 19.304 0 0 0 0 22.887 21.202 21.202 0 0 0 1.896 2.29c.687.67 1.42 1.294 2.192 1.865a17.979 17.979 0 0 0 4.887 2.643 19.37 19.37 0 0 0 13.125.068 19.423 19.423 0 0 0 10.168-8.319 18.905 18.905 0 0 0 2.192-5.184c.363-1.57.603-3.165.72-4.772.013.106.013.214 0 .32v.938c.002.51-.04 1.02-.126 1.523a13.566 13.566 0 0 1-.377 2.048 18.738 18.738 0 0 1-2.124 5.299 19.847 19.847 0 0 1-5.649 6.152 19.801 19.801 0 0 1-7.676 3.278c-3.49.66-7.094.372-10.436-.836a18.756 18.756 0 0 1-5.047-2.7 22.27 22.27 0 0 1-2.283-1.923 21.258 21.258 0 0 1-1.953-2.289 19.856 19.856 0 0 1 0-23.586 23.721 23.721 0 0 1 1.953-2.29 22.27 22.27 0 0 1 2.283-1.922 18.763 18.763 0 0 1 5.081-2.826 19.657 19.657 0 0 1 23.762 8.651 18.736 18.736 0 0 1 2.123 5.299c.179.68.305 1.372.377 2.071.086.503.128 1.012.126 1.522v.939a1.372 1.372 0 0 1-.034.263z" fill="#EB5976"/>
    <path d="M447.03 56.282c.103.126-6.451 5.791-14.649 12.589s-14.924 12.428-15.026 12.245c-.103-.183 6.451-5.722 14.649-12.588 8.198-6.867 14.924-12.406 15.026-12.246zM449.004 59.944c.103.126-6.257 5.607-14.193 12.256-7.936 6.65-14.467 11.937-14.57 11.81-.102-.125 6.246-5.618 14.193-12.267 7.947-6.65 14.444-11.925 14.57-11.8zM449.905 64.464c.115.126-5.457 4.956-12.423 10.792-6.965 5.837-12.708 10.46-12.811 10.3-.102-.16 5.458-4.956 12.423-10.792 6.965-5.836 12.709-10.425 12.811-10.3zM450.237 69.488c.103.126-4.362 4.04-9.979 8.743-5.618 4.704-10.277 8.412-10.368 8.286-.091-.126 4.362-4.04 9.991-8.743 5.629-4.704 10.265-8.412 10.356-8.286zM444.013 53.26c.114.127-6.451 5.791-14.638 12.59-8.187 6.797-14.935 12.325-15.038 12.199-.103-.126 6.451-5.791 14.65-12.657 8.198-6.867 14.923-12.257 15.026-12.131zM441.007 50.24c.103.126-6.463 5.79-14.649 12.588-8.187 6.798-14.924 12.383-15.038 12.257-.114-.126 6.451-5.79 14.649-12.657 8.199-6.867 14.924-12.314 15.038-12.188zM436.826 48.203c.102.125-5.538 5.024-12.618 10.952-7.079 5.928-12.879 10.62-12.993 10.494-.115-.126 5.537-5.036 12.617-10.952 7.079-5.917 12.891-10.586 12.994-10.494zM431.403 47.195c.103.126-4.339 4.017-9.911 8.686-5.572 4.67-10.196 8.354-10.276 8.228-.08-.125 4.327-4.016 9.911-8.686 5.583-4.669 10.173-8.354 10.276-8.228zM409.675 41.221a3.658 3.658 0 0 0 3.654-3.662 3.658 3.658 0 0 0-3.654-3.662 3.658 3.658 0 0 0-3.654 3.662 3.658 3.658 0 0 0 3.654 3.662zM308.011 278.4a3.658 3.658 0 0 1-4.36 3.605 3.656 3.656 0 0 1-2.877-2.875 3.67 3.67 0 0 1 1.552-3.762 3.647 3.647 0 0 1 4.611.45 3.67 3.67 0 0 1 1.074 2.582z" fill="#EB5976"/>
    <path d="M135.202 84.732a13.33 13.33 0 0 0-3.966-7.565 13.281 13.281 0 0 0-7.737-3.593 17.463 17.463 0 0 1-4.568-.504 26.292 26.292 0 0 1-3.254-1.865 8.854 8.854 0 0 0-10.836 2.289c-2.283 2.987-3.277-1.144-8.769 2.106-4.567 2.712-2.17 6.477-2.17 6.477a10.182 10.182 0 0 0-6.492 2.23 10.223 10.223 0 0 0-3.612 5.85c-.537 2.94 0 6.511-2.284 8.434-1.142.927-2.649 1.144-3.802 2.071-2.124 1.648-2.193 4.83-1.713 7.473.48 2.644 1.302 5.448.32 8.011-1.61 4.108-7.445 5.722-8.164 10.094-.343 2.06.514 4.577-.914 6.042a6.94 6.94 0 0 1-2.146 1.259 9.29 9.29 0 0 0-3.744 3.35 9.321 9.321 0 0 0-.2 9.684 9.292 9.292 0 0 0 3.601 3.503c.822.446 1.816.87 2.124 1.762.308.893-.297 2.026-.765 2.964a8.968 8.968 0 0 0 1.97 10.615 8.914 8.914 0 0 0 10.727.989 13.95 13.95 0 0 0 8.255 6.444 8.428 8.428 0 0 0 4.876.125 9.439 9.439 0 0 0 3.357-2.06c4.75-4.154 11.418-10.494 11.852-16.799" fill="#263238"/>
    <path d="M91.506 107.712a5.598 5.598 0 0 1-2.204 0 12.929 12.929 0 0 1-4.968-1.94 12.962 12.962 0 0 1-3.767-3.782 5.386 5.386 0 0 1-.924-1.991c.458.556.88 1.141 1.267 1.75a15.25 15.25 0 0 0 3.757 3.434 15.398 15.398 0 0 0 4.715 2.002 16.68 16.68 0 0 1 2.124.527zM94.709 93.235a4.801 4.801 0 0 1-1.428 1.43 12.63 12.63 0 0 1-9.26 2.37 4.787 4.787 0 0 1-1.94-.573c2.218.272 4.467.18 6.656-.274a20.09 20.09 0 0 0 5.972-2.953zM71.355 164.841h-.194a5.395 5.395 0 0 1-.57-.172 6.974 6.974 0 0 1-1.965-1.144 7.588 7.588 0 0 1-2.283-2.781 7.454 7.454 0 0 1-.549-4.692 7.741 7.741 0 0 1 1.017-2.587c.55-.86 1.228-1.632 2.01-2.288.8-.657 1.5-1.428 2.078-2.289a3.1 3.1 0 0 0 .09-2.964 14.958 14.958 0 0 0-2.043-2.781c-.4-.477-.756-.991-1.062-1.534a5.843 5.843 0 0 1-.617-1.842 6.538 6.538 0 0 1 .694-3.929 6.514 6.514 0 0 1 2.846-2.789 21.296 21.296 0 0 1 3.86-.904 4.419 4.419 0 0 0 1.644-.698c.456-.342.79-.824.947-1.373a5.474 5.474 0 0 0-.376-3.434c-.446-1.087-1.062-2.117-1.462-3.215a5.162 5.162 0 0 1-.24-3.434 5.548 5.548 0 0 1 1.953-2.62 15.036 15.036 0 0 1 5.275-2.22 11.778 11.778 0 0 0 4.156-1.9 5.246 5.246 0 0 0 1.736-2.895c.172-.713.1-1.463-.206-2.129-.217-.458-.422-.641-.388-.664.211.162.383.369.502.607.36.68.473 1.465.32 2.22a5.338 5.338 0 0 1-1.747 3.113 11.64 11.64 0 0 1-4.259 2.048c-1.817.41-3.54 1.16-5.08 2.209a4.928 4.928 0 0 0-1.76 2.392 4.586 4.586 0 0 0 .252 3.101c.388 1.053.993 2.049 1.473 3.193a6.043 6.043 0 0 1 .41 3.776 3.253 3.253 0 0 1-1.14 1.683 4.996 4.996 0 0 1-1.862.812 21.089 21.089 0 0 0-3.745.859c-1.1.555-2 1.439-2.574 2.53a5.952 5.952 0 0 0-.635 3.558c.089.578.27 1.139.537 1.659.29.514.626 1.001 1.005 1.454a14.667 14.667 0 0 1 2.09 2.906 3.636 3.636 0 0 1-.138 3.434 10.458 10.458 0 0 1-2.192 2.369 9.652 9.652 0 0 0-1.953 2.117 7.315 7.315 0 0 0-.993 2.437 7.125 7.125 0 0 0 .434 4.464 7.54 7.54 0 0 0 2.09 2.735 9.512 9.512 0 0 0 2.614 1.602z" fill="#455A64"/>
    <path d="M189.84 451.286H66.856v6.546H189.84v-6.546z" fill="#E0E0E0"/>
    <path d="M189.813 457.809v-1.625c0-1.144 0-2.723-.057-4.921l.091.092c-15.985.114-65.026.206-122.985.206l.297-.298v6.546l-.297-.297 87.098.126 26.261.091h9.649-9.5l-26.171.092-87.314.126h-.297v-7.004h.297c57.958 0 107.034.08 122.985.206h.091v.091c0 2.221 0 3.857-.057 4.967v1.202c-.019.136-.049.27-.091.4z" fill="#263238"/>
    <path d="M79.754 337.829 53.789 513.633h8.655l23.499-173.515v-2.289h-6.189z" fill="#E0E0E0"/>
    <path d="M79.737 337.83h6.269v2.369c-2.81 21.64-12.126 91.129-23.293 173.538V514H53.43v-.343c7.353-48.981 13.861-92.984 18.577-124.741a39953.9 39953.9 0 0 1 5.63-37.456c.661-4.395 1.141-7.805 1.54-10.14l.4-2.621c.103-.583.16-.869.16-.869s0 .309-.114.915c-.114.607-.206 1.511-.377 2.667-.331 2.289-.822 5.722-1.461 10.208-1.28 8.858-3.14 21.675-5.447 37.548C67.68 420.879 61.24 464.79 54.07 513.68l-.297-.344h8.667l-.297.252c11.201-82.409 20.655-151.909 23.76-173.481v-2.289l.07.069h-4.66l-1.575-.057z" fill="#263238"/>
    <path d="m176.927 337.829 26.513 175.804h-8.666l-24.036-173.515v-2.289h6.189z" fill="#E0E0E0"/>
    <path d="M176.948 337.83H170.76l.068-.069v2.289c3.117 21.606 12.834 91.06 24.252 173.481l-.285-.252h8.655l-.297.343c-7.319-48.878-13.907-92.8-18.657-124.512-2.352-15.872-4.248-28.678-5.572-37.548a1831.66 1831.66 0 0 0-1.496-10.208c-.16-1.144-.285-2.048-.377-2.666a15.09 15.09 0 0 1-.114-.916s.057.286.16.87c.103.584.228 1.488.411 2.621.365 2.289.891 5.722 1.576 10.139 1.358 8.835 3.311 21.618 5.709 37.457 4.818 31.757 11.486 75.725 18.92 124.672v.343h-9.261v-.263c-11.418-82.398-20.963-151.898-23.841-173.538v-2.369h4.773c1.096.103 1.564.126 1.564.126z" fill="#263238"/>
    <path d="M129.233 337.829h-7.399v175.804h7.399V337.829z" fill="#E0E0E0"/>
    <path d="M129.216 513.634v-13.791c0-8.869-.058-21.675-.092-37.536 0-31.712-.08-75.623-.125-124.477l.296.297h-7.399l.297-.297c0 84.171-.091 155.067-.217 175.804l-.08-.081h7.399-7.478v-.08c-.126-20.736-.217-91.632-.217-175.804v-.297h7.992v.297c0 48.947-.091 92.926-.114 124.741 0 15.838-.08 28.61-.091 37.468v12.76c0 .607-.171.996-.171.996z" fill="#263238"/>
    <path d="M178.4 326.077H76.88v13.217H178.4v-13.217z" fill="#455A64"/>
    <path d="M107.906 326.454a30.874 30.874 0 0 1-3.71 3.181 40.218 40.218 0 0 1-4.454 2.804 39.824 39.824 0 0 1-12.114 4.189 38.713 38.713 0 0 1-5.23.538 31.046 31.046 0 0 1-4.83-.172h4.853a40.644 40.644 0 0 0 5.195-.584 45.567 45.567 0 0 0 6.2-1.613 46.792 46.792 0 0 0 5.858-2.552 41.86 41.86 0 0 0 4.453-2.747c1.21-.87 2.169-1.614 2.797-2.163l.731-.618.251-.263zM122.443 335.14l-.251-.091c-.16-.069-.4-.195-.719-.321a13.486 13.486 0 0 0-7.651-.583 12.87 12.87 0 0 0-5.549 2.7v-.16a43.164 43.164 0 0 0 11.224 1.225 42.16 42.16 0 0 0 6.429-.653 9.649 9.649 0 0 0 3.197-.938 2.37 2.37 0 0 0 1.039-1.247 2.53 2.53 0 0 0-.057-1.637 4.073 4.073 0 0 0-2.958-2.403 22.598 22.598 0 0 0-3.893-.538 41.06 41.06 0 0 0-7.445.149 42.756 42.756 0 0 0-19.64 7.324c-.833.561-1.45 1.053-1.872 1.373l-.65.481s.205-.183.627-.515c.423-.332 1.005-.836 1.839-1.408a40.19 40.19 0 0 1 7.444-4.2 42.03 42.03 0 0 1 12.218-3.273 42.73 42.73 0 0 1 7.502-.171c1.326.072 2.643.256 3.939.549a5.878 5.878 0 0 1 1.861.87 3.666 3.666 0 0 1 1.245 1.682 2.63 2.63 0 0 1 0 1.797 2.47 2.47 0 0 1-1.142 1.361 9.806 9.806 0 0 1-3.277.973 41.484 41.484 0 0 1-6.474.641 42.374 42.374 0 0 1-11.27-1.259h-.171l.137-.114a12.972 12.972 0 0 1 5.709-2.712 13.276 13.276 0 0 1 4.761-.126c1.008.15 1.993.422 2.935.812.559.241.913.412.913.412zM135.559 326.42c.236.026.467.088.685.183a4.867 4.867 0 0 1 1.599 1.144 5.622 5.622 0 0 1 1.359 2.541 6.32 6.32 0 0 1-.286 3.525 8.462 8.462 0 0 1-4.384 4.52c-.585.273-1.193.495-1.816.664l-.514.126h-.182c.213-.098.435-.179.662-.241.609-.195 1.201-.44 1.77-.732a8.385 8.385 0 0 0 4.236-4.452 6.01 6.01 0 0 0 .297-3.433 5.49 5.49 0 0 0-1.268-2.483 5.374 5.374 0 0 0-2.158-1.362zM151.46 326.363c-.77.324-1.514.707-2.226 1.144a15.142 15.142 0 0 0-4.259 4.189 33.371 33.371 0 0 0-2.878 5.298l-.753 1.671c-.183.389-.286.607-.297.607.041-.222.11-.437.205-.641.16-.412.389-.996.686-1.706a29.075 29.075 0 0 1 2.843-5.367 14.533 14.533 0 0 1 4.361-4.2 9.731 9.731 0 0 1 1.667-.789c.158-.058.318-.108.48-.149.103-.057.171-.069.171-.057zM169.006 334.213l-.594-.263a10.217 10.217 0 0 0-1.747-.561 9.961 9.961 0 0 0-6.566.733c-.33.129-.615.352-.822.641a.767.767 0 0 0 .103.949 5.966 5.966 0 0 0 2.135 1.03c1.688.603 3.445.987 5.23 1.145a21.87 21.87 0 0 0 5.88-.286 5.961 5.961 0 0 0 2.809-1.145 2.474 2.474 0 0 0 .639-2.826 4.113 4.113 0 0 0-2.158-2.186 14.01 14.01 0 0 0-2.957-.984 20.716 20.716 0 0 0-5.869-.481 20.257 20.257 0 0 0-9.454 3.01 21.132 21.132 0 0 0-5.081 4.417c-.514.63-.879 1.145-1.142 1.476l-.377.527c.418-.722.892-1.411 1.416-2.06a21.335 21.335 0 0 1 5.115-4.624 20.346 20.346 0 0 1 9.535-3.078c1.991-.129 3.99.029 5.937.469 1.035.218 2.043.552 3.003.996a4.424 4.424 0 0 1 2.284 2.289c.207.531.259 1.111.148 1.671a2.732 2.732 0 0 1-.856 1.419 6.14 6.14 0 0 1-2.923 1.236 21.975 21.975 0 0 1-5.949.286 22.517 22.517 0 0 1-5.275-1.145c-.4-.137-.788-.297-1.142-.446a2.782 2.782 0 0 1-1.039-.664.949.949 0 0 1-.115-1.144c.231-.308.538-.549.891-.698a10.024 10.024 0 0 1 6.668-.664 8.009 8.009 0 0 1 2.273.961z" fill="#263238"/>
    <path d="M103.188 157.974a17.235 17.235 0 0 0-8.85 7.702c-3.322 5.894-2.431 8.801-1.564 12.291.868 3.491 2.398 10.391 2.478 9.945.08-.446 7.936-29.938 7.936-29.938zM103.544 158.009l6.987-4.155 32.485-12.188-6.383 54.726-23.978 15.129-14.204-7.118-1.416-15.839 6.509-30.555z" fill="#E7C59B"/>
    <path d="m102.715 241.287-12.697 16.502-15.734-3.708-12.583 7.05 3.334 5.939 33.387 2.243 11.772-24.318-7.479-3.708z" fill="#B6966F"/>
    <path d="m64.178 399.696 12.81 27.832 20.668-9.578-13.245-34.436-20.233 16.182z" fill="#E7C59B"/>
    <path d="m74.563 425.663 7.479 14.305s-19.16 19.856-17.356 24.296l45.033-21.641-12.4-28.69-22.756 11.73z" fill="#EB5976"/>
    <path d="M95.043 431.317a2.034 2.034 0 0 1 1.428.311c.421.277.726.7.855 1.188a1.97 1.97 0 0 1-1.45 2.289 2.156 2.156 0 0 1-2.41-1.591 2.05 2.05 0 0 1 1.782-2.209" fill="#E0E0E0"/>
    <path d="m109.738 442.623-1.873-3.605-42.498 22.099s-1.587 1.831-.685 3.147l45.056-21.641z" fill="#fff"/>
    <path d="M81.208 440.094c.103.218 1.256-.217 2.672 0 1.416.218 2.444.836 2.604.653.16-.183-.777-1.305-2.501-1.5-1.725-.194-2.924.664-2.775.847zM77.424 444.317c0 .24 1.141.16 2.375.733 1.233.572 1.884 1.453 2.09 1.339.205-.115-.24-1.431-1.736-2.118-1.496-.687-2.832-.194-2.73.046zM77.446 451.275c.229 0 0-1.305-1.142-2.289-1.142-.985-2.398-.927-2.398-.698 0 .229.937.572 1.862 1.35.925.779 1.45 1.718 1.678 1.637zM79.06 434.579c.194.16 1.05-.63 2.283-1.145 1.234-.515 2.444-.584 2.467-.824.023-.241-1.29-.584-2.787 0-1.495.583-2.146 1.854-1.964 1.969zM77.763 431.717s-.229-.286-.423-.904a6.632 6.632 0 0 1-.205-2.724c.024-.313.093-.622.205-.915a1.145 1.145 0 0 1 .902-.733.8.8 0 0 1 .364.037.8.8 0 0 1 .31.192c.151.174.247.389.274.618.03.381.03.763 0 1.144 0 .767 0 1.5-.183 2.381a1.435 1.435 0 0 1-.936 1.144 2.798 2.798 0 0 1-1.404.057 11.272 11.272 0 0 1-3.574-1.27 3.266 3.266 0 0 1-1.005-.767 1.063 1.063 0 0 1 0-1.339c.153-.136.337-.234.536-.284a1.28 1.28 0 0 1 .606-.002 7.706 7.706 0 0 1 1.77.721 9.66 9.66 0 0 1 2.18 1.625c.446.458.651.744.617.778a18.072 18.072 0 0 0-2.992-2.025 7.48 7.48 0 0 0-1.655-.618.826.826 0 0 0-.73.149.549.549 0 0 0 .068.663c.244.248.53.449.844.596.34.188.691.356 1.051.503.734.31 1.5.541 2.284.687.374.097.767.097 1.141 0a.82.82 0 0 0 .56-.687c.103-.732.137-1.579.206-2.289a6.826 6.826 0 0 0 0-1.041c0-.298-.16-.435-.377-.424-.491 0-.663.699-.743 1.225a9.405 9.405 0 0 0 .309 3.502zM63.872 409.252 31.25 327.873s.754-14.442 3.425-19.008c2.672-4.567 83.079-31.186 83.079-31.186s20.484-4.932 34.14 0c13.656 4.933 23.898 22.065 22.003 31.563-1.895 9.499-9.899 16.491-9.899 16.491l-59.147 1.762-32.233 11.788 21.695 62.37s-11.088 12.165-30.441 7.599z" fill="#263238"/>
    <path d="m35.01 354.698-.766 30.636 22.768.549 3.277-36.758-25.28 5.573z" fill="#E7C59B"/>
    <path d="m32.878 382.587.423 16.148s-25.93 9.338-26.262 14.122l49.932.503 1.541-31.219-25.634.446z" fill="#EB5976"/>
    <path d="M48.766 396.721a2.063 2.063 0 0 1 1.393 2.357 1.974 1.974 0 0 1-2.284 1.396 2.166 2.166 0 0 1-1.45-2.494 2.03 2.03 0 0 1 2.558-1.145" fill="#E0E0E0"/>
    <path d="m56.95 413.36-.09-4.062-47.843 1.041s-2.284.938-1.998 2.518l49.931.503z" fill="#fff"/>
    <path d="M32.487 398.472c0 .252 1.222.366 2.421 1.145 1.2.778 1.816 1.831 2.044 1.74.229-.092-.125-1.511-1.587-2.45-1.462-.939-2.923-.607-2.878-.435zM27.228 400.589c-.069.241.993.664 1.804 1.705.81 1.042 1.05 2.141 1.29 2.129.24-.011.412-1.385-.628-2.655-1.039-1.27-2.466-1.408-2.466-1.179zM24.169 406.849c.228 0 .582-1.145 0-2.506-.583-1.362-1.747-1.889-1.85-1.694-.103.194.594.927 1.073 2.037.48 1.11.537 2.129.777 2.163zM32.988 392.578c.103.229 1.222-.103 2.604 0 1.382.103 2.444.55 2.57.343.125-.206-.891-1.087-2.513-1.144-1.621-.058-2.775.606-2.66.801zM33.062 389.431a2.295 2.295 0 0 1 0-.996 6.676 6.676 0 0 1 1.005-2.54c.166-.269.365-.515.593-.733a1.139 1.139 0 0 1 1.142-.251.81.81 0 0 1 .503.503c.068.22.068.455 0 .675a8.438 8.438 0 0 1-.526 1.019c-.388.652-.719 1.316-1.21 2.048a1.41 1.41 0 0 1-1.336.607 2.721 2.721 0 0 1-1.29-.572 11.714 11.714 0 0 1-1.907-1.751 14.71 14.71 0 0 1-.742-.973 3.141 3.141 0 0 1-.56-1.144 1.057 1.057 0 0 1 .571-1.225 1.25 1.25 0 0 1 1.142.275c.482.424.908.909 1.268 1.442a9.547 9.547 0 0 1 1.244 2.414c.13.309.204.638.217.973a18.557 18.557 0 0 0-1.804-3.136 7.567 7.567 0 0 0-1.21-1.293.852.852 0 0 0-.72-.194.535.535 0 0 0-.228.629c.105.33.272.637.491.904.223.322.463.632.72.927a11.313 11.313 0 0 0 1.826 1.671c.3.23.647.391 1.017.469a.86.86 0 0 0 .81-.377c.411-.607.81-1.351 1.142-1.969.19-.292.358-.598.502-.915.103-.286 0-.47-.148-.55-.457-.183-.902.332-1.21.767a9.576 9.576 0 0 0-1.302 3.296zM48.3 269.646s-13.703-1.088-15.153 13.732c-1.45 14.821-3.014 84.023-3.014 84.023L62 370.067l4.932-70.735 50.846-21.653s-60.402-9.933-69.48-8.033z" fill="#263238"/>
    <path d="M104.502 249.641s-8.279 23.255-6.703 25.852c1.576 2.598 22.836 13.253 22.836 13.253l53.255 20.496a44.814 44.814 0 0 0 5.469-22.11c0-13.401-18.52-37.491-18.52-37.491h-56.337z" fill="#263238"/>
    <path d="M120.291 276.501s-.08 0-.252.137l-.753.343-2.946 1.316-11.076 4.841-38.216 16.48.171-.241c-.48 6.993-1.005 14.534-1.541 22.339-1.302 18.254-2.49 35.076-3.426 48.386v.24h-.228l-23.26-2.06-6.393-.595-1.667-.183a2.82 2.82 0 0 1-.571-.08c.194-.018.388-.018.582 0l1.667.103 6.406.469 23.236 1.843-.252.217a49995.9 49995.9 0 0 1 3.312-48.397c.548-7.805 1.073-15.347 1.564-22.327v-.184l.16-.068 38.308-16.285 11.133-4.681 2.991-1.236.777-.297.274-.08zM162.633 278.824a6.458 6.458 0 0 1-1.496-.412l-4.008-1.293a87.763 87.763 0 0 0-13.428-3.434 39.075 39.075 0 0 0-13.701.184 53.891 53.891 0 0 0-5.504 1.59 7.754 7.754 0 0 1 1.382-.698 24.26 24.26 0 0 1 4.03-1.304 36.566 36.566 0 0 1 13.919-.355 74.509 74.509 0 0 1 13.462 3.582c1.679.595 3.026 1.144 3.962 1.476.481.177.943.399 1.382.664z" fill="#455A64"/>
    <path d="M155.09 266.567a37.527 37.527 0 0 0-4.647 0c-1.439.092-3.14.321-5.047.538-1.907.218-3.973.481-6.131.893a28.27 28.27 0 0 0-10.436 3.879 31.808 31.808 0 0 0-3.62 2.919c.203-.376.465-.716.776-1.008a15.88 15.88 0 0 1 2.604-2.288 26.742 26.742 0 0 1 10.562-4.109c2.18-.423 4.281-.664 6.188-.858 1.907-.195 3.62-.366 5.081-.412a18.513 18.513 0 0 1 3.426.149c.428.031.848.131 1.244.297z" fill="#455A64"/>
    <path d="M103.177 157.974s-9.055 29.103-8.85 37.434c.206 8.331 3.654 32.043 3.255 36.621-.4 4.578 1.233 17.532 6.851 17.532h56.36s12.731-3.536 13.279-11.192c.548-7.656-17.127-82.008-17.127-82.008s-3.334-13.665-7.993-14.66c-4.658-.996-9.865 0-12.982 9.647-3.117 9.648-4.157 23.266-10.813 29.938-6.657 6.672-16.123 14.156-16.123 14.156s-7.638-6.408-7.992-15.083c-.354-8.675 2.9-22.717 2.9-22.717l-.765.332z" fill="#EB5976"/>
    <path d="M162.515 163.078a12.111 12.111 0 0 0-6.2-4.772 29.416 29.416 0 0 0-7.787-1.499 20.732 20.732 0 0 0-7.091.252c-2.283.595-3.242 3.433-4.201 5.63a71.197 71.197 0 0 0 1.518 29.331 9.28 9.28 0 0 0 4.944 6.867 14.528 14.528 0 0 0 6.52 2.655c4.225.32 8.118-2.747 10.094-6.501 1.975-3.753 2.42-8.102 2.82-12.325.266-2.647.521-5.291.765-7.931.388-4.005.708-8.308-1.382-11.707z" fill="#E7C59B"/>
    <path d="M111.545 250.271a5.34 5.34 0 0 1-2.226-1.145 13.347 13.347 0 0 1-3.768-4.783 25.482 25.482 0 0 1-1.919-5.722 9.5 9.5 0 0 1-.388-2.484c.347.763.611 1.561.788 2.381a34.952 34.952 0 0 0 2.055 5.607 14.957 14.957 0 0 0 3.494 4.727c1.142.915 2.01 1.327 1.964 1.419zM141.353 214.199c-.282.305-.6.574-.948.801a18.45 18.45 0 0 1-2.912 1.705 17.771 17.771 0 0 1-4.818 1.442c-2.046.297-4.13.207-6.143-.263a20.215 20.215 0 0 1-9.568-5.573 24.67 24.67 0 0 1-2.204-2.552 5.648 5.648 0 0 1-.662-1.053c.091-.069 1.141 1.373 3.151 3.307a21.073 21.073 0 0 0 9.42 5.287c3.552.809 7.269.472 10.619-.961 2.615-1.144 3.996-2.289 4.065-2.14z" fill="#263238"/>
    <path d="M110.839 249.218c-.126.103-.903-.79-1.143-2.174a3.13 3.13 0 0 1 .251-2.461c.172 0 .08 1.087.332 2.289.251 1.202.754 2.254.56 2.346z" fill="#263238"/>
    <path d="M134.186 162.941c-.513.11-.989.35-1.382.698-.44.434-.745.987-.879 1.591a2.494 2.494 0 0 0 .514 2.289l.205.206-.285.091a5.305 5.305 0 0 0-3.186 2.861 5.483 5.483 0 0 0 .114 5.161l.343.561-.64-.171a3.754 3.754 0 0 0-2.222.111 3.775 3.775 0 0 0-1.865 5.611l-.525.263a2.092 2.092 0 0 0-2.604-1.007 3.214 3.214 0 0 0-2.226 2.289 12.114 12.114 0 0 0-.48 3.433l-.046 1.602-.491-1.579a1.916 1.916 0 0 0-2.123-1.145 2.704 2.704 0 0 0-1.907 1.602c-.754 1.614-.297 3.434 0 4.91h-.457a2.553 2.553 0 0 0-.97-1.968 2.968 2.968 0 0 0-1.896-.71 2.475 2.475 0 0 0-2.283 2.071 3.011 3.011 0 0 0 .274 2.129c.251.435.479.606.456.641a1.621 1.621 0 0 1-.571-.572 3.252 3.252 0 0 1 .309-3.777 2.532 2.532 0 0 1 1.827-.87 3.348 3.348 0 0 1 2.18.756 3.04 3.04 0 0 1 1.142 2.288v1.889l-.445-1.831a16 16 0 0 1-.48-2.484 5.2 5.2 0 0 1 .4-2.758 3.204 3.204 0 0 1 2.284-1.934 2.468 2.468 0 0 1 2.763 1.499l-.56.081a12.613 12.613 0 0 1 .503-3.56c.196-.612.51-1.18.925-1.67a3.416 3.416 0 0 1 1.712-1.03c.63-.186 1.3-.186 1.93 0a2.198 2.198 0 0 1 1.382 1.339l.822 2.288-1.348-2.071a4.334 4.334 0 0 1 2.148-6.466 4.305 4.305 0 0 1 2.568-.103l-.297.401a5.932 5.932 0 0 1-.068-5.631 5.624 5.624 0 0 1 3.494-3.021l-.08.297a2.756 2.756 0 0 1-.526-2.574 3.292 3.292 0 0 1 1.028-1.66 2.582 2.582 0 0 1 1.085-.549c.152.04.298.102.434.183z" fill="#EB5976"/>
    <path d="M103.463 158.18s.068 0 .16.218c.12.238.19.499.205.766.023.436-.068.869-.262 1.259-.27.54-.742.952-1.313 1.145v-.264a4.463 4.463 0 0 1 1.609 3.434 4.749 4.749 0 0 1-2.283 4.257v-.424a4.673 4.673 0 0 1 1.576 4.795 12.61 12.61 0 0 1-2.786 4.956l-.469-.366a2.181 2.181 0 0 1 2.713-.412c.286.168.529.398.713.675a3.443 3.443 0 0 1 .114 3.307 8.013 8.013 0 0 1-1.964 2.438l-.297-.492a3.225 3.225 0 0 1 2.569.084 3.253 3.253 0 0 1 1.701 1.931 3.252 3.252 0 0 1-.236 2.565 3.246 3.246 0 0 1-2.024 1.588l-.651.183.388-.561a2.413 2.413 0 0 1 2.341-.881 3.579 3.579 0 0 1 2.01.961 4.588 4.588 0 0 1 1.221 3.285c.012.744-.05 1.488-.182 2.22a3.205 3.205 0 0 1-.172.755c-.091 0 .149-1.075.08-2.964a4.397 4.397 0 0 0-1.21-3.01 3.345 3.345 0 0 0-1.69-.755 1.968 1.968 0 0 0-1.884.744l-.263-.378a2.876 2.876 0 0 0 1.862-3.238 2.817 2.817 0 0 0-1.366-1.708 2.798 2.798 0 0 0-2.174-.203l-1.325.469 1.028-.962a7.502 7.502 0 0 0 1.816-2.288 2.796 2.796 0 0 0-.069-2.713 1.608 1.608 0 0 0-2.466-.251l-.468-.355a12.237 12.237 0 0 0 2.706-4.704 4.149 4.149 0 0 0-1.313-4.268l-.332-.229.354-.206a4.29 4.29 0 0 0 2.09-3.8 4.172 4.172 0 0 0-1.382-3.215l-.239-.161.285-.08c.491-.165.9-.514 1.142-.972.197-.35.303-.744.308-1.145.008-.351-.05-.7-.171-1.03z" fill="#EB5976"/>
    <path d="M147.394 153.477s-12.754 2.003-9.671 20.176 25.12 48.946 25.12 48.946l-48.173 29.446 5.618 13.08 62.56-25.806s6.166-6.363 3.996-13.447c-2.169-7.084-18.269-51.704-18.269-51.704s-5.949-23.781-21.181-20.691zM72.646 263.26l17.242-10.918 22.836 1.076 1.918-1.328 5.618 13.081s-6.154 2.953-9.374 3.216l-19.948-1.522-21.192-1.591 2.9-2.014z" fill="#E7C59B"/>
    <path d="M162.766 222.953a10.61 10.61 0 0 1-1.142-1.476 193.772 193.772 0 0 1-2.831-4.177 263.889 263.889 0 0 1-8.667-14.237 255.102 255.102 0 0 1-7.73-14.762 160.592 160.592 0 0 1-2.124-4.578 9.741 9.741 0 0 1-.708-1.717c.34.517.638 1.061.891 1.625l2.284 4.498a409.717 409.717 0 0 0 7.878 14.648 405.05 405.05 0 0 0 8.495 14.305l2.672 4.28c.373.501.701 1.033.982 1.591z" fill="#7C3B29"/>
    <path d="M174.642 227.096a41.61 41.61 0 0 0-5.709-3.009 41.243 41.243 0 0 0-6.337-1.488c2.22-.159 4.449.16 6.537.936a15.62 15.62 0 0 1 5.566 3.561h-.057z" fill="#B6966F"/>
    <path d="M3.184 208.706c.433 1.327 17.743 59.635 17.743 59.635l99.338 7.153 3.654-6.18-55.47-4.189-15.562-59.829a5.01 5.01 0 0 0-2.104-2.921 4.991 4.991 0 0 0-3.514-.753l-44.085 7.084z" fill="#455A64"/>
    <path d="M34.532 233.173c.833 1.74.49 3.64-.788 4.258-1.28.618-2.98-.287-3.814-2.015-.834-1.728-.491-3.639.776-4.257 1.268-.618 2.992.286 3.826 2.014z" fill="#FAFAFA"/>
    <path d="M122.016 272.564h-1.13l-3.255-.183-12.034-.801-40.306-2.907h-.206l-.057-.195c-.537-1.876-1.142-3.868-1.69-5.882l-12.183-42.984-3.62-13.023c-.41-1.511-.73-2.701-.959-3.559-.091-.378-.171-.676-.228-.927a1.07 1.07 0 0 1-.069-.321c.057.097.1.201.126.309.068.241.171.538.285.916.263.847.617 2.014 1.062 3.513l3.814 12.978 12.354 42.881c.571 2.014 1.142 4.005 1.679 5.882l-.263-.217 40.295 3.101 12.012.984 3.243.286.845.092a.898.898 0 0 1 .285.057z" fill="#263238"/>
    <path d="m136.005 94.39-.092-4.485-27.038-4.029c-8.312-.537-16.91 8.126-17.127 16.469-.206 9.269-.092 20.599 1.279 27.465 2.763 13.733 13.439 15.118 13.439 15.118l.616 13.733 30.612-.858-1.689-63.412z" fill="#E7C59B"/>
    <path d="M97.504 112.061a1.763 1.763 0 0 0 1.781 1.717 1.71 1.71 0 0 0 1.236-.462 1.709 1.709 0 0 0 .534-1.209 1.786 1.786 0 0 0-1.781-1.729 1.705 1.705 0 0 0-1.77 1.683zM94.947 108.136c.228.217 1.541-.836 3.426-.905 1.884-.068 3.346.825 3.54.584.194-.24-.137-.515-.765-.938a4.897 4.897 0 0 0-2.855-.756 4.72 4.72 0 0 0-2.73 1.007c-.502.493-.719.905-.616 1.008zM115.352 111.672a1.795 1.795 0 0 0 1.781 1.729 1.714 1.714 0 0 0 1.77-1.683 1.775 1.775 0 0 0-1.781-1.729 1.722 1.722 0 0 0-1.237.47 1.708 1.708 0 0 0-.533 1.213zM113.72 107.724c.228.229 1.53-.824 3.426-.893 1.895-.069 3.346.824 3.551.584.206-.241-.148-.527-.776-.939a4.773 4.773 0 0 0-2.844-.755 4.555 4.555 0 0 0-2.729 1.007c-.56.469-.742.893-.628.996zM107.362 122.2a13.284 13.284 0 0 0-3.129-.435c-.491 0-.948-.103-1.051-.435a2.52 2.52 0 0 1 .274-1.464c.411-1.145.834-2.461 1.291-3.777 1.781-5.379 3.06-9.796 2.843-9.865-.217-.068-1.839 4.235-3.631 9.613a730.407 730.407 0 0 0-1.234 3.8 2.856 2.856 0 0 0-.171 1.922 1.208 1.208 0 0 0 .834.687c.273.064.553.091.833.08 1.048.095 2.104.052 3.141-.126z" fill="#263238"/>
    <path d="M106.443 144.951a36.67 36.67 0 0 0 18.806-5.722s-4.282 9.899-18.657 9.155l-.149-3.433zM108.355 126.778a3.419 3.419 0 0 1 3.038-1.408 3.13 3.13 0 0 1 2.215 1.145 2.001 2.001 0 0 1 .24 2.288 2.275 2.275 0 0 1-2.478.733 7.34 7.34 0 0 1-2.501-1.362 2.382 2.382 0 0 1-.571-.549.649.649 0 0 1 0-.71" fill="#B6966F"/>
    <path d="M113.039 123.299c-.308 0-.228 2.071-1.952 3.616-1.725 1.545-3.929 1.408-3.929 1.705 0 .298.503.378 1.439.366a5.188 5.188 0 0 0 3.289-1.304 4.476 4.476 0 0 0 1.496-3.022c.046-.869-.206-1.384-.343-1.361zM112.925 100.251c.205.503 2.101.183 4.35.366 2.25.183 4.088.721 4.373.24.126-.228-.217-.709-.959-1.144a7.551 7.551 0 0 0-6.645-.47c-.811.367-1.21.756-1.119 1.008zM95.407 102.562c.354.424 1.656-.08 3.232-.171 1.576-.092 2.935.183 3.232-.286.125-.229-.103-.653-.708-1.042a4.44 4.44 0 0 0-2.661-.607 4.565 4.565 0 0 0-2.547.973c-.537.469-.708.927-.548 1.133z" fill="#263238"/>
    <path d="M88.205 85.556c2.284 4.852 7.216 12.073 12.56 12.588 2.663.23 5.341-.229 7.777-1.33a15.659 15.659 0 0 0 6.142-4.964c.89 3.937 5.321 5.94 9.306 6.5a15.71 15.71 0 0 0 8.392-.766 8.381 8.381 0 0 0 3.415-2.477 8.408 8.408 0 0 0 1.78-3.829c.366-2.827-3.802-9.659-6.611-10.128" fill="#263238"/>
    <path d="M131.382 156.441a10.978 10.978 0 0 0 2.469 6.116 10.94 10.94 0 0 0 5.524 3.589 7.755 7.755 0 0 0 1.659 5.077 7.72 7.72 0 0 0 9.812 1.975 7.744 7.744 0 0 0 3.486-4.043 9.065 9.065 0 0 1 1.142-2.62c1.348-1.728 3.997-1.385 6.075-2.06 3.745-1.213 5.366-5.814 4.944-9.739a9.435 9.435 0 0 1-.103-2.289c.228-1.568 1.461-2.77 2.375-4.074 3.768-5.356 2.192-13.127-1.987-18.173-1.393-1.683-3.151-3.434-3.014-5.619a11.537 11.537 0 0 1 1.142-3.434 9.936 9.936 0 0 0-2.661-10.814 3.081 3.081 0 0 1-1.142-1.374 2.975 2.975 0 0 1 0-1.144c.23-2.918-.65-5.815-2.462-8.11a11.562 11.562 0 0 0-7.312-4.261 2.807 2.807 0 0 1-1.016-.229c-.89-.47-.925-1.694-1.039-2.69-.308-2.643-2.283-7.564-4.35-9.292-5.595-4.784-11.007-.892-12.937.927 0 0-3.825 18.997-3.083 22.545.742 3.548 3.334 12.36 2.284 16.365-1.051 4.005-2.706 12.211-1.142 15.827 1.564 3.616 1.336 17.544 1.336 17.544z" fill="#263238"/>
    <path d="M152.293 95.318s-.239.252-.73.606c-.708.492-1.448.935-2.216 1.328a27.089 27.089 0 0 1-16.613 2.735 16.885 16.885 0 0 1-2.535-.56 3.41 3.41 0 0 1-.89-.321c0-.103 1.336.229 3.425.47 2.787.3 5.602.226 8.37-.218a30.641 30.641 0 0 0 7.992-2.484c2.01-.904 3.14-1.636 3.197-1.556zM154.114 96.668a5.35 5.35 0 0 1-.411 1.145c-.17.438-.372.862-.605 1.27a15.835 15.835 0 0 1-.925 1.614 24.917 24.917 0 0 1-2.992 3.833 28.115 28.115 0 0 1-4.567 3.823 28.569 28.569 0 0 1-5.298 2.7c-1.52.567-3.092.981-4.693 1.236-.611.114-1.229.191-1.85.229-.467.032-.937.032-1.404 0a4.124 4.124 0 0 1-1.199-.068c0-.115 1.713-.092 4.373-.618a27.384 27.384 0 0 0 4.567-1.339 28.027 28.027 0 0 0 9.672-6.386 27.197 27.197 0 0 0 3.025-3.685c1.553-2.22 2.193-3.8 2.307-3.754zM144.192 167.244s.24 0 .662-.069a2.993 2.993 0 0 0 1.588-.961 4.038 4.038 0 0 0 1.039-2.724 13.07 13.07 0 0 0-.72-3.936 8.576 8.576 0 0 1-.342-5.013c.593-1.808 2.032-3.193 3.322-4.681a9.321 9.321 0 0 0 1.656-2.449 3.51 3.51 0 0 0-.091-2.872 6.568 6.568 0 0 0-2.147-2.289c-.891-.652-1.873-1.224-2.82-1.923a6.194 6.194 0 0 1-2.284-2.712 4.272 4.272 0 0 1 .354-3.433c1.073-1.98 2.752-3.433 3.14-5.299a6.373 6.373 0 0 0-1.404-5.092 22.38 22.38 0 0 0-3.334-3.571 22.623 22.623 0 0 1-2.786-3.01 9.147 9.147 0 0 1-1.451-2.758 5.854 5.854 0 0 1-.228-1.957c.015-.225.057-.448.126-.663a7.785 7.785 0 0 0 .319 2.552 14.18 14.18 0 0 0 4.305 5.527 21.993 21.993 0 0 1 3.425 3.582c.57.759 1.021 1.6 1.336 2.495.356.963.427 2.008.206 3.01-.445 2.128-2.192 3.616-3.152 5.459a3.598 3.598 0 0 0-.319 2.964 5.594 5.594 0 0 0 2.066 2.426c.903.675 1.896 1.247 2.809 1.922a7.11 7.11 0 0 1 2.284 2.507 4.04 4.04 0 0 1 .091 3.33 9.443 9.443 0 0 1-1.77 2.609c-1.324 1.499-2.717 2.838-3.265 4.463a8.27 8.27 0 0 0 .24 4.727c.425 1.316.641 2.691.639 4.074a4.26 4.26 0 0 1-1.199 2.861 2.954 2.954 0 0 1-1.735.915c-.186.03-.376.026-.56-.011z" fill="#455A64"/>
    <path d="M478 513.634c0 .16-106.543.297-237.932.297-131.389 0-237.955-.137-237.955-.297 0-.16 106.52-.298 237.955-.298 131.434 0 237.932.126 237.932.298z" fill="#263238"/>
</svg>
