<svg width="235" height="48" viewBox="0 0 235 48" fill="none" xmlns="http://www.w3.org/2000/svg">
    <path d="M167.8 28.61c.56 0 1.053-.067 1.48-.2.433-.14.793-.333 1.08-.58.293-.253.513-.553.66-.9.147-.347.22-.73.22-1.15 0-.853-.28-1.497-.84-1.93-.56-.433-1.4-.65-2.52-.65h-2.12v5.41h2.04zm6.62 7.39h-1.72c-.353 0-.613-.137-.78-.41l-3.72-5.12a1.034 1.034 0 0 0-.37-.34c-.127-.073-.327-.11-.6-.11h-1.47V36h-1.93V21.67h4.05c.907 0 1.69.093 2.35.28.66.18 1.203.443 1.63.79.433.347.753.767.96 1.26.207.487.31 1.033.31 1.64 0 .507-.08.98-.24 1.42-.16.44-.393.837-.7 1.19-.3.347-.67.643-1.11.89a5.419 5.419 0 0 1-1.48.56c.247.14.46.343.64.61l4.18 5.69zm7.665-6.17c0-.413-.06-.79-.18-1.13a2.414 2.414 0 0 0-.51-.89 2.153 2.153 0 0 0-.81-.58c-.32-.14-.684-.21-1.09-.21-.854 0-1.53.25-2.03.75-.494.493-.8 1.18-.92 2.06h5.54zm1.44 4.75c-.22.267-.484.5-.79.7a5.059 5.059 0 0 1-.99.48 5.85 5.85 0 0 1-1.08.28c-.374.067-.744.1-1.11.1-.7 0-1.347-.117-1.94-.35a4.387 4.387 0 0 1-1.53-1.04c-.427-.46-.76-1.027-1-1.7s-.36-1.447-.36-2.32c0-.707.106-1.367.32-1.98.22-.613.533-1.143.94-1.59a4.21 4.21 0 0 1 1.49-1.06c.586-.26 1.246-.39 1.98-.39.606 0 1.166.103 1.68.31.52.2.966.493 1.34.88.38.38.676.853.89 1.42.213.56.32 1.2.32 1.92 0 .28-.03.467-.09.56-.06.093-.174.14-.34.14h-6.77c.02.64.106 1.197.26 1.67.16.473.38.87.66 1.19.28.313.613.55 1 .71.386.153.82.23 1.3.23.446 0 .83-.05 1.15-.15a5.826 5.826 0 0 0 1.42-.67c.16-.107.296-.16.41-.16.146 0 .26.057.34.17l.5.65zm10.811-8.71L190.206 36h-1.6l-4.13-10.13h1.45a.55.55 0 0 1 .55.37l2.57 6.52c.08.247.15.487.21.72.06.233.117.467.17.7.053-.233.11-.467.17-.7.06-.233.133-.473.22-.72l2.6-6.52a.553.553 0 0 1 .2-.26.517.517 0 0 1 .33-.11h1.39zm3.513 0V36h-1.78V25.87h1.78zm.38-3.18c0 .173-.037.337-.11.49-.067.147-.16.28-.28.4-.114.113-.25.203-.41.27-.154.067-.317.1-.49.1a1.212 1.212 0 0 1-.88-.37 1.429 1.429 0 0 1-.27-.4 1.21 1.21 0 0 1-.1-.49c0-.173.033-.337.1-.49.066-.16.156-.297.27-.41.113-.12.243-.213.39-.28.153-.067.316-.1.49-.1.173 0 .336.033.49.1.16.067.296.16.41.28.12.113.213.25.28.41.073.153.11.317.11.49zm9.324 7.14c0-.413-.06-.79-.18-1.13a2.387 2.387 0 0 0-.51-.89 2.153 2.153 0 0 0-.81-.58c-.32-.14-.683-.21-1.09-.21-.853 0-1.53.25-2.03.75-.493.493-.8 1.18-.92 2.06h5.54zm1.44 4.75c-.22.267-.483.5-.79.7a5.004 5.004 0 0 1-.99.48c-.346.127-.706.22-1.08.28-.373.067-.743.1-1.11.1-.7 0-1.346-.117-1.94-.35a4.406 4.406 0 0 1-1.53-1.04c-.426-.46-.76-1.027-1-1.7s-.36-1.447-.36-2.32c0-.707.107-1.367.32-1.98.22-.613.534-1.143.94-1.59a4.228 4.228 0 0 1 1.49-1.06c.587-.26 1.247-.39 1.98-.39.607 0 1.167.103 1.68.31.52.2.967.493 1.34.88.38.38.677.853.89 1.42.214.56.32 1.2.32 1.92 0 .28-.03.467-.09.56-.06.093-.173.14-.34.14h-6.77c.02.64.107 1.197.26 1.67.16.473.38.87.66 1.19.28.313.614.55 1 .71.387.153.82.23 1.3.23.447 0 .83-.05 1.15-.15.327-.107.607-.22.84-.34.234-.12.427-.23.58-.33.16-.107.297-.16.41-.16.147 0 .26.057.34.17l.5.65zm16.219-8.71L221.932 36h-1.41c-.173 0-.293-.113-.36-.34l-2.24-6.87a3.96 3.96 0 0 1-.13-.46c-.033-.16-.067-.317-.1-.47-.033.153-.067.31-.1.47-.033.153-.077.31-.13.47l-2.28 6.86c-.06.227-.193.34-.4.34h-1.34l-3.28-10.13h1.4c.14 0 .257.037.35.11.1.073.167.16.2.26l1.94 6.52c.113.48.203.933.27 1.36l.18-.67c.067-.227.137-.457.21-.69l2.14-6.56a.54.54 0 0 1 .17-.25c.087-.067.19-.1.31-.1h.78c.133 0 .243.033.33.1.087.067.147.15.18.25l2.09 6.56c.073.233.14.463.2.69.06.227.117.45.17.67.033-.22.073-.44.12-.66.053-.227.11-.46.17-.7l1.98-6.52a.493.493 0 0 1 .19-.26.517.517 0 0 1 .33-.11h1.34zm7.555 1.67a.394.394 0 0 1-.37.22.698.698 0 0 1-.34-.11 6.006 6.006 0 0 0-.47-.24 3.596 3.596 0 0 0-.65-.25 3 3 0 0 0-.9-.12c-.3 0-.57.04-.81.12-.24.073-.447.177-.62.31-.167.133-.297.29-.39.47-.087.173-.13.363-.13.57 0 .26.073.477.22.65.153.173.353.323.6.45s.527.24.84.34c.313.093.633.197.96.31.333.107.657.227.97.36.313.133.593.3.84.5s.443.447.59.74c.153.287.23.633.23 1.04 0 .467-.083.9-.25 1.3a2.883 2.883 0 0 1-.74 1.03 3.623 3.623 0 0 1-1.2.68c-.473.167-1.02.25-1.64.25-.707 0-1.347-.113-1.92-.34a4.947 4.947 0 0 1-1.46-.89l.42-.68a.61.61 0 0 1 .19-.2.513.513 0 0 1 .28-.07.67.67 0 0 1 .38.14c.133.093.293.197.48.31.193.113.427.217.7.31.273.093.613.14 1.02.14.347 0 .65-.043.91-.13.26-.093.477-.217.65-.37.173-.153.3-.33.38-.53.087-.2.13-.413.13-.64 0-.28-.077-.51-.23-.69a1.754 1.754 0 0 0-.59-.47 4.352 4.352 0 0 0-.85-.34l-.97-.31a13.04 13.04 0 0 1-.97-.36 3.574 3.574 0 0 1-.84-.52 2.4 2.4 0 0 1-.6-.76c-.147-.307-.22-.677-.22-1.11 0-.387.08-.757.24-1.11.16-.36.393-.673.7-.94.307-.273.683-.49 1.13-.65.447-.16.957-.24 1.53-.24.667 0 1.263.107 1.79.32.533.207.993.493 1.38.86l-.4.65z" fill="#222"/>
    <path d="M62.47 25.26c0 6.906-5.41 11.994-12.048 11.994S38.375 32.166 38.375 25.26c0-6.955 5.409-11.995 12.047-11.995 6.638 0 12.047 5.04 12.047 11.995zm-5.274 0c0-4.316-3.135-7.268-6.774-7.268-3.638 0-6.773 2.952-6.773 7.268 0 4.272 3.135 7.268 6.773 7.268 3.639 0 6.774-3.001 6.774-7.268z" fill="#EA4335"/>
    <path d="M88.477 25.26c0 6.906-5.409 11.994-12.047 11.994-6.638 0-12.047-5.088-12.047-11.994 0-6.95 5.409-11.995 12.047-11.995 6.638 0 12.047 5.04 12.047 11.995zm-5.274 0c0-4.316-3.135-7.268-6.773-7.268-3.639 0-6.774 2.952-6.774 7.268 0 4.272 3.135 7.268 6.774 7.268 3.638 0 6.773-3.001 6.773-7.268z" fill="#FBBC05"/>
    <path d="M113.374 13.99v21.534c0 8.858-5.231 12.476-11.414 12.476-5.82 0-9.323-3.888-10.645-7.068l4.592-1.91c.817 1.953 2.82 4.257 6.048 4.257 3.958 0 6.41-2.44 6.41-7.03v-1.726h-.184c-1.18 1.455-3.454 2.726-6.324 2.726-6.004 0-11.505-5.224-11.505-11.946 0-6.77 5.5-12.038 11.505-12.038 2.864 0 5.139 1.271 6.324 2.682h.184v-1.952h5.009v-.005zm-4.635 11.313c0-4.224-2.821-7.311-6.411-7.311-3.638 0-6.687 3.087-6.687 7.311 0 4.18 3.049 7.225 6.687 7.225 3.59 0 6.411-3.045 6.411-7.225z" fill="#4285F4"/>
    <path d="M121.62 1.368v35.15h-5.143V1.369h5.143z" fill="#34A853"/>
    <path d="m141.681 29.208 4.094 2.725c-1.322 1.952-4.505 5.316-10.006 5.316-6.822 0-11.917-5.267-11.917-11.995 0-7.133 5.138-11.994 11.327-11.994 6.232 0 9.28 4.953 10.276 7.63l.547 1.363-16.054 6.64c1.229 2.407 3.141 3.635 5.821 3.635 2.685 0 4.548-1.32 5.912-3.32zm-12.599-4.316 10.731-4.45c-.59-1.499-2.366-2.542-4.456-2.542-2.68 0-6.41 2.363-6.275 6.992z" fill="#EA4335"/>
    <path d="M18.913 22.14V17.05h17.169c.168.887.254 1.936.254 3.072 0 3.818-1.045 8.539-4.412 11.902-3.276 3.407-7.462 5.224-13.006 5.224C8.641 37.25 0 28.89 0 18.625S8.641 0 18.918 0c5.685 0 9.735 2.228 12.778 5.132l-3.595 3.59C25.919 6.68 22.963 5.09 18.913 5.09c-7.505 0-13.374 6.04-13.374 13.536 0 7.495 5.87 13.536 13.374 13.536 4.867 0 7.64-1.953 9.415-3.726 1.44-1.439 2.388-3.494 2.762-6.3l-12.177.005z" fill="#4285F4"/>
</svg>
