<svg width="14" height="20" viewBox="0 0 14 20" fill="none" xmlns="http://www.w3.org/2000/svg">
    <path d="M7 0C3.134 0 0 3.272 0 7.309c0 4.443 2.918 5.49 4.448 8.215C5.873 18.059 5.875 20 7 20c1.167 0 1.093-1.808 2.552-4.476C11.009 12.855 14 11.752 14 7.309 14 3.272 10.866 0 7 0zm0 10.11c-1.446 0-2.619-1.225-2.619-2.735 0-.755.293-1.438.767-1.933A2.557 2.557 0 0 1 7 4.64c1.446 0 2.618 1.224 2.618 2.734S8.446 10.11 7 10.11z" fill="#4CAF50"/>
    <path d="M7 0c-.194 0-.387.009-.578.025 3.595.307 6.421 3.45 6.421 7.284 0 4.443-2.99 5.546-4.448 8.215-1.155 2.113-1.35 3.686-1.96 4.25A.789.789 0 0 0 7 20c1.167 0 1.094-1.808 2.552-4.476C11.01 12.855 14 11.752 14 7.309 14 3.272 10.866 0 7 0z" fill="#43A047"/>
    <path d="M5.148 5.442.546 10.247C.209 9.447 0 8.5 0 7.31c0-2.002.77-3.815 2.019-5.135l3.13 3.268z" fill="#F44336"/>
    <path d="M8.866 9.29a2.788 2.788 0 0 0 .749-1.915c0-1.51-1.173-2.734-2.619-2.734-.723 0-1.378.306-1.851.8L9.78.602c1.657.75 2.98 2.151 3.678 3.894L8.866 9.29z" fill="#42A5F5"/>
    <path d="m9.785.601-.39.408c1.554.958 2.724 2.524 3.206 4.386l.862-.9C12.766 2.752 11.443 1.352 9.785.6z" fill="#2196F3"/>
    <path d="M8.875 9.29 3.82 14.567c-1.099-1.445-2.509-2.508-3.27-4.32l4.603-4.805a2.787 2.787 0 0 0-.767 1.933c0 1.51 1.172 2.734 2.619 2.734.732 0 1.394-.314 1.87-.82z" fill="#FFC107"/>
    <path d="M9.785.601 5.15 5.442 2.02 2.174C3.29.832 5.053 0 7.002 0c.99 0 1.931.215 2.784.601z" fill="#1E88E5"/>
    <path d="M6.997 0c-.195 0-.388.009-.579.025a6.753 6.753 0 0 1 2.972.984l.39-.408A6.722 6.722 0 0 0 6.998 0z" fill="#1976D2"/>
</svg>
