<svg xmlns="http://www.w3.org/2000/svg" width="525" height="360" fill="none" xmlns:v="https://vecta.io/nano"><style><![CDATA[.B{fill:#89b355}.C{fill:#0a231d}.D{fill:#78a441}.E{fill:#4d69aa}.F{fill:#365392}.G{fill:#365292}.H{fill:#eb5976}.I{fill:#317c6f}]]></style><g fill-rule="evenodd"><path d="M350.594 345.234h-8.866a1606.277 1606.277 0 0 1 8.866 0z" fill="#cbb9b4"/><path d="M266.78 123.35c0 12.481-10.099 22.599-22.555 22.599s-22.554-10.118-22.554-22.599 10.099-22.6 22.554-22.6 22.555 10.118 22.555 22.6z" fill="#9db5ec"/><path d="M244.223 103.23c-11.072 0-20.079 9.026-20.079 20.12s9.007 20.121 20.079 20.121 20.08-9.026 20.08-20.121-9.009-20.12-20.08-20.12zm0 45.198c-13.8 0-25.026-11.249-25.026-25.078s11.226-25.078 25.026-25.078 25.027 11.25 25.027 25.078-11.226 25.078-25.027 25.078z" class="E"/><g fill="#fff"><path d="M245.352 123.345c0 .632-.505 1.145-1.126 1.145a1.136 1.136 0 0 1-1.127-1.145c0-.631.504-1.143 1.127-1.143s1.126.512 1.126 1.143z"/><path d="M244.495 124.126l-11.496-9.973.54-.624 10.417 9.036 3.258-16.998.809.156-3.528 18.403zm-.476-17.07h.413v-2.255h-.413v2.255zm-18.304 16.492h2.251v-.413h-2.251v.413zm18.304 18.35h.413v-2.256h-.413v2.256zm16.464-18.35h2.253v-.413h-2.253v.413zm-16.26-19.88c-10.83 0-19.64 8.828-19.64 19.68s8.81 19.68 19.64 19.68 19.64-8.828 19.64-19.68-8.81-19.68-19.64-19.68zm0 39.773c-11.057 0-20.053-9.013-20.053-20.093s8.996-20.093 20.053-20.093 20.052 9.014 20.052 20.093-8.996 20.093-20.052 20.093z"/></g><g fill="#8e5235"><path d="M33.964 350.05l-2.091.005-.365-167.131v-.483l-.12-54.527 2.091-.006.485 222.142zm32.332 2.36l-2.047.498-30.115-170.905 11.83-52.993 2.022.624L36.28 182.07l30.015 170.34z"/><path d="m31.551 182.652-.046.266v.002l-.002.015L2.048 352.901 0 352.409l29.407-169.685-11.706-52.439 2.023-.624 11.781 52.777v.003l.046.211z"/></g><path d="M1.027 143.02h63.297v-36.382H1.027v36.382z" fill="#fdb0bf"/><path d="M33.512 143.014H31.42h2.092zm11.487 0h-2.163 2.163z" fill="#834c31"/><path d="M16.142 143.02h33.553v-36.382H16.142v36.382zm11.27 43.417h10.866v-7.121H27.412v7.121z" class="H"/><path d="M24.774 152.265h-2.162l-2.067-9.251h2.163l2.066 9.251zm8.759 0H31.44l-.021-9.251h2.092l.02 9.251zm9.401 0h-2.16l2.064-9.251h2.163l-2.066 9.251z" fill="#4a2817"/><path d="m399.787 251.386-.972-34.419H96.579l-3.882 35.164-22.93.131v68.32h353.045v-70.901l-23.025 1.705z" fill="#6485cd"/><g class="F"><path d="M93.173 209.291h144.774c4.8 0 8.896 3.082 8.834 7.681l-.508 39.69.508 56.999H98.351c-4.052 0-7.518-3.312-7.72-7.362l-4.239-85.378-.112-2.314-.103-1.954a7.126 7.126 0 0 1 .664-3.39 6.96 6.96 0 0 1 6.332-3.972z"/><path d="M438.554 254.506c-.639 12.602-2.897 37.816-3.543 46.55-.648 8.726-3.546 30.062-33.232 30.062H90.69c-29.678 0-32.584-21.336-33.23-30.062l-3.547-46.55c-.647-12.609 6.452-11.313 13.225-10.995 1.545.071 3.456.406 5.494.87 6.884 1.553 15.152 4.657 15.152 4.657l1.301 26.202c-6.59 3.352-11.312 10.982-12.554 13.154h-.008c-.213.375-.323.591-.323.591 0 18.541 2.272 22.233 14.504 22.19l155.529-.14 155.532.14c12.231.043 14.51-3.649 14.51-22.19 0 0-5.163-9.818-12.883-13.745l1.292-26.202s13.871-5.202 20.647-5.527c6.773-.318 13.871-1.614 13.223 10.995z"/><path d="M400.539 209.291H255.767c-4.802 0-8.896 3.082-8.835 7.681l.321 48.199-.321 48.49h148.431c4.051 0 7.517-3.312 7.718-7.362l4.239-85.378.112-2.314.104-1.954a7.124 7.124 0 0 0-.665-3.39 6.96 6.96 0 0 0-6.332-3.972z"/></g><path d="M89.087 275.244c-6.59 3.351-11.312 10.982-12.553 13.153h-.009l-3.891-44.012c6.885 1.553 15.152 4.656 15.152 4.656l1.301 26.203zm314.298 0c6.592 3.351 11.313 10.982 12.555 13.153h.009l3.89-44.012c-6.884 1.553-15.151 4.656-15.151 4.656l-1.303 26.203z" class="G"/><g class="E"><path d="M169.567 265.171c-3.142 0-6.285-.019-9.411-.053l-.659-4.676-.358-2.634a317.922 317.922 0 0 1-.786-6.272l-.217-2.485a1.865 1.865 0 0 1 0-.15c.049-1.907 1.859-8.248-.997-8.248-.244 0-.521.046-.838.145a7.615 7.615 0 0 1-.706.176c-4.207.891-18.409 1.843-26.361 2.311l-2.235.127a8.848 8.848 0 0 1-.016-.379l-.002-.094a3.603 3.603 0 0 0 2.84-2.598c.034-.116.055-.235.075-.357l.046.002c1.997 0 3.608-.272 3.608-.602s-1.611-.593-3.608-.593l-.045.001a2.89 2.89 0 0 0-.076-.361 3.61 3.61 0 0 0-2.053-2.361c.044-1.745-.223-3.24-1.251-3.735-.057-.112-.119-.174-.183-.174-.038 0-.076.024-.112.065a2.143 2.143 0 0 0-.53-.065c-.316 0-.676.06-1.084.189a10.63 10.63 0 0 1-.914.228c-4.898 1.036-20.265 2.137-30.797 2.79.67-5.514 1.875-10.397 3.428-12.835 4.651-7.302 65.021-4.498 76.551-6.234 6.176-.93 24.218-2.695 40.335-2.695 13.973 0 26.497 1.326 28.597 5.67 4.521 9.356 2.061 21.495-2.165 36.28-2.116 7.396-35.866 9.617-70.076 9.617zm40.815-25.194c.02.119.04.239.074.35a3.651 3.651 0 0 0 2.54 2.545c.112.032.231.054.353.074v.053c0 2 .262 3.614.59 3.614s.592-1.614.592-3.614v-.053a3.605 3.605 0 0 0 2.892-2.605 2.79 2.79 0 0 0 .075-.357l.048.002c1.999 0 3.608-.272 3.608-.602s-1.609-.593-3.608-.593l-.048.001c-.02-.121-.04-.245-.075-.359a3.6 3.6 0 0 0-2.892-2.604v-.053c0-1.999-.265-3.615-.592-3.615s-.59 1.616-.59 3.615v.053a3.604 3.604 0 0 0-2.893 2.604 3.05 3.05 0 0 0-.076.359l-.051-.001c-1.985 0-3.598.264-3.598.593s1.613.593 3.598.593h.053zm-43.472-.008c.016.093.031.185.058.274a3.312 3.312 0 0 0 2.308 2.315c.088.025.181.04.273.058a24.2 24.2 0 0 0-.004.383c0 2 .263 3.614.592 3.614s.592-1.614.592-3.614l-.003-.383c.09-.018.184-.033.271-.058a3.283 3.283 0 0 0 2.312-2.304c.025-.089.04-.185.058-.277l.378.009c1.997 0 3.608-.272 3.608-.602s-1.611-.593-3.608-.593c-.13 0-.252.005-.378.007-.017-.093-.033-.189-.058-.28a3.283 3.283 0 0 0-2.312-2.301c-.089-.027-.183-.04-.275-.058l.007-.383c0-1.999-.264-3.615-.592-3.615s-.592 1.616-.592 3.615c0 .131.006.254.008.383-.093.018-.187.031-.277.058a3.274 3.274 0 0 0-2.308 2.301c-.027.091-.042.187-.06.28l-.378-.007c-1.99 0-3.602.264-3.602.593s1.612.593 3.602.593c.132 0 .253-.004.38-.008zm-74.187 71.209l-.007-.009 145.802-.829c4.9 0 7.716-1.754 7.716-6.838v-20.068l.17.002.332 27.606h-.502l-153.51.136z"/><path d="M285.862 313.948c-15.68 0-27.578-.098-31.147-.239a83.924 83.924 0 0 0-1.468-.047h81.374l-48.759.286zm-38.927-.413l-89.14-.481-61.215.392a36 36 0 0 1-.566.005c-4.079 0-7.313-.945-9.873-2.505 1.285.164 2.73.232 4.353.232h.211l2.019-.003 153.51-.136h.73l-.029 2.496zm153.678-1.987c.128-.119.253-.243.373-.371l.78.001h.212c.798 0 1.551-.016 2.266-.052-.992.149-2.21.288-3.631.422z"/><path d="M334.621 313.663h-81.375l-6.311-.127.029-2.496.224-27.602.288.001V303.5c0 5.084 2.816 6.838 7.716 6.838l146.599-.176a7.991 7.991 0 0 1-1.179 1.387c-12.039 1.138-38.658 1.783-65.991 2.114z"/></g><path d="M246.233 279.849v23.652c0 5.084-2.817 6.838-7.717 6.838l-147.812.842c-9.974 0-14.505-7.848-14.505-16.09v-9.283c0-1.101.279-2.177.787-3.218 3.862-7.928 20.991-13.95 29.332-13.95h118.917c12.709 0 20.998 4.925 20.998 11.209z" class="F"/><path d="M246.236 282.59H76.989c1.452-2.98 4.778-5.69 8.807-7.914.427 1.977.934 3.396 1.557 3.922.66.557 2.936.798 6.13.798 9.09 0 25.594-1.955 33.314-4.148.217.609.457 1.05.726 1.277.51.431 2.268.616 4.736.616 9.379 0 28.981-2.695 28.973-4.924a.236.236 0 0 0-.007-.065 96.842 96.842 0 0 1-.304-1.894 34.786 34.786 0 0 1-.076-.486l-.051-.339-.119-.793h64.564c12.708 0 20.997 4.925 20.997 11.209v2.741z" class="E"/><path d="M268.21 268.642l.501-.004h59.418v.002h-59.653l-.266.002z" fill="#fbbb57"/><path d="M105.689 331.13l-11.926 27.973H89.08l6.992-27.973h9.617zm282.004 0l11.924 27.973h4.683l-6.99-27.973h-9.617z" class="C"/><path d="M213.94 246.609c-.328 0-.59-1.614-.59-3.614v-.053a3.145 3.145 0 0 1-.353-.074 3.651 3.651 0 0 1-2.54-2.545 2.744 2.744 0 0 1-.074-.35h-.053c-1.985 0-3.598-.263-3.598-.593s1.613-.593 3.598-.593l.051.001a3.05 3.05 0 0 1 .076-.359 3.605 3.605 0 0 1 2.893-2.604v-.053c0-1.999.262-3.615.59-3.615s.592 1.616.592 3.615v.053a3.602 3.602 0 0 1 2.892 2.604c.035.115.055.238.074.359l.049-.001c1.999 0 3.608.264 3.608.593s-1.609.602-3.608.602l-.049-.002a2.627 2.627 0 0 1-.074.357 3.605 3.605 0 0 1-2.892 2.605v.053c0 2-.265 3.614-.592 3.614zm-43.804 0c-.33 0-.592-1.614-.592-3.614l.003-.383-.273-.058a3.31 3.31 0 0 1-2.308-2.315c-.027-.088-.042-.181-.058-.273l-.38.007c-1.989 0-3.602-.263-3.602-.593s1.613-.593 3.602-.593l.378.007.06-.279a3.274 3.274 0 0 1 2.308-2.302c.091-.027.185-.04.277-.058l-.007-.383c0-1.999.262-3.615.592-3.615s.592 1.616.592 3.615l-.008.383.275.058a3.282 3.282 0 0 1 2.312 2.302c.025.09.042.186.058.279l.378-.007c1.997 0 3.608.264 3.608.593s-1.611.602-3.608.602c-.13 0-.251-.007-.378-.009l-.058.277a3.283 3.283 0 0 1-2.312 2.304c-.086.025-.181.04-.271.058l.004.383c0 2-.265 3.614-.592 3.614zm-43.154-3.674l.002-.102c.033-1.322.722-4.293.785-6.767a3.61 3.61 0 0 1 2.053 2.362c.035.116.055.239.076.361l.045-.002c1.997 0 3.608.265 3.608.593s-1.611.602-3.608.602l-.046-.002-.075.357a3.606 3.606 0 0 1-2.84 2.598zm-.464-10.604a1.568 1.568 0 0 0-.295-.108c.036-.042.074-.066.112-.066.064 0 .126.062.183.174z" class="G"/><path d="M324.14 265.171c-34.208 0-67.959-2.221-70.073-9.617-4.229-14.785-6.687-26.924-2.165-36.28 2.099-4.344 14.624-5.67 28.594-5.67 16.118 0 34.161 1.765 40.337 2.695 11.529 1.736 71.9-1.068 76.55 6.234 1.671 2.625 2.94 8.083 3.572 14.11l-1.262.004c-7.083 0-16.333-.269-22.442-.485l-1.691-.061c.379-2.808 3.791-11.62-.601-11.62-.273 0-.575.035-.912.106-.27.058-.608.108-1.012.154-2.085.241-5.857.332-10.365.332-8.475 0-19.543-.323-26.853-.581l-7.648-.31a4.265 4.265 0 0 0-.249-.009c-1.709 0-2.348 1.201-2.348 3.12 0 1.721.514 4.017 1.233 6.546.155.551.271 1.329.354 2.292.066.75.114 1.609.147 2.558l.004.103-.131-.001c-.132 0-.251.005-.38.007-.016-.093-.031-.189-.058-.28a3.279 3.279 0 0 0-2.309-2.301c-.089-.027-.183-.04-.276-.058l.008-.383c0-1.999-.265-3.615-.592-3.615s-.592 1.616-.592 3.615c0 .131.005.254.007.383-.092.018-.188.031-.275.058a3.28 3.28 0 0 0-2.312 2.301c-.027.091-.041.187-.058.28l-.378-.007c-1.996 0-3.607.264-3.607.593s1.611.602 3.607.602c.129 0 .252-.007.378-.009.017.092.031.188.058.277a3.28 3.28 0 0 0 2.312 2.304c.087.025.179.04.271.058l-.003.383c0 2 .262 3.614.592 3.614s.592-1.614.592-3.614l-.004-.383c.091-.018.185-.033.272-.058a3.317 3.317 0 0 0 2.309-2.315c.027-.089.04-.181.058-.274l.38.008h.161l.033 3.638a802.602 802.602 0 0 1-.025 4.742l-.022 2.677a494.12 494.12 0 0 0-.015 3.645l.075 6.008.108 2.584.136 1.892-3.49.008zm-47.928-25.187c.02.122.039.241.072.357a3.61 3.61 0 0 0 2.54 2.531c.114.032.233.054.353.074v.053c0 2 .264 3.614.592 3.614s.591-1.614.591-3.614v-.053c.12-.02.239-.042.353-.074a3.653 3.653 0 0 0 2.54-2.545c.033-.111.053-.231.074-.35h.051c1.987 0 3.598-.263 3.598-.593s-1.611-.593-3.598-.593l-.049.001c-.022-.121-.042-.243-.076-.359a3.605 3.605 0 0 0-2.893-2.604v-.053c0-1.999-.264-3.615-.591-3.615s-.592 1.616-.592 3.615l.001.053a3.605 3.605 0 0 0-2.894 2.604c-.034.114-.052.238-.074.359l-.049-.001c-1.997 0-3.608.264-3.608.593s1.611.602 3.608.602l.051-.002z" class="E"/><path d="M247.475 279.849v23.652c0 5.085 2.817 6.839 7.717 6.839l148.186-.178c9.973 0 14.131-6.829 14.131-15.071v-9.283c0-1.101-.278-2.177-.787-3.218-3.861-7.928-20.99-13.95-29.331-13.95H268.474c-12.708 0-20.999 4.925-20.999 11.209z" class="F"/><path d="M416.722 282.59H247.475v-2.741c0-6.284 8.291-11.209 20.999-11.209h59.653c.235 1.03.536 1.781.918 2.171 1.312 1.341 9.744 1.974 19.167 1.974 7.974 0 16.657-.454 22.339-1.319.219 1.683.548 2.902 1.041 3.404 1.097 1.12 8.142 1.649 16.018 1.649 7.819 0 16.455-.522 20.897-1.509 3.762 2.159 6.836 4.747 8.215 7.58z" class="E"/><path d="M279.772 246.609c-.328 0-.592-1.614-.592-3.614v-.053a3.344 3.344 0 0 1-.353-.074 3.61 3.61 0 0 1-2.54-2.531c-.033-.116-.052-.235-.072-.357l-.051.002c-1.997 0-3.608-.272-3.608-.602s1.611-.593 3.608-.593l.049.001.074-.359a3.607 3.607 0 0 1 2.894-2.604l-.001-.053c0-1.999.264-3.615.592-3.615s.591 1.616.591 3.615v.053a3.605 3.605 0 0 1 2.893 2.604c.034.116.054.238.076.359l.049-.001c1.987 0 3.598.264 3.598.593s-1.611.593-3.598.593h-.051l-.074.35a3.651 3.651 0 0 1-2.54 2.545 3.344 3.344 0 0 1-.353.074v.053c0 2-.264 3.614-.591 3.614zm43.802 0c-.33 0-.592-1.614-.592-3.614l.003-.383-.271-.058a3.28 3.28 0 0 1-2.312-2.304c-.027-.089-.041-.185-.058-.277l-.378.009c-1.997 0-3.608-.272-3.608-.602s1.611-.593 3.608-.593l.378.007.058-.279a3.279 3.279 0 0 1 2.312-2.302c.087-.027.183-.04.275-.058l-.007-.383c0-1.999.262-3.615.592-3.615s.591 1.616.591 3.615l-.007.383.275.058a3.28 3.28 0 0 1 2.31 2.302c.027.09.042.186.058.279l.38-.007.13.001.031 1.185h-.161c-.132 0-.253-.004-.38-.007l-.058.273a3.316 3.316 0 0 1-2.31 2.315c-.087.025-.181.04-.271.058l.003.383c0 2-.264 3.614-.591 3.614z" class="G"/><path d="M87.35 278.59c-.892-.754-1.546-3.336-2.067-6.771l-.323-2.36-.887-8.84-.21-2.456-.87-8.855a45.408 45.408 0 0 0-.355-2.331c-.16-.874-.333-1.578-.524-2.069-1.898-4.889-2.823-8.866.42-8.968l7.035-.377c10.295-.604 28.68-1.838 34.125-2.989.366-.076.671-.154.914-.229 5.197-1.63 2.443 7.81 2.375 10.488a3.185 3.185 0 0 0 0 .196c.012.582.116 1.717.281 3.217l1.018 8.119.463 3.41 1.178 8.291a693.874 693.874 0 0 0 .564 3.783l.097.628.396 2.452c.654 3.657-40.437 8.358-43.63 5.661z" fill="#afc5f8"/><path d="M127.521 276.53c-.689-.582-1.194-2.575-1.597-5.231a73.193 73.193 0 0 1-.249-1.821l-.685-6.829a652.32 652.32 0 0 0-.163-1.897l-.672-6.84a35.125 35.125 0 0 0-.274-1.801c-.123-.676-.257-1.221-.404-1.6-1.467-3.774-2.182-6.849.324-6.927a356.63 356.63 0 0 0 5.434-.29c7.953-.468 22.154-1.42 26.361-2.311a7.49 7.49 0 0 0 .706-.175c4.015-1.261 1.888 6.032 1.836 8.102a1.865 1.865 0 0 0 0 .15c.009.45.088 1.326.217 2.485l.785 6.272.359 2.634.91 6.405.384 2.582.051.34.076.486.304 1.893c.507 2.826-31.236 6.457-33.703 4.373zm201.525-5.721c-.888-.906-1.334-3.766-1.549-7.537a105.19 105.19 0 0 1-.109-2.584c-.088-2.99-.081-6.34-.06-9.654l.022-2.677-.041-9.667a50.236 50.236 0 0 0-.147-2.558c-.083-.963-.199-1.741-.355-2.292-1.557-5.482-2.154-9.88 1.365-9.657.581.036 3.513.163 7.648.31 11.197.395 31.212.94 37.218.249.404-.046.742-.097 1.012-.155 5.787-1.233 1.85 8.698 1.504 11.589a2.15 2.15 0 0 0-.02.21c-.047.633-.051 1.87-.024 3.51l.276 8.888.154 3.734a1144.13 1144.13 0 0 0 .629 12.755l.028.484.041.689.178 2.692c.336 4.025-44.591 4.914-47.77 1.671z" class="H"/><path d="M305.768 148.593V86.208h73.815l.002 62.385h-73.817z" fill="#fff7e6"/><path d="M306.947 87.394v60.02h71.456l-.001-60.02h-71.455zm-2.36 62.385v-64.75h76.175v64.75h-76.175z" fill="#d37a48"/><path d="M334.064 147.413v-19.355h44.278v19.354l-44.278.001z" fill="#f47b5b"/><path d="M313.985 112.135V87.388h55.33v24.747h-55.33z" fill="#3ea392"/><path d="M331.855 124.749h16.797v-9.655h-16.797v9.655z" fill="#fcb04c"/><path d="M306.951 147.414h17.129v-25.801h-17.129v25.801z" fill="#7cc1b4"/><path d="M321.922 103.935v32.093h39.098l-.001-32.093h-39.097zm-1.416 33.512v-34.931h41.93v34.931h-41.93z" fill="#fcb04c"/><path d="M324.08 147.408h9.985v-9.958h-9.985v9.958zm54.262-10.482v-8.873h-.175l.24-.192v8.989a4.387 4.387 0 0 1-.065.076zm-54.262-.896v-14.423h-2.156v-9.472h39.099v15.918h-26.958v7.977h-9.985zm7.776-11.287h16.798v-9.654h-16.798v9.654zm43.758 3.31h-13.176v-15.918h6.881V87.388h9.087l.001 37.893a63.05 63.05 0 0 0-2.793 2.772zm-55.105-6.446h-13.558V87.388h31.186-24.148v24.747h6.52v9.472z" fill="#fff9ec"/><path d="M324.08 147.408h9.985-9.985zm-17.129-25.801V87.388v34.219z" fill="#de9b76"/><path d="M334.064 147.413v-9.959h28.374v-9.396h13.176a60.854 60.854 0 0 0-3.649 4.223l-1.774 2.455h-.002.002l4.925-4.141 3.05-2.537h.176v8.872a83.73 83.73 0 0 0-4.974 6.506 89.302 89.302 0 0 0-2.598 3.977h-36.706zm0-11.378h26.959v-7.977h-26.959v7.977z" fill="#f79c84"/><path d="M313.985 112.135V87.388h55.33v24.747h-6.88v-9.617h-41.93v9.617h-6.52zm7.936 0v-8.198h39.097l.002 8.198h-39.099z" fill="#6ebaad"/><path d="M331.855 124.749h16.797v-9.655h-16.797v9.655z" fill="#fdc479"/><path d="M306.951 147.414v-25.801h13.558v15.842h3.571v9.959h-17.129zm14.973-11.378h2.156v-14.423h-2.156v14.423z" fill="#9dd1c7"/><path d="M362.436 137.447h-41.93v-34.931h41.93v34.931zm-40.514-15.843v14.424h39.098v-23.896l-.001-8.197h-39.097v17.669z" fill="#fdc479"/><path d="M378.235 147.413h.105v-6.539l.065-.072v6.611h-.17z" fill="#fff9ec"/><path d="M372.92 147.404a167.95 167.95 0 0 1 3.508-4.32l1.913-2.219v6.539h-5.421z" fill="#f79c84"/><path d="M98.873 137.823h96.561v8.97h-96.59l.029-8.97z" fill="#d37a48"/><g class="C"><path d="M117.998 114.188a.37.37 0 0 1-.35-.485c.011-.036 1.153-3.628-.625-7.737-1.153-2.665-4.856-5.37-8.124-7.757-2.265-1.654-4.403-3.217-5.634-4.677-2.73-3.243-1.718-8.593-1.385-10.351a6.68 6.68 0 0 0 .071-.409c.013-.199.195-.349.38-.354.2.007.358.162.358.362 0 .089-.022.208-.084.538-.849 4.488-.437 7.764 1.224 9.737 1.173 1.392 3.277 2.93 5.505 4.556 3.507 2.562 7.133 5.211 8.367 8.061 1.893 4.379.699 8.106.647 8.263a.368.368 0 0 1-.35.253z"/><path d="M118.392 110.531a.369.369 0 0 1-.368-.363c-.075-4.277 4.867-8.858 9.646-13.288 2.557-2.371 4.973-4.61 6.38-6.608 3.826-5.43-.743-12.712-.79-12.785a.369.369 0 1 1 .621-.4c.202.315 4.886 7.77.773 13.611-1.453 2.062-3.896 4.327-6.483 6.725-4.443 4.118-9.478 8.787-9.41 12.732a.37.37 0 0 1-.363.376h-.006z"/></g><path d="M101.929 85.227c-2.01.487-5.08-9.934.948-10.158s1.899 9.467-.948 10.158z" class="B"/><path d="M105.13 94.845c-1.341-2.79-1.697-9.274 2.544-8.938s3.06 7.364-2.544 8.938z" class="D"/><path d="M103.549 93.297c-2.455-1.957-9.263-2.58-9.375.443s7.701 3.247 9.375-.443zm9.735 7.787s-3.648-1.87-7.306-1.199-4.43 2.796-3.319 3.467 3.791.173 5.079 0c1.733-.232 5.546-2.268 5.546-2.268z" class="B"/><path d="M113.284 101.099s-5.666-9.608 0-10.716 2.582 9.462 0 10.716z" class="D"/><path d="M134.221 78.48c-1.81 1.038-8.449-4.97-3.998-7.335 3.998-2.126 5.808 6.297 3.998 7.335zm-1.272 13.757c1.448-1.562.619-9.451-2.952-7.997-5.106 2.079 2.204 8.804 2.952 7.997zm-9.87 8.846s-3.688-1.332-2.131-5.358-.063-5.358-.063-5.358 4.155.186 4.538 4.476-2.344 6.24-2.344 6.24z" class="B"/><path d="M123.078 101.087s6.833-5.18 8.495-1.344-6.154 6.056-8.495 1.344zm49.934 17.872c-.832-3.501-7.345-22.046 3.215-22.51 9.68-.424 3.691 21.843 3.691 21.843l-6.906.667z" class="D"/><path d="M175.095 117.749a.183.183 0 0 1-.174-.246c.237-.686-.072-1.707-.369-2.695-.214-.702-.413-1.365-.431-1.925-.016-.523.036-1.022.089-1.504.079-.772.157-1.502-.037-2.294a37.891 37.891 0 0 0-.145-.566c-.278-1.079-.498-1.931-.268-3.179l.211-.945c.262-1.095.534-2.227.041-3.276-.614-1.307.036-2.809.426-3.706l.152-.361a.185.185 0 0 1 .344.137l-.158.371c-.387.894-.974 2.246-.431 3.402.551 1.166.263 2.362-.016 3.52l-.205.926c-.217 1.167-.005 1.984.263 3.018l.145.57c.208.856.125 1.652.043 2.422l-.085 1.454c.015.511.208 1.151.415 1.829.315 1.045.643 2.124.364 2.923a.183.183 0 0 1-.174.125zm2.959-.351l-.018-.001a.187.187 0 0 1-.166-.203c.043-.432.161-.892.286-1.378.242-.958.496-1.949.188-2.791-.496-1.358-.608-1.871-.474-3.415l.087-.858c.135-1.256.277-2.556-.08-3.741-.455-1.509-.402-2.218.29-3.992.626-1.599-.719-3.778-.734-3.8a.185.185 0 0 1 .06-.255.182.182 0 0 1 .253.059c.06.095 1.456 2.36.766 4.13-.662 1.696-.711 2.327-.282 3.751.378 1.257.235 2.595.094 3.888l-.087.85c-.128 1.48-.029 1.938.453 3.255.348.95.069 2.045-.178 3.011l-.275 1.323a.184.184 0 0 1-.183.167zm-6.185-16.574c-.349-.323-1.333-1.204-1.691-1.388l.168-.33c.477.246 1.721 1.399 1.775 1.447l-.252.271zm-.159 3.107l-2.124-.614.103-.355 2.124.614-.103.355zm.237 3.957l-2.359-.67.101-.356 2.358.67-.1.356zm.19 3.322l-2.313-.607.004-.37c.193 0 1.749.435 2.408.622l-.099.355zm.805 3.127l-1.982-.519.094-.358 1.981.519-.093.358zm7.212-14.195l-.18-.323 1.69-.945.181.323-1.691.945zm-.03 3.794l-.125-.348 2.642-.945.125.348-2.642.945zm-.032 4.408l-.06-.364 2.64-.446.062.365-2.642.445zm.009 3.492l-.079-.361 2.785-.614.079.361-2.785.614zm.001 3.206l-.078-.361 2.075-.448.078.361-2.075.448zm-6.68-16.726l-.614-2.74.36-.08.614 2.74-.36.08zm3.648-.522l-.337-.153.99-2.174.337.154-.99 2.173z" class="C"/><path d="M136.932 90.49s4.437-6.113 6.991-3.691c2.831 2.684-4.089 6.93-6.991 3.69z" class="D"/><path d="M143.09 121.792s-10.208-16.715-9.565-19.75c0 0 8.859 6.062 10.721 19.75h-1.156z" class="I"/><path d="M143.861 122.484s-6.683-17.369-4.978-26.89c0 0 6.069 17.434 5.749 26.568l-.771.322z" fill="#2a7368"/><path d="M143.849 122.856s-.017-27.38 2.496-29.869c0 0 1.281 27.489.913 29.869h-3.409z" class="I"/><g fill="#2a7368"><path d="M150.055 90.302l-3.71 32.887h2.086c2.343-16.581 1.187-16.618 1.624-32.887z"/><path d="M147.865 122.495L161 90.951c-.089.33 0 0 0 0s-2.607 19.836-11.208 31.544h-1.927z"/></g><g class="I"><path d="M148.745 122.487s1.329-24.25 4.244-28.115c0 0-.605 24.065-2.202 28.115h-2.042z"/><path d="M150.678 121.798s5.628-13.432 7.639-14.241c4.324-1.741 7.615 1.49 7.615 1.49s-4.922.008-6.111.82c-1.517 1.037-6.619 11.931-6.619 11.931h-2.524z"/></g><path d="M139.443 121.471c-1.402 2.5.78 13.495 3.742 16.355h9.043c3.586-4.17 5.457-12.005 3.897-16.355h-16.682z" fill="#42a592"/><path d="M141.726 124.122a.599.599 0 0 1-.586.612.6.6 0 0 1-.586-.612.6.6 0 0 1 .586-.612c.325 0 .586.274.586.612zm3.371 3.572a.6.6 0 0 1-.587.612.6.6 0 0 1-.586-.612c0-.338.263-.611.586-.611s.587.273.587.611zm3.334-3.572a.6.6 0 0 1-.587.612.6.6 0 0 1-.586-.612.6.6 0 0 1 .586-.612.6.6 0 0 1 .587.612zm2.526 3.107a.6.6 0 0 1 .841.105.6.6 0 0 1-.138.836.597.597 0 0 1-.84-.104.602.602 0 0 1 .137-.837zm3.124-3.576a.6.6 0 0 1 .841.104.6.6 0 0 1-.138.837.598.598 0 0 1-.84-.104.598.598 0 0 1 .137-.837zm-12.309 8.005a.6.6 0 0 1-.586.612.6.6 0 0 1-.586-.612.6.6 0 0 1 .586-.612.6.6 0 0 1 .586.612zm3.374 3.573a.6.6 0 0 1-.587.612.6.6 0 0 1-.586-.612c0-.338.262-.611.586-.611a.6.6 0 0 1 .587.611zm3.331-3.573a.6.6 0 0 1-.586.612.6.6 0 0 1-.587-.612.6.6 0 0 1 .587-.612.6.6 0 0 1 .586.612zm2.529 3.104a.598.598 0 0 1 .841.104.6.6 0 0 1-.14.837.6.6 0 0 1-.84-.104.6.6 0 0 1 .139-.837zm3.123-3.58a.598.598 0 0 1 .84.103.6.6 0 0 1-.138.838.598.598 0 0 1-.84-.105.6.6 0 0 1 .138-.836z" fill="#a3bdb2"/><path d="M109.579 113.817s.935 20.369 5.924 24.01h6.859c5.449-4.139 6.237-24.01 6.237-24.01h-19.02z" fill="#f9b050"/><path d="M116.747 138.003a.183.183 0 0 1-.165-.103c-2.176-4.407-4.385-17.732-4.385-24.091 0-.102.083-.185.185-.185s.184.083.184.185c0 6.246 2.248 19.675 4.347 23.927a.186.186 0 0 1-.166.267zm4.991 0a.186.186 0 0 1-.166-.267c2.099-4.252 4.346-17.681 4.346-23.927a.184.184 0 1 1 .369 0c0 6.359-2.209 19.684-4.384 24.091a.184.184 0 0 1-.165.103zm-3.74 0a.184.184 0 0 1-.169-.112c-1.557-3.635-1.275-23.252-1.263-24.085a.184.184 0 0 1 .187-.182.185.185 0 0 1 .183.188c-.004.203-.295 20.37 1.233 23.933a.186.186 0 0 1-.171.258zm2.182 0a.185.185 0 0 1-.16-.276c1.823-3.197.818-23.702.808-23.909a.185.185 0 0 1 .175-.194.178.178 0 0 1 .193.176c.043.848 1.022 20.82-.855 24.11a.185.185 0 0 1-.161.093z" fill="#e4f2ec"/><path d="M183.737 122.483l-.007.381a35.044 35.044 0 0 1-.326 3.912l-.125.843v.003c-.606 3.801-1.776 7.587-3.322 10.208h-7.686c-1.144-1.608-2.15-5.294-2.8-9.132v-.004l-.043-.262v-.004a59.12 59.12 0 0 1-.502-3.841 9.617 9.617 0 0 1-.038-.373c-.262-2.954-.235-5.506.203-6.644h14.181c.342 1.397.49 3.087.465 4.913z" fill="#f79277"/><path d="M183.737 122.481l-.007.38a.15.15 0 0 1-.056-.01c-.668-.233-.878.177-1.166.865-.192.458-.407.972-.9.972a.714.714 0 0 1-.17-.018c-.586-.123-.909-.522-1.222-.906-.302-.374-.586-.725-1.118-.88-.442-.133-.63.199-.907.75-.241.481-.514 1.025-1.119.929-.59-.097-.903-.485-1.205-.862-.259-.325-.507-.629-.931-.78-.317-.115-.483.144-.753.717-.224.481-.501 1.076-1.102.958-.529-.104-.757-.47-.974-.821-.226-.359-.436-.699-.97-.825-.444-.107-.683.222-1.03.773-.284.459-.61.973-1.18.861a6.633 6.633 0 0 1-.038-.373.155.155 0 0 1 .067.004c.331.089.535-.204.841-.688.31-.495.693-1.113 1.427-.935.68.159.954.599 1.192.987.207.325.366.584.739.654.29.06.456-.244.693-.75.243-.514.547-1.15 1.213-.913.521.188.827.565 1.093.898.281.351.524.654.978.728.324.052.487-.244.729-.728.259-.518.581-1.161 1.343-.939.639.188.991.621 1.3 1.002.295.366.55.68 1.01.776.292.063.422-.177.65-.732.252-.595.583-1.397 1.573-1.094zm-.333 4.288l-.125.843v.003c-.038.074-.07.159-.106.244-.192.459-.406.973-.898.973a.901.901 0 0 1-.168-.019c-.592-.126-.913-.525-1.226-.909-.302-.37-.586-.725-1.115-.88-.445-.13-.634.203-.907.75-.239.481-.512 1.025-1.119.928-.593-.096-.906-.484-1.209-.861-.259-.321-.503-.629-.927-.78-.32-.115-.483.144-.756.721-.221.477-.502 1.076-1.099.957-.527-.103-.757-.469-.977-.824s-.437-.695-.967-.825c-.444-.103-.682.222-1.03.777-.299.473-.632 1.009-1.247.846-.018-.003-.036-.014-.056-.022v-.004l-.044-.262v-.004a.195.195 0 0 1 .192-.066c.335.089.538-.204.842-.688.309-.492.697-1.109 1.428-.935.681.162.954.599 1.195.987.202.325.365.584.735.658.289.059.456-.248.697-.754s.541-1.15 1.212-.91c.522.189.824.562 1.09.895.282.355.527.658.981.728.321.052.487-.24.728-.724.261-.522.583-1.161 1.341-.943.639.189.989.621 1.3 1.002.295.366.554.684 1.01.78.291.059.422-.177.653-.736.136-.322.295-.71.572-.946z" fill="#e4f2ec"/><path d="M489.28 207.709a34.33 34.33 0 0 1-2.534-.098c-8.864-3.969-1.97-26.172 8.578-31.06s11.252-8.267 11.252-8.267.503 1.739 1.031 4.487c1.99 10.337 4.347 34.945-18.327 34.938z" class="B"/><path d="M479.001 318.087l.747-37.475c.426-12.486 1.005-24.971 1.952-37.433.479-6.231 1.048-12.458 1.831-18.663.395-3.103.842-6.201 1.401-9.283a97.43 97.43 0 0 1 .945-4.607c.359-1.527.762-3.047 1.267-4.545a24.35 24.35 0 0 1 .867-2.215 14.25 14.25 0 0 1 .545-1.074c.199-.346.402-.678.607-1.013l2.451-3.985c1.62-2.663 3.2-5.349 4.706-8.075s2.938-5.494 4.237-8.32c1.291-2.828 2.471-5.717 3.289-8.707l.525.142c-.812 3.042-1.987 5.96-3.269 8.813-1.29 2.853-2.715 5.641-4.206 8.387a223.142 223.142 0 0 1-4.672 8.13l-2.428 4.003-.59.997a12.49 12.49 0 0 0-.507 1.016 22.84 22.84 0 0 0-.825 2.148c-.485 1.463-.873 2.967-1.218 4.48a94.735 94.735 0 0 0-.911 4.572c-.536 3.064-.963 6.151-1.338 9.245-.742 6.189-1.274 12.405-1.716 18.628-.868 12.446-1.372 24.92-1.721 37.397a1386.78 1386.78 0 0 0-.521 37.439l-1.448-.002z" class="C"/><path d="M476.934 279.007a5.398 5.398 0 0 1-.074.183c-9.119 22.765-33.328 8.799-39.156 5.011l-.004-.003c-.818-.532-1.273-.862-1.273-.862s7.737-2.472 14.27-6.158c8.545-4.823 23.935-8.541 26.237 1.829zm47.342-13.521c-.022.033-.233.361-.61.905l-.002.002c-2.242 3.234-10.319 14.095-18.693 15.715-7.501 1.451-14.526-.907-17.638-4.444a7.889 7.889 0 0 1-.841-1.144l-.002-.002c-.473-.785-.759-1.612-.824-2.454-.405-5.198 10.269-13.05 18.894-9.37 8.557 3.651 19.539.838 19.716.792zm-36.863-29.503c-7.447-8.104 13.518-14.735 23.309-10.463s11.644-.811 11.644-.811-9.358 39.136-34.953 11.274z" class="B"/><path d="M481.622 244.87c0-2.104.169-4.235.744-6.305.29-1.03.685-2.047 1.273-2.982a6.506 6.506 0 0 1 1.059-1.295c.418-.384.912-.723 1.517-.892.152-.04.302-.071.477-.08.162-.007.297 0 .435.006l.795.061 1.554.158 3.092.298 6.193.321 6.183-.231c2.051-.197 4.091-.524 6.075-1.057s3.912-1.277 5.66-2.335c1.749-1.05 3.3-2.439 4.437-4.133l.452.303c-1.169 1.777-2.775 3.241-4.574 4.347-1.801 1.112-3.78 1.894-5.8 2.46s-4.098.918-6.178 1.137-4.174.303-6.261.296a87.487 87.487 0 0 1-6.254-.261 158.994 158.994 0 0 1-3.111-.271l-1.546-.141-.759-.051a4.467 4.467 0 0 0-.345-.002c-.084.006-.19.024-.288.051-.402.111-.797.366-1.139.684a5.638 5.638 0 0 0-.905 1.115c-.523.831-.89 1.772-1.162 2.743a18.955 18.955 0 0 0-.556 2.991 29.005 29.005 0 0 0-.163 3.067l-.905-.002zm-45.177 38.28l5.866.321 5.878.011a80.13 80.13 0 0 0 5.859-.366c1.946-.2 3.885-.483 5.785-.92a30.374 30.374 0 0 0 2.815-.796l2.82-.867 5.737-1.43 2.939-.451a13.04 13.04 0 0 1 1.512-.066 5.49 5.49 0 0 1 .785.071c.134.025.272.056.413.107a1.52 1.52 0 0 1 .219.096l.062.036.039.026c.024.014.067.045.098.067.46.355.757.76 1.072 1.161l.867 1.231 1.62 2.524-1.15.576a22.927 22.927 0 0 0-1.234-2.633l-.744-1.237a7.632 7.632 0 0 0-.418-.568 3.263 3.263 0 0 0-.455-.472c-.018-.014-.025-.022-.052-.04l-.038-.025-.016-.011a1.346 1.346 0 0 0-.118-.054 1.831 1.831 0 0 0-.297-.08 4.701 4.701 0 0 0-.679-.075 11.81 11.81 0 0 0-1.428.037c-.961.076-1.926.217-2.883.388l-5.713 1.311-2.822.811-1.417.426-1.438.358c-1.929.43-3.884.7-5.843.889a82.75 82.75 0 0 1-5.89.33 119.15 119.15 0 0 1-11.784-.325l.033-.361z" class="C"/><path d="M479.613 285.041c.112-1.11.293-2.226.578-3.314a15.15 15.15 0 0 1 1.176-3.173c.516-1.01 1.173-1.969 2.009-2.767a7.789 7.789 0 0 1 2.938-1.785c1.072-.359 2.147-.588 3.228-.797a61.958 61.958 0 0 1 3.243-.522 79.934 79.934 0 0 1 6.533-.595 68.94 68.94 0 0 1 3.28-.083c1.05.003 2.116-.151 3.173-.349 2.113-.409 4.2-1.015 6.263-1.679a119.08 119.08 0 0 0 6.137-2.189 150.44 150.44 0 0 0 6.031-2.473l.148.331a150.743 150.743 0 0 1-6.009 2.577l-6.127 2.296-6.312 1.798c-1.077.219-2.173.399-3.302.413a66.226 66.226 0 0 0-3.242.109 78.163 78.163 0 0 0-6.462.64l-3.193.546c-1.052.222-2.105.47-3.094.82a6.821 6.821 0 0 0-2.566 1.629c-.725.724-1.309 1.594-1.754 2.537-.889 1.894-1.298 4.011-1.392 6.127l-1.284-.097z" fill="#231f20"/><path d="M476.937 263.089a42.539 42.539 0 0 1-1.736-.579c-12.311-4.38-25.039-14.906-24.247-25.952.831-11.566-4.165-19.088-6.891-22.279l-.005-.003c-.99-1.161-1.682-1.747-1.682-1.747s21.436-.432 34.561 19.803c5.716 8.815 7.4 22.656 0 30.757z" class="B"/><path d="M442.443 212.357c2.847 1.132 5.53 2.664 7.997 4.478s4.733 3.9 6.795 6.162a58.1 58.1 0 0 1 5.602 7.268 65.349 65.349 0 0 1 4.477 8.013 62.677 62.677 0 0 1 1.803 4.228l.776 2.164a181.07 181.07 0 0 0 3.983 10.707 138.531 138.531 0 0 0 1.79 4.2l.957 2.068.504 1.018.519 1.026c1.341 2.777 2.404 5.647 3.425 8.543l-.86.28a79.255 79.255 0 0 0-1.482-4.306 58.266 58.266 0 0 0-1.747-4.196 35.453 35.453 0 0 0-.5-1.021 49.27 49.27 0 0 1-.501-1.037 86.792 86.792 0 0 1-.945-2.095 141.638 141.638 0 0 1-1.76-4.237 186.215 186.215 0 0 1-3.173-8.603l-.722-2.175a52.571 52.571 0 0 0-.76-2.147 62.55 62.55 0 0 0-1.77-4.199 65.143 65.143 0 0 0-4.41-7.972 57.835 57.835 0 0 0-5.53-7.232c-2.036-2.252-4.268-4.331-6.708-6.134s-5.083-3.332-7.896-4.466l.136-.335z" class="C"/><path d="M475.198 262.506c-12.311-4.38-25.04-14.906-24.247-25.952.831-11.566-4.165-19.088-6.891-22.279.232.191 7.66 6.282 8.287 9.907.637 3.684 1.062 6.537 3.396 7.981s4.733 4.21 5.761 8.462.605 6.166 5.273 9.994c3.941 3.23 7.431 9.892 8.421 11.887zm48.466 3.889c-2.243 3.234-10.32 14.095-18.693 15.715-7.501 1.451-14.527-.907-17.638-4.444l-.842-1.144-.002-.002s5.188-1.968 8.227-.904 8.609 1.838 12.83-.326c4.187-2.146 15.935-8.792 16.118-8.895zm-46.806 12.788c-9.119 22.766-33.328 8.799-39.156 5.012.262.107 14.968 6.181 20.805 4.199 5.867-1.993 11.933-10.384 18.351-9.211zm12.419-71.475l-.011-.002s11.575-3.503 11.575-9.86c0-8.024 6.763-25.076 6.763-25.076 1.989 10.337 4.346 34.945-18.327 34.938z" class="D"/><path d="M495.671 360h-32.372c-9.469-5.73-12.651-14.84-12.325-23.216.025-.639.07-1.274.135-1.903.607-5.919 2.915-11.295 5.894-14.603 6.198-6.887 5.433-14.019 3.937-17.289h36.88c-1.495 3.27-1.812 10.068 3.937 17.289 2.967 3.726 5.166 8.224 6.158 12.947.138.657.252 1.317.342 1.981 1.211 8.94-2.022 18.402-12.586 24.794z" class="G"/><path d="M458.509 323.782h4.784v-2.775h-4.784v2.775zm7.512 0h4.784v-2.775h-4.784v2.775zm7.508 0h4.786v-2.775h-4.786v2.775zm7.511 0h4.784v-2.775h-4.784v2.775zm12.291 0h-4.785v-2.775h4.785v2.775zm2.725 0h4.784v-2.775h-4.784v2.775zm12.2 11.421c-3.339 3.468-5.722 1.93-7.666.677-1.596-1.03-2.65-1.618-4.134-.782-.699.396-1.138 1.079-1.606 1.803-.767 1.19-1.719 2.67-4.003 2.407-1.602-.187-2.567-1.29-3.418-2.264-.608-.696-1.184-1.355-1.888-1.543-2.554-.68-3.372.37-4.504 1.823-.941 1.21-2.007 2.581-4.186 2.711l-.232.008c-1.941 0-2.811-1.519-3.515-2.747-.59-1.028-.994-1.661-1.64-1.781-1.327-.246-2.084.336-3.04 1.074-.582.448-1.183.912-1.956 1.217-2.574 1.016-4.466-.524-5.988-1.759-1.416-1.152-2.341-1.836-3.465-1.41-.494.189-1.075.535-1.689.902-1.372.818-2.791 1.663-4.129 1.313a2.238 2.238 0 0 1-.224-.071l.136-1.902c.197.284.376.362.499.393.681.178 1.852-.52 2.884-1.135.648-.387 1.318-.786 1.946-1.025 2.058-.784 3.656.519 5.068 1.667 1.665 1.353 2.791 2.131 4.366 1.509.558-.221 1.043-.595 1.559-.992 1.071-.827 2.286-1.765 4.331-1.386 1.432.267 2.134 1.493 2.755 2.574.728 1.268 1.19 1.981 2.238 1.921 1.442-.086 2.165-1.012 2.999-2.084 1.162-1.495 2.608-3.354 6.205-2.398 1.184.315 1.953 1.195 2.697 2.046.751.861 1.399 1.603 2.377 1.716 1.222.141 1.658-.441 2.449-1.669.529-.818 1.126-1.747 2.174-2.34 2.415-1.364 4.301-.147 5.816.831 2.035 1.313 3.504 2.262 6.39-1.326l.052.042.342 1.98zm-9.661-31.184c0 .793-.641 1.437-1.434 1.437H462.07a1.434 1.434 0 0 1-1.433-1.437c0-.794.64-1.436 1.433-1.436h35.091c.793 0 1.434.642 1.434 1.436z" fill="#f8f8f8"/><path d="M473.529 323.782h4.786v-2.775h-4.786v2.775zm7.511 0h4.784v-2.775h-4.784v2.775zm-4.422 16.261c-1.94 0-2.811-1.518-3.515-2.746-.59-1.029-.994-1.662-1.64-1.782a3.266 3.266 0 0 0-.594-.058c-.979 0-1.642.512-2.445 1.132-.583.448-1.184.913-1.957 1.217a4.555 4.555 0 0 1-1.41.323l.814-1.841c.558-.221 1.043-.595 1.559-.992.903-.696 1.908-1.473 3.425-1.473.284 0 .584.027.907.087 1.431.267 2.134 1.493 2.755 2.574.698 1.219 1.153 1.924 2.117 1.924l.12-.003c1.443-.085 2.165-1.012 2.999-2.084.942-1.21 2.069-2.659 4.374-2.659.541 0 1.147.08 1.832.261 1.183.316 1.953 1.195 2.697 2.046.751.861 1.399 1.603 2.376 1.716a2.93 2.93 0 0 0 .339.022c.972 0 1.397-.583 2.11-1.691.529-.818 1.126-1.747 2.174-2.34l.397-.203.404 1.625c-.699.396-1.139 1.08-1.606 1.803-.706 1.096-1.571 2.438-3.486 2.438-.165 0-.337-.009-.518-.031-1.602-.187-2.567-1.289-3.418-2.263-.608-.697-1.183-1.355-1.888-1.544-.546-.145-1.013-.212-1.422-.212-1.497 0-2.193.894-3.081 2.035-.942 1.21-2.008 2.581-4.187 2.711l-.232.008z" fill="#faf9f8"/><path d="M449.262 137.473c-.474.652-1.46 1.06-2.148 1.111l-.842.021.101-.213c.406-.847.864-1.806 1.512-2.02.503-.164.843-.213 1.071-.213.21 0 .323.043.379.073s.114.083.15.232c.085.356.011.687-.223 1.009zm1.333-1.275c-.104-.431-.346-.764-.703-.964-.546-.307-1.319-.29-2.362.051-1.102.362-1.672 1.538-2.174 2.585l-.013.027-.461.907-.082.128.556.366.031.297.018.185a1.13 1.13 0 0 1 .116-.008c.536-.045 1.108-.002 1.681-.045.934-.072 2.267-.597 2.984-1.58.429-.593.572-1.267.409-1.949zm-45.579 2.607c-.688-.054-1.671-.461-2.147-1.113-.235-.322-.308-.653-.224-1.009.036-.149.097-.203.152-.232a.78.78 0 0 1 .378-.073c.23 0 .568.049 1.072.213.648.214 1.106 1.173 1.509 2.02l.103.213c-.286-.002-.563.002-.843-.019zm2.107-.004l-.337-.685-.155-.326c-.467-.962-1.03-1.958-2.03-2.286-1.04-.341-1.815-.358-2.36-.052-.36.201-.603.534-.704.964-.165.683-.022 1.357.411 1.95.715.983 2.047 1.507 2.981 1.58l1.796.053.012-.124.02-.2.017-.158.555-.367a6.244 6.244 0 0 1-.206-.349z" class="C"/><g class="H"><path d="M424.174 102.107h1.822V0h-1.822v102.107z"/><path d="M407.171 139.815c2.264-7.023 8.513-24.547 18.055-37.105 4.966 5.487 8.075 12.741 11.084 19.763 2.547 5.943 5.178 12.088 8.942 17.227l.919-.677c-3.685-5.034-6.292-11.118-8.813-17.001-3.139-7.326-6.384-14.902-11.759-20.591l-.456-.484-.409.526c-9.883 12.734-16.334 30.809-18.651 37.99l1.088.352z"/></g><path d="M415.008 145.604c-.002 0-.002-.207-.031-.595a12.09 12.09 0 0 0-.248-1.67 11.443 11.443 0 0 0-.851-2.477 10.657 10.657 0 0 0-1.922-2.78c-.862-.901-1.966-1.73-3.289-2.389s-2.857-1.152-4.524-1.457a24.534 24.534 0 0 0-2.586-.329 29.85 29.85 0 0 0-1.351-.07l-.688-.012a20.78 20.78 0 0 0-.669.004c-1.678.044-3.432.512-5.136 1.257s-3.368 1.754-4.956 2.895-3.104 2.418-4.547 3.75c-2.885 2.668-5.479 5.547-7.782 8.276s-4.308 5.329-5.998 7.534l-4.091 5.253c.007.004.295-.851 1.289-2.855a65.974 65.974 0 0 1 2.105-3.881 88.42 88.42 0 0 1 3.634-5.708c1.534-2.207 3.407-4.733 5.822-7.488a61.576 61.576 0 0 1 4.094-4.25c1.541-1.441 3.268-2.904 5.29-4.259a27.455 27.455 0 0 1 3.281-1.897 19.558 19.558 0 0 1 3.863-1.42 15.035 15.035 0 0 1 2.174-.372c.377-.035.757-.058 1.14-.061a35.3 35.3 0 0 1 1.079.005c1.443.031 2.938.153 4.47.428s3.097.707 4.642 1.386 3.063 1.615 4.392 2.871a13.688 13.688 0 0 1 3.202 4.59 14.617 14.617 0 0 1 1.16 5.721h-2.968zm5.744-3.857c-.002-.001 0-.174-.04-.529a10.86 10.86 0 0 0-.309-1.585c-.364-1.385-1.128-3.4-2.482-5.613-1.35-2.203-3.298-4.625-5.932-6.549a17.831 17.831 0 0 0-4.4-2.372 17.064 17.064 0 0 0-5.128-1.019c-1.785-.081-3.613.112-5.423.512s-3.588 1.001-5.3 1.734c-3.429 1.47-6.58 3.435-9.364 5.419-2.788 1.991-5.219 4.01-7.259 5.746l-4.927 4.141c.005.001.447-.748 1.776-2.454a58.147 58.147 0 0 1 2.758-3.262 62.928 62.928 0 0 1 4.656-4.623c1.95-1.733 4.33-3.665 7.378-5.543a38.201 38.201 0 0 1 5.125-2.653c1.906-.801 4.029-1.493 6.382-1.886s4.962-.461 7.646.083c2.683.533 5.409 1.703 7.861 3.485s4.647 4.135 6.421 6.933a26.631 26.631 0 0 1 2.311 4.55c.319.821.6 1.672.82 2.571s.391 1.84.399 2.914h-2.969z" class="D"/><path d="M432.273 141.48c.015-.049.134-.752.554-1.924a16.73 16.73 0 0 1 .909-2.066c.409-.778.937-1.637 1.643-2.505a12.768 12.768 0 0 1 2.686-2.491 12.086 12.086 0 0 1 3.82-1.729l1.077-.23a19.886 19.886 0 0 1 3.267-.283 21.566 21.566 0 0 1 4.502.47c2.994.627 5.872 1.861 8.413 3.41a32.624 32.624 0 0 1 6.585 5.317c1.819 1.907 3.233 3.862 4.221 5.621s1.552 3.319 1.738 4.45c-.005.005-.356-.517-1.29-1.752a44.516 44.516 0 0 0-1.925-2.356 42.966 42.966 0 0 0-3.225-3.313 39.786 39.786 0 0 0-5.03-3.951c-2.042-1.34-4.499-2.689-7.444-3.635a21.826 21.826 0 0 0-4.758-.971 18.322 18.322 0 0 0-2.605-.041 17.185 17.185 0 0 0-2.018.236 9.545 9.545 0 0 0-.643.136c-1.705.414-3.329 1.332-4.654 2.78a12.168 12.168 0 0 0-1.754 2.498 14.258 14.258 0 0 0-.957 2.232l-.12.386-.051.187-.038.152-2.903-.628z" class="B"/><path d="M424.61 142.023c.007.039-.652-2.672-2.109-6.737s-3.72-9.484-6.857-14.703c-1.566-2.607-3.345-5.157-5.293-7.445-1.942-2.292-4.056-4.313-6.183-5.943a36.434 36.434 0 0 0-6.155-3.807l-4.666-2.122c0 .011.697-.021 2.42.247.858.141 1.975.369 3.356.805a26.805 26.805 0 0 1 4.882 2.113c1.854 1.026 3.912 2.433 6.044 4.358s4.332 4.362 6.462 7.378 4.2 6.6 6.086 10.784a81.033 81.033 0 0 1 2.673 6.731 77.294 77.294 0 0 1 1.742 5.671l.257 1.006.246 1.051-2.905.613zm3.817-2.006c-.004-.038-.388-2.18-.507-5.55-.118-3.36.027-7.982 1.209-12.733.59-2.369 1.448-4.761 2.627-6.944 1.171-2.182 2.679-4.14 4.349-5.627 1.667-1.496 3.47-2.508 5.063-3.071s2.969-.715 3.923-.616c.005.007-.473.213-1.589.801-.554.298-1.266.698-2.111 1.276a19.304 19.304 0 0 0-2.851 2.372 20.497 20.497 0 0 0-3.11 4.068c-1.001 1.7-1.919 3.775-2.644 6.248s-1.264 5.34-1.535 8.59a58.387 58.387 0 0 0-.196 5.156 60.277 60.277 0 0 0 .174 4.214l.065.723.076.7-2.943.393zm9.759 1.065c.025-.038.383-.672 1.156-1.676a22.704 22.704 0 0 1 3.704-3.778 20.411 20.411 0 0 1 3.023-2.021 18.297 18.297 0 0 1 3.852-1.568 17.668 17.668 0 0 1 4.498-.644 19.35 19.35 0 0 1 4.721.534c3.124.738 6.049 2.192 8.6 3.912 2.559 1.725 4.773 3.714 6.639 5.674a44.138 44.138 0 0 1 4.545 5.62c1.159 1.719 1.957 3.217 2.361 4.34-.002.002-.465-.461-1.589-1.628l-2.236-2.281a95.431 95.431 0 0 0-3.51-3.359c-1.424-1.286-3.122-2.743-5.206-4.238a38.799 38.799 0 0 0-3.441-2.209 27.8 27.8 0 0 0-4.134-1.937c-1.504-.55-3.139-.974-4.878-1.138a15.322 15.322 0 0 0-5.438.443c-1.854.495-3.713 1.386-5.458 2.667a20.166 20.166 0 0 0-2.516 2.193 19.89 19.89 0 0 0-1.949 2.333l-.12.174-.096.146-2.528-1.559z" class="D"/><path d="M426.967 139.556c.009-.033.234-1.203.88-3.204a38.1 38.1 0 0 1 1.356-3.567 30.299 30.299 0 0 1 2.4-4.45c1.041-1.565 2.362-3.213 4.173-4.626a13.547 13.547 0 0 1 3.082-1.814c1.146-.481 2.41-.8 3.709-.907s2.628-.012 3.915.247a18.23 18.23 0 0 1 3.755 1.208c2.416 1.07 4.637 2.59 6.627 4.367s3.754 3.816 5.289 5.992a44.345 44.345 0 0 1 3.942 6.851c2.198 4.727 3.543 9.623 4.298 14.167.754 4.55.925 8.756.805 12.277s-.534 6.366-1.01 8.278c-.007 0-.007-1.112-.094-3.872a110.18 110.18 0 0 0-.324-5.436 85.163 85.163 0 0 0-1.104-8.224c-.605-3.223-1.501-6.955-3.054-11.081a51.43 51.43 0 0 0-2.929-6.407c-1.198-2.19-2.641-4.427-4.429-6.574-1.787-2.14-3.925-4.212-6.495-5.87-1.283-.823-2.677-1.538-4.16-2.039s-3.053-.782-4.603-.681c-1.549.095-3.079.596-4.478 1.494s-2.67 2.163-3.776 3.655-2.06 3.205-2.878 5.044a36.896 36.896 0 0 0-1.814 5.09l-.099.375-.086.352-2.898-.645z" class="B"/><path d="M445.547 138.801l-.012.686-.011.282a32.288 32.288 0 0 1-.487 4.088 48.606 48.606 0 0 1-.856 3.815 59.304 59.304 0 0 1-1.311 4.282c-2.069 5.942-5.057 11.468-7.916 13.385h-17.657c-2.971-1.995-6.084-7.9-8.162-14.11a66.656 66.656 0 0 1-.328-1.017 48.755 48.755 0 0 1-.521-1.759c-.118-.41-.227-.819-.33-1.227-.671-2.627-1.108-5.169-1.218-7.35l-.011-.209a21.438 21.438 0 0 1-.018-.866h38.838z" class="F"/><path d="M428.434 138.842h-3.461a7.972 7.972 0 0 0-.494-.729 3.844 3.844 0 0 0-.328-.386c-.107-.111-.23-.205-.23-.205l-.277.073c-.416.119-.896.294-1.376.488-.972.393-1.996.885-3.035 1.45a36.35 36.35 0 0 0-6.213 4.302 33.538 33.538 0 0 0-5.354 5.805 32.94 32.94 0 0 0-3.66 6.553c-.918 2.184-1.539 4.286-2.016 6.103l-1.191 4.408c0-.033-.116-.644-.171-2.14a28.572 28.572 0 0 1 .815-7.684 28.84 28.84 0 0 1 2.304-6.202c1.159-2.28 2.788-4.743 5.061-7.161 2.274-2.412 5.174-4.787 8.817-6.779a31.784 31.784 0 0 1 2.898-1.397 22.464 22.464 0 0 1 1.604-.604 13.23 13.23 0 0 1 .9-.26 6.14 6.14 0 0 1 .568-.108l.096-.011.147-.013.078-.002c-.008 0 .079-.003.097 0l.071.002c.185.006.358.036.523.075.661.17 1.077.481 1.405.759a5.81 5.81 0 0 1 .794.849c.438.563.768 1.119 1.07 1.684a19.71 19.71 0 0 1 .558 1.13z" class="B"/><path d="M425.204 103.87a2.27 2.27 0 0 1 .162-.634c.05.06.077.126.088.188.027.166-.065.329-.25.446zm-1.14-2.299c.027-.115.101-.179.172-.194a.3.3 0 0 1 .065-.007c.08 0 .15.054.272.31l.063.138-.143-.036c-.195-.053-.369-.124-.429-.211zm1.971.154l.027.014a.638.638 0 0 1 .471-.29h.009c.065 0 .083.019.111.062a.173.173 0 0 1 .029.064c-.015.028-.143.141-.372.222l-.275.083-.012.004a.281.281 0 0 1-.102.013c.008-.006-.04-.066-.116-.247a.381.381 0 0 1-.023-.054l-.005-.008.258.137zm1.59-.813a1.246 1.246 0 0 0-1.126-.608 1.587 1.587 0 0 0-.464.088 1.866 1.866 0 0 0-.669.405 1.487 1.487 0 0 0-.471-.431c-.235-.128-.525-.183-.889-.109a1.396 1.396 0 0 0-1.001.836c-.154.382-.112.791.116 1.124.165.241.396.405.652.52a2.78 2.78 0 0 0 .497.171c-.168.435-.246.93-.177 1.335a1.18 1.18 0 0 0 .165.446c.148.23.409.411.76.411.208 0 .449-.064.719-.217a1.74 1.74 0 0 0 .713-.742 1.504 1.504 0 0 0 .051-1.201 4.351 4.351 0 0 0 .338-.121c.317-.137.755-.404.921-.879.084-.233.127-.601-.135-1.028z" class="C"/><path d="M444.18 147.662l-.335 1.215-.19-.209-.789-.857a4.401 4.401 0 0 0-.387-.379 6.899 6.899 0 0 0-.473.477l-.088.096-.56.648c-.525.629-1.122 1.342-1.77 1.709-1.407.793-2.23-.532-2.777-1.408-.282-.452-.572-.921-.867-1.1-.59-.359-1.204.147-2.147 1.021-.809.749-1.641 1.525-2.659 1.427-.621-.062-1.178-.439-1.705-1.158-.152-.211-.273-.414-.382-.593-.373-.618-.394-.612-.731-.486-.406.151-.737.544-1.086.959-.605.719-1.436 1.702-2.851.998-.585-.292-.912-.82-1.204-1.285-.204-.331-.398-.642-.621-.762-.246-.13-.53.199-1.037.936-.232.337-.471.685-.738.928-.764.687-1.4 1.015-1.974 1.015-.097 0-.193-.008-.287-.028-.824-.166-1.204-.976-1.541-1.691-.501-1.064-.666-1.168-1.057-1.015-.347.135-.733.504-1.104.858-.8.763-1.895 1.804-3.289.908-.538-.346-.775-.989-.981-1.557-.156-.424-.331-.906-.558-.977-.548-.166-1.019.293-1.707 1.09a41.308 41.308 0 0 1-.329-1.226c.628-.646 1.383-1.179 2.349-.883.73.226 1.001.97 1.244 1.629.156.429.32.875.558 1.029.624.401 1.082.068 1.978-.786.447-.426.911-.867 1.452-1.079 1.415-.552 2.013.715 2.405 1.555.23.486.491 1.039.791 1.099.127.027.513.006 1.338-.734.176-.158.377-.454.572-.738.514-.747 1.289-1.875 2.415-1.273.474.254.755.704 1.026 1.136.235.38.46.74.771.896.618.307.889.073 1.566-.731.404-.478.862-1.022 1.528-1.269 1.185-.442 1.663.352 2.013.932l.331.514c.331.454.65.697.95.727.538.051 1.195-.559 1.832-1.147.936-.87 2.103-1.952 3.419-1.15.515.311.873.887 1.22 1.448.683 1.098.924 1.282 1.353 1.041.477-.271 1.008-.904 1.475-1.463l.601-.695.087-.094c.494-.527.793-.845 1.245-.847h.002c.433 0 .742.296 1.166.747l.537.582zm-.925 3.144l-.388 1.148-.289-.313-.39-.38a6.446 6.446 0 0 0-.472.48l-.091.093-.559.649c-.525.629-1.12 1.341-1.77 1.708-1.407.795-2.23-.531-2.775-1.408-.283-.452-.574-.921-.869-1.1-.59-.358-1.206.147-2.147 1.021-.809.751-1.645 1.525-2.657 1.427-.623-.06-1.18-.439-1.703-1.158-.154-.211-.277-.414-.386-.593-.373-.618-.395-.61-.731-.484-.404.15-.735.542-1.085.958-.606.718-1.437 1.704-2.852.998-.585-.292-.913-.819-1.202-1.286-.207-.331-.4-.642-.623-.761-.246-.131-.528.2-1.037.938-.23.335-.471.682-.739.925-.764.687-1.397 1.016-1.971 1.016-.099 0-.195-.009-.289-.028-.822-.166-1.204-.977-1.541-1.689-.501-1.067-.666-1.171-1.057-1.018-.348.137-.733.504-1.104.86-.8.761-1.895 1.804-3.289.908-.538-.345-.775-.991-.981-1.558-.156-.425-.332-.907-.558-.977a.76.76 0 0 0-.568.047 79.987 79.987 0 0 1-.328-1.017 1.763 1.763 0 0 1 1.209-.047c.73.223 1.003.97 1.244 1.627.157.431.32.876.557 1.028.625.401 1.083.07 1.979-.785.447-.427.91-.866 1.452-1.079 1.415-.553 2.012.716 2.407 1.554.23.489.489 1.041.789 1.101.127.025.514.006 1.338-.736.176-.158.376-.452.574-.738.512-.746 1.287-1.874 2.413-1.273.476.254.755.704 1.026 1.139.235.38.46.738.775.893.613.308.885.075 1.564-.729.402-.48.86-1.024 1.526-1.271 1.185-.442 1.663.354 2.013.934l.331.514c.331.452.65.697.95.725.538.053 1.197-.557 1.832-1.147.936-.868 2.103-1.951 3.423-1.15.51.312.871.89 1.216 1.448.685 1.099.925 1.284 1.352 1.041.478-.271 1.009-.904 1.476-1.463l.601-.693.088-.094c.493-.529.791-.846 1.244-.846h.004c.396 0 .691.249 1.068.641z" class="E"/><path d="M371.591 274.866c-.742-.759-1.115-3.147-1.294-6.298a93.829 93.829 0 0 1-.091-2.16l-.051-8.068.018-2.236-.034-8.079a39.7 39.7 0 0 0-.123-2.139c-.069-.803-.167-1.454-.297-1.915-1.3-4.58-1.799-8.256 1.142-8.07l6.39.26c9.358.33 26.082.785 31.104.208.336-.038.619-.081.845-.128 4.837-1.033 1.544 7.267 1.256 9.682a1.84 1.84 0 0 0-.016.177c-.04.528-.042 1.562-.02 2.933l.23 7.426.128 3.122a974.005 974.005 0 0 0 .527 10.659l.022.403.034.577.15 2.249c.281 3.363-37.263 4.106-39.92 1.397z" fill="#afc5f8"/></g></svg>