<svg width="51" height="50" viewBox="0 0 51 50" fill="none" xmlns="http://www.w3.org/2000/svg">
<path d="M25.6202 48.5352H34.3823V45.5263H32.47C32.4688 45.5263 32.4675 45.5262 32.4662 45.5262H25.6202V48.5352ZM36.8958 45.5263H35.8472V48.5352H38.8081V45.5262H36.8997C36.8984 45.5262 36.8971 45.5263 36.8958 45.5263ZM37.6283 44.0613H46.3904V41.0524H37.6283V44.0613ZM33.2024 44.0613H36.1634V41.0524H33.2024V44.0613ZM22.9753 44.0613H31.7376V41.0524H25.3281C25.3255 41.0524 25.323 41.0524 25.3204 41.0523H22.9753V44.0613ZM40.273 39.5875H46.6825C46.6851 39.5875 46.6876 39.5876 46.6901 39.5876H49.0353V36.5787H40.273V39.5875ZM35.8472 39.5875H38.8081V36.5787H35.8472V39.5875ZM25.6202 39.5875H34.3823V36.5787H25.6202V39.5875ZM20.5336 35.2699L23.6688 32.1615C23.4594 32.0734 23.2528 31.9802 23.049 31.882C22.2412 31.4929 21.478 31.026 20.7688 30.4914C20.7304 30.4625 20.6921 30.4334 20.654 30.4041C20.6136 30.373 20.5735 30.3416 20.5335 30.3101L20.5336 35.2699ZM34.1106 23.308C34.1106 22.3358 33.4534 21.7414 32.8644 21.7414C32.2753 21.7414 31.6181 22.3358 31.6181 23.308C31.6181 24.2802 32.2753 24.8746 32.8644 24.8746C33.4534 24.8746 34.1106 24.2802 34.1106 23.308ZM31.9049 14.495L27.4266 25.1642L27.4112 25.1987C27.2433 25.5479 26.8291 25.7077 26.4678 25.5561C26.0948 25.3995 25.9194 24.9702 26.0759 24.5973L30.5542 13.928L31.9049 14.495ZM26.2179 16.0132C26.2179 15.0411 25.5606 14.4466 24.9716 14.4466C24.3825 14.4467 23.7253 15.0411 23.7253 16.0132C23.7253 16.9854 24.3825 17.5798 24.9716 17.5798C25.5606 17.5798 26.2179 16.9854 26.2179 16.0132ZM30.5542 13.928C30.7108 13.5551 31.14 13.3796 31.513 13.5362C31.886 13.6927 32.0614 14.122 31.9049 14.495L30.5542 13.928ZM11.8279 8.04033L11.8278 4.32158C11.8278 1.92895 13.7825 2.31757e-05 16.1802 0L16.2907 0.00143051C18.6026 0.0617989 20.5328 2.00843 20.5328 4.32177L20.5329 9.01165C22.8412 7.19099 25.7547 6.1018 28.918 6.1018C36.3964 6.10181 42.4797 12.1835 42.4797 19.6607C42.4797 26.2245 37.7924 31.7105 31.589 32.9543C31.8482 33.6468 31.9225 34.3915 31.812 35.1138H49.3274C49.975 35.1138 50.5001 35.6389 50.5001 36.2865V39.8797C50.5001 40.5274 49.975 41.0524 49.3274 41.0524H47.8553V44.0614H49.3274C49.975 44.0614 50.5001 44.5864 50.5001 45.2341V48.8273C50.5001 49.4749 49.975 50 49.3274 50H46.0035C45.599 50 45.2711 49.6721 45.2711 49.2676C45.2711 48.8631 45.599 48.5352 46.0035 48.5352H49.0353V45.5262H40.273V48.5352H43.079L43.1167 48.5361C43.5037 48.5557 43.8114 48.8757 43.8114 49.2676C43.8114 49.6595 43.5037 49.9795 43.1167 49.999L43.079 50H25.3281C24.6804 50 24.1553 49.4749 24.1553 48.8273V45.5261H22.6832C22.628 45.5261 22.5736 45.5223 22.5203 45.5149L19.2568 48.7508C17.5767 50.4165 14.7847 50.4166 13.105 48.7498L1.77707 37.5182C0.0743071 35.83 0.0743451 33.0904 1.77697 31.4022L1.85632 31.3255C3.53948 29.7423 6.28971 29.7781 7.92789 31.4022L11.8286 35.2697L11.828 10.9517L11.829 10.9139C11.8486 10.527 12.1686 10.2192 12.5605 10.2192C12.9649 10.2192 13.2929 10.5471 13.2929 10.9516L13.2935 37.0275C13.2935 37.3231 13.1157 37.5898 12.8428 37.7035C12.5699 37.8172 12.2554 37.7557 12.0455 37.5476L6.89649 32.4425C5.8182 31.3734 3.96887 31.3507 2.86054 32.392L2.80837 32.4424C1.70127 33.5401 1.68394 35.3066 2.75649 36.4252L2.80847 36.478L14.1364 47.7096L14.1366 47.7098L14.1891 47.7606C15.3035 48.8097 17.1336 48.793 18.2254 47.7105L21.5143 44.4495C21.5117 44.4178 21.5105 44.3857 21.5105 44.3534V40.7602C21.5105 40.1126 22.0356 39.5875 22.6832 39.5875H24.1553V36.2865C24.1553 35.6389 24.6804 35.1138 25.3281 35.1138H30.3208C30.5044 34.3353 30.3543 33.4954 29.8717 32.8182C29.7886 32.7016 29.6975 32.5908 29.5974 32.487L29.5539 32.4429C28.4392 31.3377 26.6376 31.325 25.5065 32.4046L25.5063 32.4048C25.4988 32.412 25.4919 32.4185 25.4865 32.4235C25.4837 32.426 25.4811 32.4284 25.4789 32.4304C25.4766 32.4325 25.4749 32.4342 25.4731 32.4358C25.4658 32.4426 25.4651 32.4433 25.4663 32.4421L25.4657 32.4428L19.0689 38.7851L19.0686 28.9715C16.77 26.5421 15.3563 23.2633 15.3562 19.6606C15.3562 16.0581 16.7697 12.7795 19.068 10.3502L19.0679 4.32177C19.0679 2.81527 17.7836 1.5064 16.2533 1.4658L16.1802 1.46484C14.5796 1.46487 13.2927 2.74978 13.2927 4.32158L13.2928 8.04033C13.2928 8.44483 12.9649 8.77274 12.5604 8.77275C12.1559 8.77276 11.8279 8.44484 11.8279 8.04033ZM35.5755 23.308C35.5755 24.8752 34.461 26.3394 32.8644 26.3394C31.2678 26.3394 30.1533 24.8752 30.1533 23.308C30.1533 21.7408 31.2678 20.2765 32.8644 20.2765C34.461 20.2765 35.5755 21.7408 35.5755 23.308ZM16.8211 19.6606C16.8211 22.9701 18.1576 25.9728 20.3217 28.1603L20.4496 28.2876C21.2835 29.1059 22.2347 29.804 23.275 30.3549C23.6214 30.5383 23.9776 30.7056 24.3428 30.8554C24.5074 30.9228 24.6738 30.9866 24.8419 31.047C26.5483 29.7288 29.0154 29.8463 30.5852 31.4027L30.6518 31.4702C30.6963 31.5163 30.7395 31.5632 30.7813 31.6106C36.5698 30.7122 41.0148 25.6945 41.0149 19.6607C41.0149 12.9928 35.5877 7.56665 28.918 7.56664C25.612 7.56664 22.612 8.89941 20.4248 11.058L20.3213 11.1615C18.1574 13.3489 16.8211 16.3514 16.8211 19.6606ZM27.6828 16.0132C27.6828 17.5805 26.5682 19.0447 24.9716 19.0447C23.375 19.0447 22.2605 17.5805 22.2605 16.0132C22.2605 14.446 23.375 12.9818 24.9716 12.9818C26.5681 12.9818 27.6828 14.446 27.6828 16.0132Z" fill="#EB5976"/>
</svg>
