<svg width="76" height="76" viewBox="0 0 76 76" fill="none" xmlns="http://www.w3.org/2000/svg">
    <path fill-rule="evenodd" clip-rule="evenodd" d="M67.132 42.257c-2.35 16.089-17.3 27.226-33.39 24.875-16.086-2.35-27.226-17.3-24.875-33.39 2.351-16.087 17.302-27.225 33.39-24.875 16.087 2.35 27.226 17.301 24.875 33.39zM71.17 37.6c-.02-1.868 3.993-4.087 3.686-5.89-.312-1.834-4.838-2.599-5.43-4.336-.594-1.756 2.532-5.114 1.675-6.744-.86-1.637-5.4-.964-6.502-2.446-1.103-1.479.84-5.637-.483-6.93-1.317-1.288-5.428.747-6.94-.325-1.499-1.062-.935-5.619-2.602-6.443-1.64-.81-4.914 2.4-6.7 1.846-1.738-.54-2.612-5.047-4.47-5.318C41.548.741 39.42 4.81 37.6 4.83c-1.868.02-4.086-3.994-5.89-3.688-1.835.314-2.6 4.84-4.335 5.43-1.758.596-5.114-2.53-6.744-1.674-1.638.862-.965 5.4-2.445 6.503-1.481 1.103-5.64-.84-6.933.483-1.286 1.317.75 5.428-.324 6.94-1.061 1.498-5.619.933-6.444 2.603-.81 1.638 2.401 4.913 1.848 6.698-.54 1.738-5.048 2.613-5.319 4.47-.271 1.857 3.797 3.985 3.817 5.806.019 1.868-3.993 4.086-3.687 5.89.314 1.834 4.84 2.599 5.43 4.335.595 1.758-2.53 5.113-1.675 6.743.861 1.638 5.4.965 6.502 2.446 1.105 1.481-.84 5.638.485 6.932 1.316 1.287 5.426-.748 6.938.325 1.499 1.06.935 5.619 2.604 6.443 1.637.81 4.913-2.4 6.698-1.847 1.738.54 2.612 5.047 4.47 5.32 1.858.27 3.985-3.799 5.806-3.818 1.868-.02 4.087 3.993 5.89 3.686 1.834-.312 2.599-4.838 4.336-5.43 1.756-.595 5.115 2.533 6.743 1.676 1.638-.862.964-5.4 2.446-6.503 1.479-1.103 5.638.84 6.932-.484 1.286-1.317-.748-5.427.324-6.939 1.061-1.498 5.619-.934 6.444-2.602.81-1.64-2.401-4.915-1.847-6.7.54-1.738 5.047-2.612 5.317-4.47.271-1.857-3.797-3.985-3.816-5.805z" fill="#373737" stroke="#747474"/>
    <path fill-rule="evenodd" clip-rule="evenodd" d="M42.073 10.302c-15.306-2.237-29.532 8.36-31.767 23.665-2.237 15.308 8.36 29.531 23.665 31.768C49.28 67.972 63.5 57.373 65.74 42.068c2.236-15.307-8.362-29.53-23.666-31.766z" fill="#373737" stroke="#747474" stroke-width=".5"/>
    <path d="M50.113 20.932h-7.886v-.812h7.886v.812zM38.021 21.744l2 1.452-.764-2.35 2-1.452h-2.472l-.764-2.35-.763 2.35h-2.472l2 1.453-.763 2.35 1.998-1.453zM33.815 20.932H25.93v-.812h7.885v.812z" fill="#747474"/>
    <path d="M19.36 30.345h1.75l1.841 2.571v-2.571h2.091v6.673h-1.76l-1.832-2.561v2.561h-2.09v-6.673zM25.594 33.687c0-.48.091-.933.275-1.36.183-.427.433-.8.75-1.116a3.53 3.53 0 0 1 1.116-.75 3.41 3.41 0 0 1 1.36-.275c.48 0 .934.091 1.361.275.427.183.799.433 1.116.75.317.317.567.689.75 1.116.184.427.275.88.275 1.36 0 .48-.091.934-.275 1.361a3.531 3.531 0 0 1-.75 1.116 3.531 3.531 0 0 1-1.116.75 3.41 3.41 0 0 1-1.36.275 3.41 3.41 0 0 1-1.361-.275 3.53 3.53 0 0 1-1.116-.75 3.531 3.531 0 0 1-.75-1.116 3.41 3.41 0 0 1-.275-1.36zm2.1 0c0 .194.038.376.11.546a1.418 1.418 0 0 0 .746.745c.17.073.352.11.546.11.193 0 .375-.037.545-.11a1.418 1.418 0 0 0 .745-.745c.074-.17.11-.352.11-.546 0-.193-.036-.375-.11-.545a1.418 1.418 0 0 0-.745-.745 1.361 1.361 0 0 0-.545-.11c-.194 0-.376.036-.546.11a1.418 1.418 0 0 0-.745.745c-.073.17-.11.352-.11.545zM34.992 33.687c0-.533.094-1.015.28-1.445.187-.43.44-.8.76-1.106.32-.307.694-.542 1.121-.705.427-.164.88-.245 1.361-.245.38 0 .719.036 1.015.11.297.073.552.156.766.25.247.107.46.223.64.35l-1.05 1.85a3.52 3.52 0 0 0-.35-.23 3.363 3.363 0 0 0-.406-.154 1.756 1.756 0 0 0-.535-.075 1.449 1.449 0 0 0-1.026.41 1.375 1.375 0 0 0 .016 1.98c.133.128.29.228.47.301.18.073.377.11.59.11.214 0 .404-.027.57-.08.167-.053.307-.113.42-.18.134-.073.25-.16.35-.26l1.051 1.85c-.18.148-.393.278-.64.391-.214.093-.47.18-.77.26-.3.08-.644.12-1.031.12-.52 0-1-.085-1.44-.255a3.248 3.248 0 0 1-1.891-1.82c-.18-.431-.27-.906-.27-1.427z" fill="#C9C9C9"/>
    <path d="M40.54 33.687c0-.48.09-.933.274-1.36.184-.427.434-.8.75-1.116a3.53 3.53 0 0 1 1.116-.75 3.41 3.41 0 0 1 1.36-.275c.481 0 .935.091 1.362.275a3.53 3.53 0 0 1 1.115.75c.317.317.567.689.75 1.116.184.427.276.88.276 1.36 0 .48-.092.934-.276 1.361a3.531 3.531 0 0 1-.75 1.116 3.53 3.53 0 0 1-1.115.75 3.41 3.41 0 0 1-1.361.275 3.41 3.41 0 0 1-1.36-.275 3.53 3.53 0 0 1-1.116-.75 3.533 3.533 0 0 1-.75-1.116 3.41 3.41 0 0 1-.276-1.36zm2.1 0c0 .194.037.376.11.546a1.417 1.417 0 0 0 .746.745c.17.073.351.11.545.11.193 0 .375-.037.545-.11a1.418 1.418 0 0 0 .745-.745c.074-.17.11-.352.11-.546 0-.193-.036-.375-.11-.545a1.416 1.416 0 0 0-.745-.745 1.36 1.36 0 0 0-.545-.11c-.194 0-.375.036-.545.11a1.416 1.416 0 0 0-.746.745c-.073.17-.11.352-.11.545zM47.715 34.948c.147.047.3.083.46.11a4.408 4.408 0 0 0 .97.11c.308 0 .461-.113.461-.34 0-.087-.046-.175-.14-.265a4.234 4.234 0 0 0-.355-.3c-.143-.11-.297-.232-.46-.365a3.336 3.336 0 0 1-.46-.46 2.406 2.406 0 0 1-.356-.586 1.868 1.868 0 0 1-.14-.745c0-.314.057-.59.17-.83.114-.241.27-.441.47-.601.2-.16.436-.282.706-.365.27-.084.559-.125.865-.125.16 0 .32.008.48.025l.43.045.431.06v1.87a6.914 6.914 0 0 0-.18-.02 6.903 6.903 0 0 0-.18-.02 2.107 2.107 0 0 0-.36-.004.899.899 0 0 0-.17.025.347.347 0 0 0-.14.07.172.172 0 0 0-.06.14c0 .053.045.12.135.2.09.08.2.173.33.28.13.107.273.23.43.37.157.14.3.3.43.48s.24.384.33.61c.09.227.136.48.136.761 0 .294-.047.569-.14.825-.094.257-.239.48-.436.67-.197.19-.448.341-.755.451-.307.11-.67.165-1.09.165a6.595 6.595 0 0 1-1.281-.12 4.844 4.844 0 0 1-.53-.12v-2.001zM52.824 32.096h-1.23v-1.751h4.662v1.75h-1.23v4.923h-2.202v-4.922zM20.5 41.683h5.505v2.45h-2.521v1.037h2.479v2.326h-2.48v1.078h2.62v2.451H20.5v-9.342zM26.945 41.683h2.466l2.437 3.586 2.423-3.586h2.465v9.342h-2.983v-3.361l-1.905 2.801-1.92-2.801v3.361h-2.983v-9.342zM37.71 41.683h3.167v9.342H37.71v-9.342zM54.034 48.462c0 .878-.185 1.546-.553 2.003-.37.458-.876.687-1.52.687-.645 0-1.151-.23-1.52-.687-.369-.457-.553-1.125-.553-2.003 0-.878.184-1.548.553-2.01.369-.462.875-.693 1.52-.693.644 0 1.15.23 1.52.693.368.462.553 1.132.553 2.01zm-1.583 0c0-.803-.163-1.204-.49-1.204-.327 0-.49.401-.49 1.204 0 .803.163 1.205.49 1.205.327 0 .49-.402.49-1.205zm-8.068-4.216c0-.878.184-1.545.553-2.003.369-.458.876-.686 1.52-.686s1.15.228 1.52.686c.368.458.553 1.125.553 2.003 0 .878-.185 1.548-.553 2.01-.37.462-.876.693-1.52.693-.645 0-1.151-.23-1.52-.693-.369-.462-.553-1.132-.553-2.01zm1.583 0c0 .803.163 1.205.49 1.205.327 0 .49-.402.49-1.205s-.163-1.205-.49-1.205c-.327 0-.49.402-.49 1.205zm4.272-2.563h1.653l-3.712 9.343h-1.653l3.712-9.343z" fill="#C9C9C9"/>
</svg>
