<svg width="343" height="220" viewBox="0 0 343 220" fill="none" xmlns="http://www.w3.org/2000/svg">
    <path fill-rule="evenodd" clip-rule="evenodd" d="m259.142 134.147.115.163c1.901-1.338 3.856-2.586 5.929-3.654 10.726-5.528 20.786-11.21 29.186-19.941 9.947-10.341 16.925-24.308 16.928-38.982v-.003h-.045.045-.045.045c0-7.34-1.968-14.767-5.557-21.125-3.589-6.358-8.804-11.648-15.299-14.698-5.35-2.512-10.952-3.4-16.681-3.4-11.572.002-23.668 3.614-35.334 4.819a90.483 90.483 0 0 1-9.319.467c-19.341.001-38.61-5.665-57.775-9.76-10.8-2.308-22.061-4.067-33.109-4.067-11.709 0-23.182 1.976-33.606 7.374-16.315 8.45-28.32 25.162-31.461 43.787a60.912 60.912 0 0 0-.839 10.121c0 15.51 5.754 31.078 16.047 42.492 9.048 10.031 20.684 16.395 33.344 20.408 12.659 4.013 26.344 5.678 39.508 6.317a349.505 349.505 0 0 0 58.116-2.02c8.697-1.033 16.855-2.81 24.556-7.16 5.542-3.133 10.254-7.38 15.366-10.975l-.115-.163-.113-.164c-5.137 3.617-9.84 7.854-15.332 10.956-7.636 4.313-15.736 6.081-24.409 7.11a349.23 349.23 0 0 1-58.05 2.019c-13.143-.637-26.797-2.302-39.408-6.3-12.612-3.998-24.18-10.327-33.168-20.295-10.223-11.334-15.946-26.813-15.945-42.225 0-3.37.273-6.736.833-10.055 3.117-18.5 15.055-35.113 31.252-43.5 10.353-5.36 21.758-7.33 33.424-7.33 11.006 0 22.241 1.754 33.026 4.058 19.146 4.09 38.439 9.77 57.858 9.77 3.117 0 6.237-.146 9.361-.47 11.714-1.213 23.801-4.818 35.292-4.816 5.689 0 11.229.88 16.513 3.362 6.408 3.009 11.566 8.236 15.121 14.534 3.556 6.296 5.506 13.66 5.506 20.93v.003h.045-.045.045-.045c0 14.544-6.926 28.425-16.817 38.705-8.348 8.678-18.362 14.34-29.08 19.863-2.096 1.08-4.066 2.338-5.977 3.681l.113.164z" fill="#F4EBD7"/>
    <path fill-rule="evenodd" clip-rule="evenodd" d="M139.765 152.48c-13.542-1.607-27.169-4.89-39.135-12.081-11.966-7.192-22.18-18.673-26.165-32.72-3.985-14.047-.836-30.598 9.421-39.965 12.766-11.657 31.678-9.803 48.3-12.86 21.426-3.94 40.221-16.697 59.444-27.363 19.221-10.665 40.86-19.617 62.346-15.103 17.298 3.635 32.892 16.372 40.841 33.361 7.95 16.99 8.069 37.83.312 54.587-11.192 24.178-35.907 37.14-59.836 45.583a323.852 323.852 0 0 1-54.157 13.992c-6.761 1.135-13.662 2.054-20.472.98-6.81-1.075-13.611-4.375-17.825-10.285l-3.074 1.874z" fill="#fff"/>
    <path fill-rule="evenodd" clip-rule="evenodd" d="M0 179.384h343v-.846H0v.846z" fill="#794E57"/>
    <path fill-rule="evenodd" clip-rule="evenodd" d="M72.179 196.534c-8.013 0-14.51-1.239-14.51-2.769s6.497-2.771 14.51-2.771 14.509 1.241 14.509 2.771c0 1.53-6.496 2.769-14.509 2.769z" fill="#FFCED8"/>
    <path fill-rule="evenodd" clip-rule="evenodd" d="M64.507 176.795c-2.05 0-3.717 1.724-3.717 3.844 0 2.337 2.826 5.817 4.725 5.817 1.745 0 2.71-3.44 2.71-5.817 0-2.12-1.668-3.844-3.718-3.844zm1.008 11.576c-3.14 0-6.634-4.609-6.634-7.732 0-3.176 2.524-5.758 5.626-5.758 3.103 0 5.627 2.582 5.627 5.758 0 2.99-1.254 7.732-4.62 7.732z" fill="#1C2F59"/>
    <path fill-rule="evenodd" clip-rule="evenodd" d="M76.367 193.353h-8.26a2.64 2.64 0 0 1-2.63-2.426l-1.708-20.646h17.278l-2.054 20.689a2.64 2.64 0 0 1-2.626 2.383z" fill="#1C2F59"/>
    <path fill-rule="evenodd" clip-rule="evenodd" d="M65.78 145.519c-.579 1.942-.838 3.943-.51 5.867.164.958.436 1.894.814 2.792a16.19 16.19 0 0 0 1.42 2.566c.569.806 1.172 1.596 1.854 2.327.162.176.338.393.515.606.173.216.356.418.518.644l.459.707c.158.23.253.513.379.766.133.253.197.546.28.824.096.275.112.579.147.872.022.147.018.296.005.446l-.03.445c-.021.147-.062.291-.093.437-.033.144-.064.289-.126.424l-.166.406c-.069.129-.143.253-.215.377-.067.129-.154.242-.24.355-.085.114-.165.23-.266.33a4.97 4.97 0 0 1-1.297 1.049l-.318-.507c.707-.623 1.286-1.463 1.482-2.328.038-.104.047-.216.06-.325.01-.11.032-.218.037-.326l-.015-.33c0-.108-.006-.216-.038-.324-.05-.216-.064-.434-.161-.642-.083-.209-.137-.423-.266-.621-.12-.199-.202-.409-.345-.599l-.41-.574c-.146-.187-.32-.358-.478-.538l-.507-.554c-.363-.391-.724-.781-1.056-1.203-.35-.404-.657-.848-.966-1.288-.583-.905-1.128-1.849-1.516-2.87-.383-1.022-.656-2.093-.754-3.182-.223-2.187.295-4.381 1.25-6.257l.553.228zM73.283 144.928c1.068.877 1.942 2.101 2.345 3.512.212.7.302 1.432.312 2.16.01.729-.107 1.445-.25 2.145a12.792 12.792 0 0 1-.667 2.012l-.181.445c-.054.139-.12.277-.165.416l-.116.418c-.042.141-.047.275-.076.412-.035.141-.021.27-.027.403-.016.14.02.259.033.389.004.135.066.244.091.374.057.112.099.239.176.345.265.452.775.836 1.306 1.078l-.117.587a3.193 3.193 0 0 1-2.029-1.002c-.142-.145-.248-.326-.363-.498-.084-.185-.2-.369-.249-.567-.053-.197-.12-.399-.129-.598-.018-.2-.05-.405-.03-.598.014-.191.004-.398.047-.582l.114-.558c.045-.182.11-.352.165-.53.059-.176.115-.358.17-.496.238-.59.41-1.196.567-1.8.144-.605.233-1.216.27-1.826a8.394 8.394 0 0 0-.117-1.816c-.212-1.204-.775-2.339-1.515-3.415l.435-.41zM292.575 197.887c-16.027 0-29.018-1.928-29.018-4.307 0-1.705 6.665-3.179 16.337-3.877a6.69 6.69 0 0 0 5.956 3.65h13.448a6.693 6.693 0 0 0 5.958-3.65c9.671.698 16.337 2.172 16.337 3.877 0 2.379-12.992 4.307-29.018 4.307z" fill="#FFCED8"/>
    <path fill-rule="evenodd" clip-rule="evenodd" d="M290.359 163.358h4.072v-39.954h-4.072v39.954z" fill="#27481F"/>
    <path fill-rule="evenodd" clip-rule="evenodd" d="M293.411 120.717a57.166 57.166 0 0 1-.546 6.903c-.172 1.208-.317 1.905-.317 1.905-11.119-3.618-16.22-10.531-18.343-17.504a25.23 25.23 0 0 1-.511-1.911c-2.246-9.703.763-18.948.763-18.948 5.098 1.068 8.866 3.297 11.635 6.166.476.489.919.996 1.336 1.52 5.124 6.441 6.105 15.321 5.983 21.869z" fill="#49883A"/>
    <path fill-rule="evenodd" clip-rule="evenodd" d="M307.816 101.402c-.221 7.76-3.23 16.798-12.562 25.474a52.897 52.897 0 0 1-2.264 1.996c-.084.072-.168.141-.252.212 0 0-1.546-2.277-3.139-5.976-.023-.054-.046-.103-.064-.156a44.107 44.107 0 0 1-1.616-4.407 42.18 42.18 0 0 1-1.069-4.217c-1.123-5.711-1.126-12.48 1.978-19.182 2.329-5.048 6.422-10.053 13.119-14.545 0 0 6.213 8.9 5.869 20.801z" fill="#49883A"/>
    <path fill-rule="evenodd" clip-rule="evenodd" d="M294.428 132.087v-4.45c.284-.253.562-.507.834-.762.232 3-.455 5.17-.455 5.17-.127.016-.252.029-.379.042z" fill="#93A38F"/>
    <path fill-rule="evenodd" clip-rule="evenodd" d="M292.859 132.192c.01-.061.017-.123.025-.186.012-.068.02-.136.027-.209.003-.042.008-.085.016-.128.01-.087.018-.179.026-.275l.004-.039a16.106 16.106 0 0 0 .034-2.484 48.85 48.85 0 0 0 1.431-1.235v4.45a21.75 21.75 0 0 1-1.561.104c0 .002 0 .002-.002.002z" fill="#27481F"/>
    <path fill-rule="evenodd" clip-rule="evenodd" d="M287.92 118.544c-2.841-2.604-7.174-4.96-13.723-6.523a25.23 25.23 0 0 1-.511-1.911c3.722.562 6.811 1.391 9.382 2.4.207-5.856 1.945-12.349 3.016-15.182.476.489.919.995 1.335 1.518a29.031 29.031 0 0 0-1.124 5.784c0 .005 0 .008-.002.013v.012c-.311 3.407-.03 6.685.558 9.672a41.84 41.84 0 0 0 1.069 4.217zM286.295 104.631z" fill="#38682C"/>
    <path fill-rule="evenodd" clip-rule="evenodd" d="m292.958 131.357-.005.038a5.204 5.204 0 0 1-.041.403c-.008.074-.015.141-.027.21-.026.211-.057.407-.087.594-.02.123-.043.242-.066.356-.202 1.031-.431 1.643-.431 1.643a23.635 23.635 0 0 1-3.128-.003c-18.116-1.219-21.835-23.806-21.835-23.806.583.074 1.153.154 1.71.242 1.851.276 3.567.609 5.15.989 6.549 1.562 10.882 3.918 13.723 6.522a16.67 16.67 0 0 1 2.173 2.4 14.647 14.647 0 0 1 2.765 6.676 15.924 15.924 0 0 1 .099 3.736z" fill="#49883A"/>
    <path fill-rule="evenodd" clip-rule="evenodd" d="M296.021 126.156c2.325-2.252 4.234-4.525 5.787-6.789-1.553 2.265-3.46 4.537-5.787 6.789z" fill="#ADB9AA"/>
    <path fill-rule="evenodd" clip-rule="evenodd" d="M292.991 128.872a14.947 14.947 0 0 0-.133-1.252 14.63 14.63 0 0 0-2.764-6.675 16.67 16.67 0 0 0-2.173-2.4 41.861 41.861 0 0 1-1.069-4.218 20.47 20.47 0 0 1 2.753 1.911 17.19 17.19 0 0 1 1.535 1.433c2.386-6.262 7.194-12.672 16.678-16.269a32.175 32.175 0 0 1-2.868 12.394 36.12 36.12 0 0 1-3.146 5.571c-1.554 2.264-3.463 4.537-5.787 6.789-.249.241-.503.481-.761.72-.02.017-.038.035-.058.051a47.15 47.15 0 0 1-.848.77c-.084.077-.168.153-.255.23-.247.214-.497.433-.753.649-.116.1-.232.198-.351.296z" fill="#3C7030"/>
    <path fill-rule="evenodd" clip-rule="evenodd" d="M290.749 134.651a23.18 23.18 0 0 1-1.573-.054c-.168-1.253-.652-5.914.428-11.49.137-.708.302-1.432.493-2.163a14.647 14.647 0 0 1 2.765 6.676 15.819 15.819 0 0 1 .099 3.736l-.005.038a5.306 5.306 0 0 1-.041.403c-.008.073-.015.141-.028.21-.025.211-.056.407-.087.594-.022.123-.042.242-.065.356-.202 1.03-.431 1.643-.431 1.643-.53.034-1.048.051-1.555.051z" fill="#427B35"/>
    <path fill-rule="evenodd" clip-rule="evenodd" d="m310.393 158.251-4.478 29.403a6.7 6.7 0 0 1-6.618 5.699H285.85a6.693 6.693 0 0 1-6.357-4.614 6.863 6.863 0 0 1-.26-1.085l-4.479-29.403h35.639z" fill="#FBC343"/>
    <path fill-rule="evenodd" clip-rule="evenodd" d="M291.839 134.635s-4.907-29.189 26.303-33.398c0 0 1.958 31.987-26.303 33.398z" fill="#49883A"/>
    <path fill-rule="evenodd" clip-rule="evenodd" d="M299.306 193.353h-13.448c-2.927 0-5.47-1.9-6.356-4.614 17.46-2.808 22.141-20.837 23.088-30.488h7.812l-3.188 20.933-.117.766-1.173 7.704a6.7 6.7 0 0 1-6.618 5.699z" fill="#E7B33D"/>
    <path fill-rule="evenodd" clip-rule="evenodd" d="M145.772 220c-5.027 0-9.135-.867-10.344-3.413-.645-1.357 2.531-2.134 7.494-2.57 2.201 2.068 5.809 3.488 8.719 3.695a8.981 8.981 0 0 0 .66.027c1.703 0 4.779-.531 7.889-1.179a229.79 229.79 0 0 0 9.698-2.271c1.713.273 3.212.394 4.521.394 1.516 0 2.775-.164 3.809-.443 3.549.382 5.701.878 5.701 1.422 0 .519-2.36.666-5.035.666-3.498 0-7.533-.251-7.533-.251S156.475 220 145.772 220zm9.733-15.667a51.572 51.572 0 0 0-1.656-.089 6.517 6.517 0 0 0-.927-4.104c-28.927-.827-49.914-3.293-49.914-6.207 0-1.248 3.857-2.415 10.545-3.405 5.327 2.809 11.425 4.327 17.497 4.977 5.713.61 11.44.849 17.173.849 4.029 0 8.063-.118 12.092-.308.528 1.81.783 3.299.536 4.074-1.02 3.193-5.346 4.213-5.346 4.213zm21.938-3.902c-.189-.279-.3-.438-.3-.438 0-1.121-.169-2.991-.396-5.006 14.949-1.055 32.732.383 47.046-5.727 13.391 1.182 21.716 2.84 21.716 4.673 0 3.496-30.192 6.345-68.066 6.498z" fill="#FFCED8"/>
    <path fill-rule="evenodd" clip-rule="evenodd" d="M251.81 146.166c-.939 15.544-8.751 31.075-21.557 39.624-15.265 10.19-36.609 7.935-53.993 9.233-15.028 1.122-30.171 2.086-45.203.482-12.318-1.317-24.742-6.211-30.626-18.205-5.895-12.022-6.533-27.994-.638-40.161 1.879-3.882 4.395-7.333 7.354-10.343.481-.495.981-.976 1.489-1.448.344-.317.691-.631 1.046-.939.543-.47 1.1-.929 1.665-1.377.187-.145.374-.292.565-.438.187-.144.378-.286.569-.429a53.722 53.722 0 0 1 1.745-1.236 51.136 51.136 0 0 1 6.896-3.914 54.996 54.996 0 0 1 7.117-2.777c7.907-2.461 16.166-3.334 24.326-4.411 17.315-2.278 34.944-3.056 52.396-3.044 14.242.005 30.278 2.14 39.801 14.404 5.376 6.922 7.587 16.125 7.048 24.979z" fill="#794E57"/>
    <path fill-rule="evenodd" clip-rule="evenodd" d="M222.485 119.913s3.673-3.461 5.62-5.464c1.947-2.004-2.3-2.068-4.394.427-2.094 2.497-1.226 5.037-1.226 5.037z" fill="#F9B384"/>
    <path fill-rule="evenodd" clip-rule="evenodd" d="M121.115 117.016a51.186 51.186 0 0 0-7.629 4.419l-.435.31c-.195.139-.385.28-.576.421-.191.142-.382.285-.569.429-.191.145-.378.292-.565.438-.558.442-1.104.899-1.642 1.366l-.023.012a42.573 42.573 0 0 0-2.535 2.385c.042.406.305.797.738.886 2.866.582 4.301 3.324 6.611 4.883 1.714 1.157 3.74 1.474 5.68.811-2.088 4.436-3.24 8.837-2.338 13.801a17.683 17.683 0 0 0 1.398 4.343c-2.684-1.999-5.269-6.282-6.332-10.625a1.138 1.138 0 0 0-1.386-.841 1.15 1.15 0 0 0-.839 1.39c1.316 5.376 4.667 10.543 8.149 12.563.829.481 1.67.786 2.504.927a17.64 17.64 0 0 0 2.305 2.45l5.147 1.442 4.2-27.189-11.863-14.621z" fill="#6A3E47"/>
    <path fill-rule="evenodd" clip-rule="evenodd" d="M136.033 135.275c-10.642-4.158-18.03-8.579-22.319-11.521a8.66 8.66 0 0 1-3.616-8.603l5.487-32.081c.565-3.302 2.748-6.11 5.818-7.43 8.804-3.786 17.375-5.95 24.939-6.999 0 0 4.237-.343 9.641.191 3.556.352 11.697 2.758 16.872 4.37a10.042 10.042 0 0 1 6.378 5.97c2.169 5.61 5.694 15.08 6.818 20.2 3.881 17.68 3.246 16.372 3.246 16.372l4.009 27.19-42.573 2.392-10.882-4.977-3.818-5.074z" fill="#708CD5"/>
    <path fill-rule="evenodd" clip-rule="evenodd" d="M162.375 38.1s-3.771-7.754-13.794-4.212c-7.254-1.58-12.791 7.037-7.445 18.765l10.07 2.345L162.375 38.1z" fill="#222"/>
    <path fill-rule="evenodd" clip-rule="evenodd" d="M157.027 60.025v13.717c0 3.21-2.596 5.813-5.796 5.813-4.337 0-7.854-3.527-7.854-7.877V60.025h13.65z" fill="#F9B384"/>
    <path fill-rule="evenodd" clip-rule="evenodd" d="M157.034 65.715v7.483c-6.082.03-10.118-7.858-10.118-7.858l10.118.375z" fill="#E28B6D"/>
    <path fill-rule="evenodd" clip-rule="evenodd" d="M163.053 58.297c-.366 1.9-.889 3.845-1.642 5.557-1.313 3.006-3.318 5.296-6.38 5.361-7.166.154-12.695-9.67-12.695-9.67l1.145-13.402 5.441-6.128 14.987 9.287s.042 4.358-.856 8.995z" fill="#F9B384"/>
    <path fill-rule="evenodd" clip-rule="evenodd" d="M143.239 55.621s1.48-6.031 6.634-9.956c0 0 7.494 9.813 15.416 5.074 7.923-4.74 4.487-14.074-2.911-12.638l-8.495-.957-10.644 3.399-1.813 8.377 1.813 6.701z" fill="#222"/>
    <path fill-rule="evenodd" clip-rule="evenodd" d="m150.761 125.136-12.143-2.491c-3.59-5.863-13.298-6.789-13.298-6.789l4.349-24.556c.016 2.759-.576 11.864 2.545 19.914 2.227 5.744 11.327-1.724 18.547 13.922z" fill="#506CB6"/>
    <path fill-rule="evenodd" clip-rule="evenodd" d="M129.888 90.88a223.7 223.7 0 0 1-.92 6.283c-.321 2.092-.698 4.174-1.044 6.262a292.655 292.655 0 0 1-1.15 6.242l-.622 3.113c-.225 1.035-.435 2.072-.676 3.103l-.316-.055c.126-1.052.285-2.099.427-3.148l.481-3.139c.328-2.089.683-4.175 1.056-6.259.389-2.08.747-4.165 1.162-6.24a224.59 224.59 0 0 1 1.286-6.218l.316.056zM172.067 86.997a409.188 409.188 0 0 1 1.634 8.203c.532 2.737 1.011 5.482 1.519 8.224a958.06 958.06 0 0 1 1.42 8.241l.666 4.128c.206 1.379.426 2.756.616 4.138l-.294.052c-.298-1.362-.565-2.73-.848-4.096l-.797-4.105a983.502 983.502 0 0 1-1.508-8.226c-.468-2.748-.964-5.49-1.408-8.243a418.04 418.04 0 0 1-1.294-8.264l.294-.052z" fill="#1C2F59"/>
    <path fill-rule="evenodd" clip-rule="evenodd" d="m161.993 136.423-.128-5.617c10.688-.341 12.437-20.958 12.326-28.9l.284 1.65c.491 2.745.992 5.486 1.507 8.225l.798 4.106c.282 1.366.55 2.734.847 4.096l.294-.052a1.11 1.11 0 0 0-.003-.027l2.911 15.371-18.836 1.148z" fill="#506CB6"/>
    <path fill-rule="evenodd" clip-rule="evenodd" d="M177.628 119.982c-.298-1.362-.565-2.73-.848-4.096l-.797-4.105a983.502 983.502 0 0 1-1.508-8.226c-.094-.55-.188-1.1-.284-1.65a27.19 27.19 0 0 0-.107-2.245l3.834 20.244.004.026-.294.052z" fill="#1C2F59"/>
    <path fill-rule="evenodd" clip-rule="evenodd" d="M149.494 130.105c8.496-3.638 10.12-3.503 11.264-3.447 3.913.192 9.545 8.042 9.545 8.042l-.095 1.437H148.73l.764-6.032z" fill="#E28B6D"/>
    <path fill-rule="evenodd" clip-rule="evenodd" d="M155.727 138.753h26.441v-4.021h-26.441v4.021z" fill="#fff"/>
    <path fill-rule="evenodd" clip-rule="evenodd" d="M218.125 138.756H172.18l10.309-41.181h45.946l-10.31 41.181z" fill="#EB5976"/>
    <path fill-rule="evenodd" clip-rule="evenodd" d="M222.289 121.913c-4.545-.681-19.245-3.745-49.536 14.765l-.7 2.552 46.073-.474 4.163-16.843z" fill="#D24863"/>
    <path fill-rule="evenodd" clip-rule="evenodd" d="M223.157 131.063c-.287 1.939-.382 4.787-6.372 4.428l-1.765-.91 1.669-1.842 3.604-1.843 2.864.167z" fill="#F9B384"/>
    <path fill-rule="evenodd" clip-rule="evenodd" d="M223.728 125.827s3.278 4.296-.016 5.618c-3.58 1.436-7.017 1.292-7.017 1.292 1.528-4.309 6.491-4.021 6.491-4.021l.542-2.889z" fill="#F9B384"/>
    <path fill-rule="evenodd" clip-rule="evenodd" d="M223.817 123.052s4.518 4.213.318 5.394c-5.93 1.667-7.763 1.786-7.763 1.786-.318-3.159 5.568-5.2 5.568-5.2l1.877-1.98z" fill="#F9B384"/>
    <path fill-rule="evenodd" clip-rule="evenodd" d="M222.899 119.382s6.173 3.765.382 5.871c-5.791 2.106-7.16 2.076-7.16 2.076-.318-3.161 5.888-4.245 5.888-4.245l.89-3.702z" fill="#F9B384"/>
    <path fill-rule="evenodd" clip-rule="evenodd" d="M216.149 127.518c.003 0 1.689-.241 3.63-.685a28.192 28.192 0 0 0 2.93-.818c.922-.323 1.733-.691 2.268-1.123l-.241-.297c-.468.382-1.251.745-2.152 1.059-1.355.473-2.98.845-4.263 1.098a47.22 47.22 0 0 1-1.596.288c-.197.034-.356.058-.463.075-.108.015-.166.025-.166.025l.053.378zM216.403 130.422c.004 0 1.757-.248 3.79-.688a34.326 34.326 0 0 0 3.076-.799c.972-.313 1.834-.663 2.413-1.066l-.219-.314c-.517.363-1.356.71-2.31 1.014-1.436.459-3.139.828-4.48 1.081-.672.127-1.252.225-1.665.293l-.484.075c-.113.017-.172.024-.172.026l.051.378zM216.684 132.929c.001 0 .169.005.456.005.575 0 1.624-.023 2.769-.161 1.146-.141 2.386-.393 3.356-.868l-.168-.345c-.901.444-2.111.697-3.234.832a22.59 22.59 0 0 1-2.723.159l-.328-.001-.086-.003h-.029l-.013.382z" fill="#E28B6D"/>
    <path fill-rule="evenodd" clip-rule="evenodd" d="M151.496 193.1c.7-.383 11.773 2.042 24.055-7.084l-15.846-4.531-8.209 11.615z" fill="#102048"/>
    <path fill-rule="evenodd" clip-rule="evenodd" d="m210.43 150.55.012-.019.038-.015c-.015.012-.035.023-.05.034zm11.424-10.162c.527-.755.982-1.866.318-2.502-.692-.666-1.822-.079-2.548.549a30.688 30.688 0 0 0-3.513 3.599l-26.75 4.985-36.654 8.935 6.302 8.068c18.327 1.34 28.765 1.685 40.235-.345 5.847-1.035 11.071-2.101 14.971-5.287.927-.763 1.805-2.041 1.202-3.079-.408-.702-1.256-.884-2.108-.877a27.008 27.008 0 0 0 5.666-2.026c.806-.391 1.703-1.003 1.685-1.9-.013-.643-.532-1.187-1.127-1.416-.596-.23-1.253-.21-1.89-.164a25.81 25.81 0 0 0-7.155 1.584c4.177-2.925 8.426-5.955 11.366-10.124z" fill="#6A3E47"/>
    <path fill-rule="evenodd" clip-rule="evenodd" d="M160.469 143.891s35.7-17.041 47.346-16.275c11.645.766 11.263 15.318 6.872 21.636-4.391 6.319-14.7 14.744-52.691 12.255l-1.527-17.616z" fill="#1C2F59"/>
    <path fill-rule="evenodd" clip-rule="evenodd" d="M178.335 214.209c-1.932.548-4.673.681-8.446.081 0 0-4.887 1.271-9.698 2.27-3.257.677-6.476 1.228-8.121 1.176a7.835 7.835 0 0 1-.428-.024c-3.158-.225-7.136-1.877-9.247-4.234l-.016-.02c-.58-.651-1.019-1.359-1.256-2.103-1.145-3.575 1.275-7.915 14.383-7.022 0 0 4.326-1.02 5.346-4.212 1.019-3.191-6.491-18.509-6.491-18.509l10.691-7.276 10.5 11.68s1.592 10.531 1.592 13.977c0 0 4.452 6.383 5.089 9.191.409 1.792-.484 4.055-3.898 5.025z" fill="#D58898"/>
    <path fill-rule="evenodd" clip-rule="evenodd" d="M118.225 117.22c1.224-.473 2.472-.855 3.733-1.207a26.795 26.795 0 0 1 1.914-.461c.324-.066.65-.123.981-.167a8.97 8.97 0 0 1 .505-.054c.184-.009.364-.007.536.009 1.371.146 2.614.578 3.85 1.036 1.228.469 2.431.994 3.612 1.564a47.778 47.778 0 0 1 3.471 1.844 55.095 55.095 0 0 1 3.333 2.083c2.153 1.492 4.225 3.13 6.009 5.06l-.226.227a39.674 39.674 0 0 0-2.998-2.465 48.237 48.237 0 0 0-3.189-2.209c-2.165-1.417-4.438-2.664-6.751-3.816a46.99 46.99 0 0 0-3.533-1.58c-1.197-.448-2.422-.929-3.641-1.094a2.88 2.88 0 0 0-.438-.026c-.151.008-.31.02-.466.037-.315.033-.631.079-.947.134a39.26 39.26 0 0 0-1.896.382 49.817 49.817 0 0 0-3.751 1.005l-.108-.302z" fill="#1C2F59"/>
    <path fill-rule="evenodd" clip-rule="evenodd" d="M124.579 167.348c4.296-.288 8.517.02 11.582-1.054 3.277-1.149 11.836-.383 11.836-.383l-4.709-6.797-19.091 4.787.382 3.447z" fill="#6A3E47"/>
    <path fill-rule="evenodd" clip-rule="evenodd" d="M124.768 154.805c-4.391-7.084-4.391-21.062 1.145-27.381 6.328-7.221 19.855-9.956 26.919-1.532 7.063 8.425 20.045 39.253 22.718 60.124 0 0-14.318-4.787-24.055 7.084 0 0-12.791-29.295-15.463-40.018l-7.255 5.744-4.009-4.021z" fill="#29437C"/>
    <path fill-rule="evenodd" clip-rule="evenodd" d="M136.03 153.082s-1.909-.702-4.582 1.084c0 0-20.873-.446-25.518 4.277-4.646 4.722-1.082 11.041 5.727 11.744 5.715.588 16.809-3.857 20.227-5.301a6.72 6.72 0 0 1 2.184-.52l5.653-.37-3.691-10.914z" fill="#D58898"/>
    <path fill-rule="evenodd" clip-rule="evenodd" d="M144.366 56.01s-1.4-4.653-4.48-3.49c-3.08 1.164-1.44 7.221 4.64 8.906l-.16-5.416z" fill="#F9B384"/>
    <path fill-rule="evenodd" clip-rule="evenodd" d="M141.088 81.671c1.52 1.075 3.14 2 4.859 2.656 1.716.645 3.528 1.055 5.345 1.011a11.795 11.795 0 0 0 5.228-1.301l.609-.311c.2-.11.383-.25.576-.372.38-.255.774-.495 1.113-.808l.537-.436.269-.219c.087-.075.165-.161.248-.242.326-.328.656-.654.992-.978l.228.193c-.3.364-.606.727-.917 1.086-.079.09-.152.184-.235.268l-.259.246-.519.492c-.337.34-.733.61-1.118.895-.196.138-.382.292-.585.418l-.626.358a11.449 11.449 0 0 1-5.533 1.47 14.112 14.112 0 0 1-5.595-1.17 18.363 18.363 0 0 1-4.801-3.02l.184-.236z" fill="#1C2F59"/>
    <path fill-rule="evenodd" clip-rule="evenodd" d="m132.865 140.856 1.654 5.806c.563 1.931 1.089 3.872 1.677 5.795.575 1.925 1.149 3.851 1.753 5.765.302.958.6 1.918.931 2.865.161.475.307.957.478 1.429.171.472.338.945.499 1.421l-.275.117a57.028 57.028 0 0 1-1.203-2.782c-.375-.939-.717-1.889-1.063-2.837a106.363 106.363 0 0 1-1.846-5.764c-.551-1.941-1.096-3.883-1.574-5.842a115.396 115.396 0 0 1-1.322-5.904l.291-.069z" fill="#102048"/>
    <path fill-rule="evenodd" clip-rule="evenodd" d="M156.699 217.179c5.25-1.054 12.887-7.564 12.028-11.68 7.54 2.489 9.593 6.271 9.608 8.71-1.055.298-2.352.474-3.925.474-1.309 0-2.809-.121-4.521-.393 0 0-8.083 2.074-13.19 2.889z" fill="#C47384"/>
    <path fill-rule="evenodd" clip-rule="evenodd" d="M151.639 217.712c-3.157-.225-7.136-1.876-9.247-4.234l-.016-.02a9.027 9.027 0 0 1-.618-.954 15.37 15.37 0 0 0 3.661 2.563c.661.314 1.329.616 2.028.827.34.13.695.207 1.046.306.348.108.71.151 1.069.215.797.135 1.607.208 2.418.208 2.092 0 4.186-.49 6.051-1.694-.974 1.202-2.425 2.017-3.948 2.428a10.74 10.74 0 0 1-2.444.355z" fill="#C37384"/>
    <path fill-rule="evenodd" clip-rule="evenodd" d="M142.988 56.671c-.07-.418-.266-.808-.497-1.164-.236-.352-.517-.68-.842-.91-.325-.229-.678-.343-.976-.181-.312.156-.56.536-.776.923l-.211-.074c.091-.454.258-.954.732-1.284.234-.163.554-.222.832-.171.28.05.524.17.73.32.413.305.715.7.934 1.132.213.43.367.916.298 1.414l-.224-.005z" fill="#E28B6D"/>
    <path fill-rule="evenodd" clip-rule="evenodd" d="M161.151 56.556c-.134.66-.63 1.116-1.108 1.019-.478-.098-.757-.713-.623-1.373.135-.66.631-1.117 1.109-1.02.478.098.757.713.622 1.374zM153.719 56.266c-.109.665-.587 1.141-1.068 1.062-.482-.078-.784-.682-.676-1.347.108-.665.586-1.14 1.068-1.062.481.079.784.682.676 1.347z" fill="#102048"/>
    <path fill-rule="evenodd" clip-rule="evenodd" d="M156.867 57.165c.045.544.067 1.084.073 1.614.021.203.115.376.284.56.163.183.373.374.555.64.091.132.163.3.198.464.038.164.043.327.032.488a1.606 1.606 0 0 1-.351.89c-.104.13-.242.237-.393.315-.156.067-.325.11-.487.103a1.575 1.575 0 0 1-.84-.305l.105-.198c.247.08.495.143.713.102a.7.7 0 0 0 .503-.325c.234-.35.268-.896.043-1.221-.118-.19-.313-.367-.498-.6-.187-.221-.366-.555-.353-.903.042-.556.108-1.1.193-1.643l.223.019z" fill="#E28B6D"/>
    <path fill-rule="evenodd" clip-rule="evenodd" d="M150.711 53.959a3.577 3.577 0 0 1 1.072-.739 2.831 2.831 0 0 1 1.329-.254c.465.027.922.2 1.285.472.367.27.65.62.859.997l-.177.138c-.316-.27-.62-.523-.953-.71a2.49 2.49 0 0 0-1.054-.327c-.74-.057-1.494.239-2.23.605l-.131-.182zM158.482 54.613c.127-.407.464-.729.837-.92a2.53 2.53 0 0 1 1.218-.273c.419.009.84.117 1.205.332.364.211.667.536.824.913l-.187.123a2.69 2.69 0 0 0-1.857-.797c-.676-.015-1.392.172-1.839.722l-.201-.1z" fill="#102048"/>
    <path fill-rule="evenodd" clip-rule="evenodd" d="m153.273 63.606 5.065.362s-2.825 3.759-5.065-.362z" fill="#fff"/>
    <path fill-rule="evenodd" clip-rule="evenodd" d="M161.409 63.854a2.933 2.933 0 0 1 1.642-5.557c-.367 1.9-.89 3.845-1.642 5.557zM150.162 63.47a2.932 2.932 0 0 1-2.928-2.935 2.932 2.932 0 0 1 2.928-2.936 2.932 2.932 0 0 1 2.927 2.936 2.932 2.932 0 0 1-2.927 2.936z" fill="#F59872"/>
    <path fill-rule="evenodd" clip-rule="evenodd" d="M108.988 54.73a20.065 20.065 0 0 0 5.166-13.47c0-11.104-8.975-20.106-20.047-20.106-11.071 0-20.046 9.002-20.046 20.106 0 11.104 8.975 20.106 20.046 20.106 2.564 0 5.013-.488 7.266-1.368l10.762 4.406-3.147-9.673z" fill="#fff"/>
    <path fill-rule="evenodd" clip-rule="evenodd" d="m108.985 54.73.199.18a20.333 20.333 0 0 0 5.235-13.65c0-11.253-9.095-20.375-20.314-20.375-11.22 0-20.314 9.122-20.314 20.375 0 11.252 9.095 20.373 20.314 20.374 2.598 0 5.08-.495 7.363-1.386l-.097-.25-.101.248 11.295 4.624-3.325-10.223-.255.083-.254.083 2.969 9.123-10.327-4.227-.099.039a19.66 19.66 0 0 1-7.17 1.35 19.688 19.688 0 0 1-13.985-5.811 19.803 19.803 0 0 1-5.793-14.027 19.804 19.804 0 0 1 5.793-14.028 19.687 19.687 0 0 1 13.986-5.81c5.463 0 10.406 2.22 13.986 5.81a19.803 19.803 0 0 1 5.793 14.028c0 5.114-1.929 9.772-5.097 13.29l-.104.116.048.147.254-.083z" fill="#EB5976"/>
    <path fill-rule="evenodd" clip-rule="evenodd" d="M87.303 41.745a2.144 2.144 0 0 1-2.14 2.147 2.144 2.144 0 0 1-2.141-2.147c0-1.186.958-2.147 2.14-2.147 1.182 0 2.14.961 2.14 2.147zM96.25 41.745a2.144 2.144 0 0 1-2.14 2.147 2.144 2.144 0 0 1-2.141-2.147c0-1.186.958-2.147 2.14-2.147 1.183 0 2.14.961 2.14 2.147zM105.199 41.745a2.144 2.144 0 0 1-2.141 2.147 2.143 2.143 0 0 1-2.14-2.147c0-1.186.958-2.147 2.14-2.147 1.183 0 2.141.961 2.141 2.147z" fill="#FFCED8"/>
    <path fill-rule="evenodd" clip-rule="evenodd" d="M160.244.268h-39.429c-2.236 0-4.065 1.835-4.065 4.077v16.97c0 2.243 1.829 4.078 4.065 4.078h3.641l5.918 8.921 1.76-8.921h28.11c2.236 0 4.066-1.835 4.066-4.078V4.345c0-2.242-1.83-4.077-4.066-4.077z" fill="#fff"/>
    <path fill-rule="evenodd" clip-rule="evenodd" d="M160.244.268V0h-39.429c-2.385 0-4.332 1.954-4.333 4.346v16.97c.001 2.392 1.948 4.344 4.333 4.345h3.498l6.197 9.343 1.843-9.343h27.891c2.385-.001 4.332-1.954 4.333-4.346V4.346c-.001-2.391-1.948-4.344-4.333-4.345v.536c1.044 0 1.993.428 2.682 1.12a3.8 3.8 0 0 1 1.116 2.69v16.97a3.799 3.799 0 0 1-1.116 2.69 3.779 3.779 0 0 1-2.682 1.119h-28.33l-1.676 8.5-5.639-8.5h-3.784a3.78 3.78 0 0 1-2.682-1.12 3.803 3.803 0 0 1-1.116-2.69V4.346c0-1.047.427-1.998 1.116-2.69a3.78 3.78 0 0 1 2.682-1.119h39.429V.268z" fill="#EB5976"/>
    <path fill-rule="evenodd" clip-rule="evenodd" d="M123.643 8.391h33.774V6.445h-33.774v1.946z" fill="#EB5976"/>
    <path fill-rule="evenodd" clip-rule="evenodd" d="M123.643 13.522h33.774v-1.946h-33.774v1.946zM123.643 18.653h33.774v-1.947h-33.774v1.947z" fill="#FFD5DD"/>
</svg>
