<svg xmlns="http://www.w3.org/2000/svg" id="Layer_1" data-name="Layer 1" viewBox="0 0 170 60"><defs><style>      .cls-1, .cls-2, .cls-3, .cls-4, .cls-5, .cls-6, .cls-7 {        stroke-width: 0px;      }      .cls-1, .cls-2, .cls-3, .cls-4, .cls-6, .cls-7 {        fill-rule: evenodd;      }      .cls-1, .cls-8 {        fill: #fff;      }      .cls-2 {        fill: #f8a600;      }      .cls-8 {        stroke: #231f20;        stroke-miterlimit: 10;        stroke-width: .3px;      }      .cls-3 {        fill: #a52081;      }      .cls-4 {        fill: #01161a;      }      .cls-9 {        fill: none;        stroke: #1b1918;        stroke-width: .2px;      }      .cls-5, .cls-7 {        fill: #1b1918;      }      .cls-6 {        fill: #e40049;      }    </style></defs><circle class="cls-8" cx="29.5" cy="30" r="27.5"></circle><rect class="cls-5" x="66.5" y="8.9" width="3.9" height="21.2"></rect><polygon class="cls-7" points="76.2 8.6 89.1 23.3 89.1 8.9 92.7 8.9 92.7 29.8 90.4 30.5 77.4 15.7 77.4 30.2 73.8 30.2 73.8 9.3 76.2 8.6"></polygon><path class="cls-7" d="M99.9,27c1.2.2,1.3.2,3,.2,2.7,0,4.9-.8,6.2-2.4,1.1-1.3,1.6-3,1.6-5s-1.6-5.5-3.9-6.7c-1.2-.6-2.5-.9-4-1-.5,0-1,0-1.5,0h-.7s-.3,0-.6,0v14.9ZM96,9c3-.2,3.7-.3,6.4-.3s4,.4,5.8,1c4.2,1.5,6.7,5.2,6.7,10.2s-1.8,6.7-4.5,8.5c-1,.7-2.2,1.1-3.8,1.5-1.2.2-3.1.4-4.1.4h-1.8c-1.7,0-2.7,0-4.7-.3V9Z"></path><rect class="cls-5" x="117.4" y="8.9" width="3.9" height="21.2"></rect><path class="cls-7" d="M140.9,14.2c-1.6-1.5-3.5-2.2-5.6-2.2s-4.2.9-5.5,2.6c-1,1.3-1.5,2.9-1.5,5.1s1.1,4.6,2.6,6c1.2,1,3.1,1.7,4.7,1.7s2.6-.1,3.9-.8v-4.5h-4.6l.3-3h8.2v9.3c-2.5,1.7-4.9,2.4-8.1,2.4-6.7,0-11.3-4.5-11.3-11.2s4.8-11.1,11.1-11.1,5.9.9,8.1,2.8l-2.4,2.9Z"></path><path class="cls-7" d="M151.5,14.4c-.9,1.3-1.4,2.8-1.4,4.9s.9,4.4,2.3,5.8c1.1,1.2,2.7,1.9,4.4,2,4.1.3,6.8-2.7,6.8-7.2s-3.1-8-7.1-8-3.9.9-5,2.5ZM167.9,19.6c0,6.6-4.5,11.1-11.1,11.1s-10.9-4.7-10.9-11.2,4.5-10.8,10.8-11.1c6.3-.3,11.2,4.6,11.2,11.2Z"></path><path class="cls-7" d="M68,44c.7,0,1.2,0,1.8,0,2.6,0,4.1-1.2,4.1-3.2s-1.4-3.1-4.1-3.1-.9,0-1.8,0v6.2ZM66.6,36.7c.4,0,.7,0,.9,0,.8,0,1.9-.1,2.3-.1,2,0,3.3.4,4.2,1.2.9.8,1.3,1.8,1.3,3.2s-.9,3-2.3,3.7c-.8.4-1.9.6-3.3.6s-1.1,0-1.8,0v6.3h-1.4v-14.7Z"></path><path class="cls-9" d="M68,44c.7,0,1.2,0,1.8,0,2.6,0,4.1-1.2,4.1-3.2s-1.4-3.1-4.1-3.1-.9,0-1.8,0v6.2ZM66.6,36.7c.4,0,.7,0,.9,0,.8,0,1.9-.1,2.3-.1,2,0,3.3.4,4.2,1.2.9.8,1.3,1.8,1.3,3.2s-.9,3-2.3,3.7c-.8.4-1.9.6-3.3.6s-1.1,0-1.8,0v6.3h-1.4v-14.7Z"></path><path class="cls-7" d="M88.8,40.1c-.3-.8-.5-1.2-.7-1.9-.2.6-.4,1.1-.7,1.9l-2,5h5.4l-2-5ZM91.3,46.2h-6.2l-2.1,5.2h-1.4l6.2-15.2h.8l6.2,15.2h-1.5l-2.1-5.2Z"></path><path class="cls-9" d="M88.8,40.1c-.3-.8-.5-1.2-.7-1.9-.2.6-.4,1.1-.7,1.9l-2,5h5.4l-2-5ZM91.3,46.2h-6.2l-2.1,5.2h-1.4l6.2-15.2h.8l6.2,15.2h-1.5l-2.1-5.2Z"></path><rect class="cls-5" x="104.7" y="36.6" width="1.4" height="14.8"></rect><rect class="cls-9" x="104.7" y="36.6" width="1.4" height="14.8"></rect><path class="cls-7" d="M117.7,36.4l7.8,9.3c1.8,2.2,1.2,1.5,2.6,3.3,0-1.5,0-1,0-1.5,0-.8,0-1.3,0-1.7v-9.2h1.2v14.7l-.7.2-7.8-9.4c-.2-.3-.7-.8-1.1-1.3-.4-.5-.8-1-1.6-2v.4c0,1,0,.6,0,1.1,0,.8,0,1.3,0,1.7v9.3h-1.2v-14.7l.8-.2Z"></path><path class="cls-9" d="M117.7,36.4l7.8,9.3c1.8,2.2,1.2,1.5,2.6,3.3,0-1.5,0-1,0-1.5,0-.8,0-1.3,0-1.7v-9.2h1.2v14.7l-.7.2-7.8-9.4c-.2-.3-.7-.8-1.1-1.3-.4-.5-.8-1-1.6-2v.4c0,1,0,.6,0,1.1,0,.8,0,1.3,0,1.7v9.3h-1.2v-14.7l.8-.2Z"></path><polygon class="cls-7" points="145.7 51.4 144.3 51.4 144.3 37.8 139 37.8 139 36.6 151 36.6 151 37.8 145.7 37.8 145.7 51.4"></polygon><polygon class="cls-9" points="145.7 51.4 144.3 51.4 144.3 37.8 139 37.8 139 36.6 151 36.6 151 37.8 145.7 37.8 145.7 51.4"></polygon><path class="cls-7" d="M166.9,38.8c-1.1-.9-2-1.3-3-1.3-1.5,0-2.6,1-2.7,2.4,0,.9.4,1.7,1.1,2.1.3.2.7.4,1.2.7l.5.2.5.2.4.2c1.4.7,2.1,1.2,2.5,1.9.4.7.5,1.3.5,2.2,0,2.4-1.9,4.2-4.6,4.2s-2.8-.4-4.2-1.6l.4-1.4c1.3,1.2,2.5,1.8,3.8,1.8,2,0,3.2-1.1,3.2-2.9s-.4-1.7-1-2.2c-.4-.3-.8-.5-1.3-.8l-1.4-.6c-2.2-1-3-2-3-3.9s1.8-3.9,4.1-3.9,2.6.5,3.6,1.3l-.6,1.2Z"></path><path class="cls-9" d="M166.9,38.8c-1.1-.9-2-1.3-3-1.3-1.5,0-2.6,1-2.7,2.4,0,.9.4,1.7,1.1,2.1.3.2.7.4,1.2.7l.5.2.5.2.4.2c1.4.7,2.1,1.2,2.5,1.9.4.7.5,1.3.5,2.2,0,2.4-1.9,4.2-4.6,4.2s-2.8-.4-4.2-1.6l.4-1.4c1.3,1.2,2.5,1.8,3.8,1.8,2,0,3.2-1.1,3.2-2.9s-.4-1.7-1-2.2c-.4-.3-.8-.5-1.3-.8l-1.4-.6c-2.2-1-3-2-3-3.9s1.8-3.9,4.1-3.9,2.6.5,3.6,1.3l-.6,1.2Z"></path><path class="cls-1" d="M29.5,57.5c-15.2,0-27.5-12.3-27.5-27.5S14.3,2.5,29.5,2.5s27.5,12.3,27.5,27.5-12.3,27.5-27.5,27.5Z"></path><path class="cls-4" d="M18.3,31.6s.3-2.6,2-2.1c0,0,1.2.2,1.6.2,0,0-.8,2.3-3.6,1.9Z"></path><path class="cls-4" d="M19.7,28.4c-.6.6.8-2.4.8-2.4.4-1,.2-1.8.2-1.8-.8.4-2.3,1.7-2.3,1.7-1.1-1.6-.2-4.9-.2-4.9,0,0,2.5.2,3.2,2,.3.6.4,1.3.2,2-.3,1-.4,1.8-.5,2.9,0,0-1.1.2-1.4.5Z"></path><path class="cls-4" d="M22,37.1c-3.6-1.4-5.3.9-7.4,2.6h0c.5-1.7,2.4-3.7,4.3-4.6,1.1-.5,2.1-.5,3.1.2,1,.7,1.5,2.1,1.9,3.2-.9-1-2-1.4-2-1.4ZM15.1,43.1c1.5-2.3,3.9-2.4,3.9-2.4,2.9,0,3.1,4,3.1,4l5.5-4.2c-.4-.7-.8-1.3-1.3-2-.7-1.1-1.4-2.2-1.9-3.4-.3-.8-.6-1.6-1.2-2.3-.2-.2-1.2-1.2-.6-1.3.7-.1,1.4,1.2,1.7,1.6.7.9,1.4,1.8,2,2.7,0,0,1.6,3.2,2.5,3.8l.7-.6s0-3.1-4.2-6.2c0,0-2.3-1.4-1.5-5l.3-1.2s2-8.4-3-10.1c0,0-1.9,2.1-2.2,2.8,0,0,3.7,1.7,3.2,5.2-.2,1.3,0,2.5,0,3.8.1.9.5,2-.2,2.8-.5.6-1.3,1.1-2.1,1.4-.4.2-.7.3-1.1.4-.7.2-1.4,1.1-1.7,1.7-.2-.5,0-1.9.1-2.7.5-1.7,2-3.2,2.1-5,0-.5.1-.9.2-1.4-.5.8-.9,1.6-1.4,2.4-.5.9-1,1.8-1.3,2.8-.1.4-.3.7-.4,1.1-.4,1.5-1,2.9-1.7,4.2-.4.8-1,1.5-1.4,2.2-.3.6-.7,1.2-1,1.8,0,.1-.2.3-.2.4,0,0-1.9,2.7-.6,5.4,1.7,3.4,4.2,2.6,4.2,2.6,2.2,1,3.8-1.2,3.8-1.2-2.9,1.1-3.5,0-3.5,0-1.1.6-2.3-.4-2.3-1,0,0,0,0,0,0,.2-.1.4-.3.5-.5.3-.4.3-.9,0-1.4-.1-.3-.3-.6-.5-.8-.2-.2-.4-.4-.4-.7,1.2-2.2,3.1-3.9,5.6-4.5,2-.5,3.8.8,4.1,2.8-1-1.1-2.4-1.9-3.9-1.7-.5,0-1,.3-1.5.5-.7.3-1.4.8-1.9,1.4-.9,1.2-.7,2-.7,2Z"></path><path class="cls-4" d="M16.8,42.8c-1,.5-1.7.5-1.7.5,0,1.3,2.1.6,2.1.6,2.5-.8,2.8,1.7,2.8,1.7,0,.2,0,.4,0,.6l1.5-1.2s-1-4.2-4.7-2.4Z"></path><path class="cls-4" d="M30.1,33.7c-.5-.8-1.1-1.5-1.7-2.2-.2-.3-.4-.5-.5-.8-.7-1.2-.9-2.5-.8-3.9.1-2.1,0-4.1.1-6.2.4-3.3,2.1-5.7,2.1-5.7-3.2-1-5.8.6-5.8.6.9.5,2,3.2,2,3.2.9,2,.3,4.7-.3,6.7-.3.9-.7,1.8-.7,2.8,0,.9.1,2.2.7,2.8l4,4.5s1.3,1.5,1.7,2.9l.7.2c-.2-1.7-.6-3.5-1.4-5Z"></path><path class="cls-6" d="M33.2,39.3l1.4,1.2s.5-6.1-1-8.3c-1.6-2.2-2.9-3.4-2-6,2.6-7.6,1.9-10.5,1.9-10.5,0,0-3-.5-3-.5-.2,0-.9,2.8-1,2.9-.6,2.3-1.1,4.6-1,7,0,1.1.1,2.1.3,3.1.2,1,.5,1.7,1.1,2.6,1.1,1.6,2.1,3.4,2.7,5.2.2.6.4,1.1.5,1.7,0,.2,0,1.5.1,1.6Z"></path><path class="cls-6" d="M53.9,32.9s-4.9,11.5-4.9,11.5c.4-1,.6-2.1.8-3.2.4-2.4.7-4.8.9-7.2.2-2.7,0-5.4.8-8,.1-.4,1.6-4.3,2.1-4,0,0,1.9,1,1.9,1,0,0-3.1,4.7-1.5,9.9Z"></path><path class="cls-3" d="M44.1,41.8c-1.9-6.2,2.6-9.6,2.6-9.6-.3,1.6-1.1,14.6-2.6,9.6ZM48.9,27.1c.4-2.4,1.7-3.9,2.7-6l-2.8-1.2c-.3.7-.6,1.3-.9,2-.5,1.2-1.1,2.4-1.5,3.7-.4,1.2-.8,2.3-1.4,3.4-.3.5-.7,1.1-1,1.6-.8,1.5-1.4,3-1.8,4.7-.3,1.3-.6,2.8-.6,4.1,0,1.6.4,3.2.7,4.8,0,0,.3,1.4,0,2l2.1,1.6s-.1-1.6,1.7-2.7c1.8-1.1,3.3-6.1,2.8-11.3-.2-2.2-.4-4.5,0-6.6Z"></path><path class="cls-2" d="M34.8,32.9c-.1-1.9.1-3.8.5-5.6.2-1,.3-2,.5-3.1.1-.8.3-1.7.7-2.3.1-.2.4-.4.6-.4.6.2.1,1.5,0,2-.4,1.1-.4,2.2-.6,3.3-.1,1-.4,2.1-.5,3.1-.2,1.4-.3,2.8-.3,4.2,0,1.4.3,2.9.4,4.4,0,1.2.2,2.5.6,3.6,0,0,2,1.5,2.8,2.1h.2c0,.1,0,0,0,0-.3-.9-.3-3.2-.4-3.7-.1-1.7-.1-3.4.3-5.1.4-1.6,1.2-3,2-4.5.5-.8.9-1.6,1.3-2.4.4-1,.8-2.1,1.3-3.1.9-2,2.1-4,2.3-6.3l-3.2-1.1c-.7,2.6-1.6,5.1-2.6,7.6-.7,1.8-1.6,3.5-2,5.4,0,.3-.4,2.7-1.1,2.6-.4,0-.2-1.3-.2-1.6.3-2.5,1.3-4.8,1.6-7.3.3-2.6.8-4.8,2.6-7.2l-3.6-.9s0,0,0,0h-.3c0,0-.3-.1-.3-.1h0s-2-.4-2-.4c.3,1-.2,2.4-.2,2.6-.4,1.8-1.4,3.4-1.8,5.2-.5,2-.7,4.1-.4,6.2,0,0,1.2,1.5,1.7,2.8Z"></path></svg>