<svg width="99" height="101" viewBox="0 0 99 101" fill="none" xmlns="http://www.w3.org/2000/svg">
    <path fill-rule="evenodd" clip-rule="evenodd" d="m81.687 68.525 1.567 5.966.002.002 6.524 24.83h.686l-3.771-20.6c-.003-.02-.01-.041-.013-.064l-1.865-10.188-3.13.054z" fill="#E8C6A7"/>
    <path fill-rule="evenodd" clip-rule="evenodd" d="m81.687 68.525 1.567 5.966.002.002c.09.044 2.943 1.526 3.426 4.166l-1.865-10.188-3.13.054z" fill="#C48E6A"/>
    <path fill-rule="evenodd" clip-rule="evenodd" d="M50.883 99.322h.686l5.315-20.226v-.004l1.208-4.6h.002l1.567-5.967-3.13-.054-1.865 10.188c-.004.022-.01.043-.013.063l-3.77 20.6z" fill="#E8C6A7"/>
    <path fill-rule="evenodd" clip-rule="evenodd" d="M55.464 74.296c.577.845 1.374 2.434 1.42 4.796l1.208-4.6h.002l1.567-5.967-3.13-.054-1.067 5.825z" fill="#C48E6A"/>
    <path fill-rule="evenodd" clip-rule="evenodd" d="M45.905 69.058h51.332a1.27 1.27 0 0 0 1.263-1.27v-3.693a1.27 1.27 0 0 0-1.263-1.27H45.905a1.27 1.27 0 0 0-1.264 1.27v3.693c0 .699.569 1.27 1.264 1.27z" fill="#EFCBAB"/>
    <path fill-rule="evenodd" clip-rule="evenodd" d="m81.72 40.971-3.402 1.81a1.217 1.217 0 0 0-.399.34c-2.15.2-5.35.442-8.182.44-2.47-.002-4.661-.19-5.63-.757-.816-.479-4.973-3.96-8.974-7.742-1.92-1.813-3.802-3.695-5.262-5.347-1.33-1.503-2.31-2.815-2.651-3.714a3.968 3.968 0 0 1-.26-1.497 4.277 4.277 0 0 1 1.125-2.842c.364-.39.796-.706 1.268-.939a4.469 4.469 0 0 1 3.242-.278 4.116 4.116 0 0 1 .856.359c.467.258.9.612 1.276 1.067.474.575.973 1.2 1.489 1.865.932 1.196 1.92 2.511 2.914 3.847 3.729 5.014 7.539 10.303 8.792 10.705 1.53.492 13.797 2.683 13.797 2.683z" fill="#ED985F"/>
    <path fill-rule="evenodd" clip-rule="evenodd" d="M79.344 37.135 79.932 53l.249 8.413a1.234 1.234 0 0 1-1.234 1.254h-.108a1.316 1.316 0 0 1-1.307-1.338l.433-11.181.493-13.016.886.003z" fill="#E8C6A7"/>
    <path fill-rule="evenodd" clip-rule="evenodd" d="m87.47 62.825-17.236-.047c.006-2.147 1.742-3.883 3.877-3.876l9.64.026c2.061.007 3.725 1.69 3.72 3.76v.137z" fill="#599DAD"/>
    <path fill-rule="evenodd" clip-rule="evenodd" d="m79.344 37.135.595 16.102c-.645-1.687-1.965-3.337-1.965-3.337l.484-12.768.886.003z" fill="#C48E6A"/>
    <path fill-rule="evenodd" clip-rule="evenodd" d="m89.945 46.675-21.662-.06a1.586 1.586 0 0 1-1.538-1.93l4.692-21.348a2.073 2.073 0 0 1 2.028-1.633l10.744.03 1.496.004a1.468 1.468 0 0 1 1.436 1.194l4.22 22.025c.171.893-.51 1.721-1.416 1.718z" fill="#6BB7BF"/>
    <path fill-rule="evenodd" clip-rule="evenodd" d="m90.059 46.675-22.23-.061a1.219 1.219 0 0 1-1.182-1.484l.767-3.489c13.52-5.513 16.247-16.121 16.795-19.907l1.46.004a1.513 1.513 0 0 1 1.478 1.23l4.235 22.1c.16.836-.477 1.61-1.323 1.608z" fill="#599DAD"/>
    <path fill-rule="evenodd" clip-rule="evenodd" d="M53.598 19.334s1.45 1.516 2.112 3.33c0 0-2.313 6.677-7.718 7.515 0 0 4.277-10.848 5.606-10.845z" fill="#EBF3FF"/>
    <path fill-rule="evenodd" clip-rule="evenodd" d="M57.786.072c.067-.27-5.857 2.692-6.157 3.027-2.779 3.098-1.987 7.14-.397 7.18 1.02.024.822 1.728.822 1.728l11.358-4.83S62.046-.84 57.787.072z" fill="#222"/>
    <path fill-rule="evenodd" clip-rule="evenodd" d="m45.298 96.874-2.458-.363s-8.265-6.602-9.496-18.921a22.158 22.158 0 0 1-.058-3.81.67.67 0 0 0-.086-.42l-.003-.004c-.264-.407-.922-1.429-1.814-2.88-.878-1.43-2.382-4.136-4.036-7.172-2.98-5.467-6.45-12.004-7.64-14.086-3.792-6.637-1.964-11.099-1.964-11.099s10.578-1.052 13.477-3.6l1.044 1.617s2.291 10.2 2.183 10.247l.344 1.06c1.809 5.61 3.89 12.625 5.024 18.337.637 3.215.975 6.015.793 7.923-.062.654.014 1.661.187 2.902 1.024 7.32 4.503 20.269 4.503 20.269z" fill="#2B478B"/>
    <path fill-rule="evenodd" clip-rule="evenodd" d="M50.454 100H40.199s-.246-1.572.29-2.763c.513-1.144 1.245-1.181.093-2.973.652.674 2.746.953 4.229.753.181.296 1.171 2.282 1.778 2.72.67.484 3.658.311 3.865 2.263zM34.791 47.442c-.896 4.966-3.011 13.232-7.444 15.862-2.98-5.467-6.45-12.004-7.64-14.086-3.792-6.637-1.964-11.099-1.964-11.099s10.578-1.052 13.477-3.6l1.044 1.617s2.291 10.2 2.183 10.247l.344 1.06z" fill="#233862"/>
    <path fill-rule="evenodd" clip-rule="evenodd" d="m27.6 38.886.034-1.928c-3.821.484-13.176-4.591-13.176-4.591S10.46 35.04 9.913 42.674c-.267 3.725-1.957 19.48-2.144 24.186a144.03 144.03 0 0 0-.098 3.41v.003a.669.669 0 0 1-.162.398 22.02 22.02 0 0 0-2.07 3.19C-.394 84.767 2.655 99.586 2.655 99.586l1.354-.346s4.93-15.363 8.153-22.007c.547-1.127 1.044-2.004 1.46-2.511 1.211-1.48 2.489-3.992 3.748-7.015 2.38-5.716 4.691-13.258 6.34-19.098.116.02 3.888-9.723 3.888-9.723z" fill="#2B478B"/>
    <path fill-rule="evenodd" clip-rule="evenodd" d="M49.961 26.018c-6.247-1.44-2.256-10.265-1.894-10.11.866-.177 2.767-1.705 4.467-4.689l.23.2 3.837 3.382s-.887 1.315-1.633 2.603c-.583 1.009-1.079 2.003-1 2.344.309.244-2.34 6.655-4.007 6.27z" fill="#FFB27D"/>
    <path fill-rule="evenodd" clip-rule="evenodd" d="M56.6 14.802s-.886 1.314-1.632 2.603c-2.386-1.478-2.388-4.447-2.205-5.984l3.838 3.381z" fill="#ED985F"/>
    <path fill-rule="evenodd" clip-rule="evenodd" d="M56.707 16.496s-5.792-3.24-3.73-6.835c2.063-3.595 2.705-6.434 6.49-4.518 3.785 1.917 3.71 3.702 3.312 5.07-.398 1.368-4.512 7.033-6.072 6.283z" fill="#FFB27D"/>
    <path fill-rule="evenodd" clip-rule="evenodd" d="M63.758 8.116c-.266-1.596-1.072-1.748-1.635-1.642-2.139-3.556-6.413-3.87-6.413-3.87-1.866 2.355-3.785 4.459-3.785 4.459s.672 1.257 3.441 2.035c.846.238 1.806.094 2.732-.22-1.921 1.077-3.93 1.49-3.93 1.49 3.649.335 7.121-3.018 7.481-3.377.169.52.464 1.608.287 2.403-.24 1.081-1.195 3.04-.612 3.293 0 0 2.832-2.177 2.434-4.57z" fill="#222"/>
    <path fill-rule="evenodd" clip-rule="evenodd" d="M10.811 100H.556s-.245-1.572.29-2.763c.513-1.144 1.317-1.664 1.125-3.047.651.673 1.713 1.43 3.196 1.23.182.294 1.172 1.879 1.78 2.316.67.485 3.658.312 3.864 2.264z" fill="#233862"/>
    <path fill-rule="evenodd" clip-rule="evenodd" d="M50.696 33.014c-1.32.463-3.171.716-5.066.923-2.696.296-5.48.498-6.939 1.083-.532.213-.887.477-.998.813-.633 1.91-4.256 5.597-4.256 5.597-17.856-.818-18.98-9.063-18.98-9.063 12.015-14.043 32.356-18.108 32.356-18.108s1.453-.619 5.112 2.304c2.442 1.952 2.12 2.7 2.12 2.7s.534 12.39-3.349 13.751z" fill="#fff"/>
    <path fill-rule="evenodd" clip-rule="evenodd" d="M50.059 33.202c-2.692.731-9.91 1.233-11.368 1.818-.596-8.953 5.008-14.566 5.008-14.566s5.77 9.36 6.36 12.748z" fill="#EBF3FF"/>
    <path fill-rule="evenodd" clip-rule="evenodd" d="M45.742 18.195s-5.113 4.492-3.003 8.402c2.11 3.909 18.215 14.444 19.975 15.182 3.202 1.343 16.153-1.108 16.153-1.108l-1.033-1.904s-10.098-1.941-11.765-2.241c-2.617-.471-17.58-18.423-20.327-18.331z" fill="#FFB27D"/>
    <path fill-rule="evenodd" clip-rule="evenodd" d="M44.433 28.644c.072.072 6.257-1.98 8.334-5.98 0 0-4.667-8.055-8.265-4.855-3.599 3.2-5.027 6.084-3.796 8.026 1.23 1.943 3.727 2.81 3.727 2.81z" fill="#fff"/>
    <path fill-rule="evenodd" clip-rule="evenodd" d="M83.779 39.372c-.122.69-.787 1.428-2.119 1.918-.513.187-1.182.164-1.844.047-1.35-.237-2.688-.861-2.688-.861.199-.852.307-1.503.675-1.827.188-.167.441-.246.808-.227 0 0 2.539.787 3.435.784.67-.001 1.748.079 1.733.166z" fill="#FFB27D"/>
    <path fill-rule="evenodd" clip-rule="evenodd" d="M78.053 38.5s2.08-.877 2.463-1.118c0 0 .186.576-.15.893-.298.28-1.558 1.066-1.558 1.066l-.755-.84z" fill="#FFB27D"/>
    <path d="M.5 100h98" stroke="#1C2F59"/>
</svg>
