<svg width="135" height="101" viewBox="0 0 135 101" fill="none" xmlns="http://www.w3.org/2000/svg">
    <path fill-rule="evenodd" clip-rule="evenodd" d="m33.063 99.775.055-.001c.445-.008.789-.377.747-.802l-2.969-30.078-2.59.235 4.263 30.239a.483.483 0 0 0 .494.407zM4.483 99.775l-.055-.001c-.445-.008-.788-.377-.746-.802L6.65 68.894l2.59.235-4.262 30.239a.484.484 0 0 1-.495.407zM54.003 99.775l.055-.001c.445-.008.788-.377.746-.802l-2.968-30.078-2.59.235 4.262 30.239a.483.483 0 0 0 .495.407zM5.366 64.52.098 38.12c-.677-3.575 2.243-6.843 6.033-6.755l10.161.235c3.505.081 6.553 2.462 7.527 5.88l7.709 27.04H5.366z" fill="#8CB4F4"/>
    <path fill-rule="evenodd" clip-rule="evenodd" d="m8.554 64.52-5.268-26.4c-.677-3.575 2.242-6.843 6.032-6.755l10.162.235c3.505.081 6.553 2.462 7.527 5.88l7.708 27.04H8.555zM6.835 69.335h40.201c.808 0 1.469-.67 1.469-1.49V66.01c0-.82-.66-1.49-1.469-1.49H5.366v3.325c0 .82.661 1.49 1.469 1.49z" fill="#8CB4F4"/>
    <path fill-rule="evenodd" clip-rule="evenodd" d="M25.7 69.335h25.628c.65 0 1.183-.541 1.183-1.201v-2.415c0-.66-.533-1.2-1.183-1.2H25.7c-.65 0-1.183.54-1.183 1.2v2.415c0 .66.533 1.2 1.183 1.2z" fill="#8CB4F4"/>
    <path fill-rule="evenodd" clip-rule="evenodd" d="M40.388 58.994c-2.175 3.842-4.91 5.324-4.91 5.324h-11.38s17.95-8.253 16.29-5.324z" fill="#233862"/>
    <path fill-rule="evenodd" clip-rule="evenodd" d="M54.423 97.151c-.122 1.212 1.538 1.525 3.464 1.644 1.926.117 1.34.512 3.976 1.026s3.702-.208 3.897-.568c.173-.319-1.05-.835-2.352-1.417a44.442 44.442 0 0 1-.492-.223c-1.466-.673-2.278-2.021-3.413-3.276-1.075-1.19-2.068-4.968-2.068-4.968l-3.58-.817s.971 3.402 1.306 4.854c.197.854-.117 1.802-.394 2.524-.15.393-.3.795-.344 1.221z" fill="#FFB27D"/>
    <path fill-rule="evenodd" clip-rule="evenodd" d="M57.887 98.795c1.926.118 1.34.512 3.976 1.026s3.702-.207 3.897-.567c.173-.32-1.05-.835-2.352-1.418l-.02.023s-1.864.619-4.001.005c-1.742-.5-3.42-1.579-4.62-1.934-.15.393-.3.795-.344 1.222-.122 1.211 1.538 1.524 3.464 1.643z" fill="#0F2549"/>
    <path fill-rule="evenodd" clip-rule="evenodd" d="M48.999 55.06c-1.927-1.372-14.672-3.82-21.176-4.527L20.635 44.2s-6.12 9.196-6.168 16.231c-.022 3.28 1.467 3.606 1.467 3.607 0 0 23.045.174 24.056.279 1.653.173 3.833 4.353 4.379 8.16.545 3.806 10.155 19.289 10.155 19.289s2.004.652 2.93.597c.997-.06 1.459-.4 1.459-.4s-5.57-33.807-9.914-36.904z" fill="#233862"/>
    <path fill-rule="evenodd" clip-rule="evenodd" d="M48.463 97.151c-.122 1.212 1.538 1.525 3.464 1.644 1.926.117 1.34.512 3.976 1.026 2.635.514 3.702-.208 3.896-.568.174-.319-1.049-.835-2.351-1.417a44.442 44.442 0 0 1-.492-.223c-1.466-.673-2.278-2.021-3.413-3.276-1.075-1.19-2.068-4.968-2.068-4.968l-3.58-.817s.971 3.402 1.305 4.854c.197.854-.117 1.802-.393 2.524-.15.393-.3.795-.344 1.221z" fill="#FFB27D"/>
    <path fill-rule="evenodd" clip-rule="evenodd" d="M51.927 98.795c1.926.118 1.34.512 3.975 1.026 2.636.514 3.702-.207 3.897-.567.174-.32-1.05-.835-2.352-1.418l-.02.023s-1.864.619-4 .005c-1.743-.5-3.42-1.579-4.62-1.934-.15.393-.3.795-.344 1.222-.123 1.211 1.538 1.524 3.464 1.643z" fill="#233862"/>
    <path fill-rule="evenodd" clip-rule="evenodd" d="M42.986 55.06c-1.674-1.192-6.709-2.117-12.266-2.802a3.757 3.757 0 0 1-3.173-2.847L14.621 44.2s-6.119 9.196-6.168 16.231c-.022 3.28 1.467 3.606 1.467 3.607 0 0 23.046.174 24.056.279 1.653.173 3.835 4.353 4.38 8.16.544 3.806 10.154 19.289 10.154 19.289s2.005.652 2.93.597c.998-.06 1.459-.4 1.459-.4S47.33 58.158 42.986 55.06z" fill="#2B478B"/>
    <path fill-rule="evenodd" clip-rule="evenodd" d="M25.69 5.994c-1.777-.947-4.48-1.075-4.919-1.135-5.254-.716-8.416 7.03-8.603 9.378-.342 4.327-2.598 4.987-5.773 7.696-6.367 5.433-4.5 11.747-1.018 14.093 2.088 1.407 5.77 0 5.77 0 .052.036 10.07-5.682 15.006-8.44 7.403-1.069 4.063-19.18-.463-21.592z" fill="#222"/>
    <path fill-rule="evenodd" clip-rule="evenodd" d="M24.593 24.92c.024.012-2.335 1.1-4.036.53-1.602-.536-3.012-2.982-2.99-2.985.696-.103 1.402-.798 1.6-4.92l.307.078 5.174 1.327s-.204 1.663-.29 3.236c-.07 1.32-.055 2.577.235 2.734z" fill="#FFB27D"/>
    <path fill-rule="evenodd" clip-rule="evenodd" d="M24.649 18.95s0 .343-.194 1.89c-2.926-.749-4.216-1.733-5.126-2.86l5.32.97z" fill="#ED975D"/>
    <path fill-rule="evenodd" clip-rule="evenodd" d="M25.753 19.16s-6.843 1.13-7.47-3.204c-.63-4.334-1.936-7.107 2.407-8.012 4.342-.905 5.432.622 5.989 2.017.556 1.395.837 8.793-.926 9.2z" fill="#FFB27D"/>
    <path fill-rule="evenodd" clip-rule="evenodd" d="M25.759 7.762s-3.107 4.977-5.881 6.155c-2.775 1.18-4.137.58-4.137.58s1.262-1.94 1.59-4.548a2.13 2.13 0 0 1 1.3-1.715c1.99-.809 5.84-2.084 7.128-.472z" fill="#222"/>
    <path fill-rule="evenodd" clip-rule="evenodd" d="M23.03 8.243s1.821.948 2.571 1.835c.724.857 1.56 3.182 1.5 4.226 0 0 .899-5.003-.973-6.723-1.984-1.824-3.098.662-3.098.662z" fill="#222"/>
    <path fill-rule="evenodd" clip-rule="evenodd" d="M30.067 35.509C29.86 49.62 30.01 46.67 28.488 48.01c-.366.322-1.396.514-2.753.605-4.265.287-11.761-.425-12.046-1.225-.985-2.767-.29-3.627-1.11-7.863-.086-.45-.192-.938-.316-1.47-.685-2.909-1.35-3.899 1.077-8.573 2.202-4.234 4.791-7.674 4.997-7.55 5.808 3.499 6.007.566 6.007.566s5.825 6.124 5.723 13.008z" fill="#fff"/>
    <path fill-rule="evenodd" clip-rule="evenodd" d="M24.344 22.5s5.945 1.023 6.647 3.634l4.832 17.96s-3.038.555-4.442-.87c-1.404-1.424-4.884-13.213-4.884-13.213l-2.153-7.51z" fill="#fff"/>
    <path fill-rule="evenodd" clip-rule="evenodd" d="M25.735 48.616c-4.264.287-11.76-.425-12.046-1.225-.984-2.767-.29-3.627-1.11-7.863l2.057-5.877s-.34 6.545 1.562 8.266c1.9 1.721 7.788 3.323 8.713 4.76.446.691.739 1.383.824 1.939z" fill="#EBF3FF"/>
    <path fill-rule="evenodd" clip-rule="evenodd" d="M20.85 45.864s4.206-.95 4.885-.572c.679.379 2.339 1.759 2.546 2.239.207.48-1.511-.365-2.07-.517-.363-.099-1.316.238-1.788.398-1.985.67-3.202.325-3.202.325l-.372-1.873z" fill="#FFB27D"/>
    <path fill-rule="evenodd" clip-rule="evenodd" d="M18.337 21.935s-5.955.353-7.911 3.121c-2.753 3.896-8.214 20.5-5.084 22.714 3.525 2.494 16.042.652 16.042.652s.417-1.975-.163-2.93c-.58-.956-9.998-2.5-10.432-2.94-.435-.442 5.433-8.601 5.433-9.925 0-1.323 2.114-10.692 2.114-10.692z" fill="#fff"/>
    <path fill-rule="evenodd" clip-rule="evenodd" d="M25.94 46.48s.88 1.153 1.17 1.291c.289.138.475.104.475.104l-.594-1.085-1.052-.31zM25.735 45.292l2.564 1.263s-.11.181-.425.166c-.315-.014-1.111-.31-1.111-.31l-1.028-1.119z" fill="#FFB27D"/>
    <path fill-rule="evenodd" clip-rule="evenodd" d="M35.177 48.285H23.273c0-.531.425-.962.95-.962h10.954v.962z" fill="#ED7D2B"/>
    <path fill-rule="evenodd" clip-rule="evenodd" d="M35.143 35.131h18.404l-4.414 13.154H30.608l4.534-13.154z" fill="#ED7D2B"/>
    <path fill-rule="evenodd" clip-rule="evenodd" d="m53.819 35.131-4.415 13.154H30.88l4.534-13.154h18.404z" fill="#F99746"/>
    <path fill-rule="evenodd" clip-rule="evenodd" d="M43.895 41.587c-.113.503-.608.91-1.104.91-.494 0-.803-.407-.689-.91.114-.503.609-.91 1.103-.91.496 0 .805.407.69.91z" fill="#fff"/>
    <path fill-rule="evenodd" clip-rule="evenodd" d="M19.047 51.245h66.026c.278 0 .503-.279.503-.623v-1.714c0-.343-.225-.623-.503-.623H19.047c-.277 0-.503.28-.503.623v1.714c0 .344.226.623.503.623z" fill="#182D4F"/>
    <path fill-rule="evenodd" clip-rule="evenodd" d="m86.096 99.995.035-.004a.75.75 0 0 0 .654-.836l-7.188-49.363-2.63.076 8.455 49.63a.607.607 0 0 0 .674.497zM16.458 99.995l-.034-.004a.75.75 0 0 1-.654-.836l7.187-49.363 2.631.076-8.456 49.63a.606.606 0 0 1-.674.497zM33.097 99.995l-.035-.004a.75.75 0 0 1-.653-.836l7.187-49.363 2.631.076-8.456 49.63a.607.607 0 0 1-.674.497z" fill="#182D4F"/>
    <path fill-rule="evenodd" clip-rule="evenodd" d="M72.556 99.955H86.82c.686-.849.433-3.983.33-5.006l-.037-.326s-4.87-3.953-5.54-.927a4 4 0 0 1-.071.28c-.843 2.83-4.624 4.117-6.807 4.475-1.42.234-1.943.982-2.138 1.504z" fill="#233862"/>
    <path fill-rule="evenodd" clip-rule="evenodd" d="M111.473 52.934c-.516 0-24.43 4.555-28.386 9.524-1.977 2.482-2.27 31.148-2.27 31.148s2.445 3.075 7.725 1.289c0 0 3.87-19.612 3.585-25.56-.08-1.645 16.34-.239 19.346-1.028 3.005-.789 10.348-7.422 8.729-10.653-1.618-3.232-8.729-4.72-8.729-4.72z" fill="#233862"/>
    <path fill-rule="evenodd" clip-rule="evenodd" d="M83.189 45.914s-4.824.066-5.965.563c-1.14.495-3.455 1.634-2.836 1.809.62.174 3.575-.072 4.213.027.64.1 1.426-.027 1.817-.027h2.216l.555-2.372zM77.55 34.168s-1.645-1.193-3.243-1.424c-.91-.132-1.796-.297-2.331-.488-1.474-.527-4.423-3.217-4.2-3.533.715-1.011 4.158 1.129 4.759.9.601-.23-1.155-1.497-.544-1.943.318-.233 1.064.934 1.675 1.05.825.16 1.47 1.342 1.719 1.403.483.12 2.6 1.719 2.6 1.719l-.436 2.316z" fill="#FFB27D"/>
    <path fill-rule="evenodd" clip-rule="evenodd" d="M109.091 20.241s-3.672 1.155-7.29 11.264c-3.618 10.11-4.993 10.655-6.308 11.052-1.315.396-12.859 2.728-12.859 2.728v3h17.787s6.67-6.437 8.67-10.77c1.999-4.334 0-17.274 0-17.274z" fill="#DF3F5E"/>
    <path fill-rule="evenodd" clip-rule="evenodd" d="M66.254 99.955h14.262c.686-.849.433-3.983.33-5.006l-.036-.326s-4.871-3.953-5.54-.927c-.02.095-.045.188-.072.28-.843 2.83-4.623 4.117-6.806 4.475-1.42.234-1.944.982-2.138 1.504z" fill="#1B3051"/>
    <path fill-rule="evenodd" clip-rule="evenodd" d="M104.425 52.934c-.515 0-24.43 4.555-28.385 9.524-1.977 2.482-2.271 31.148-2.271 31.148s2.445 3.075 7.725 1.289c0 0 3.872-19.612 3.586-25.56-.08-1.645 16.34-.239 19.345-1.028 3.005-.789 10.348-7.422 8.73-10.653-1.618-3.232-8.73-4.72-8.73-4.72z" fill="#2B478B"/>
    <path fill-rule="evenodd" clip-rule="evenodd" d="M105.923 23.445c1.72-.144 3.524-.61 5.082-1.122 1.949-.642 3.521-1.58 2.508-3.387-.933-1.666-2.443-5.387-2.341-8.47l-6.089 4.98s.01 1.187.279 3.268c.049.38.106.789.174 1.226a.895.895 0 0 1-.46.93c-1.224.781-.595 2.696.847 2.575z" fill="#FFB27D"/>
    <path fill-rule="evenodd" clip-rule="evenodd" d="M105.083 14.956s-.127.43.09 2.023c2.196-.364 4.249-2.14 4.249-2.14-1.118-.312-1.525-1.538-2.357-1.424l-1.982 1.54z" fill="#ED975D"/>
    <path fill-rule="evenodd" clip-rule="evenodd" d="M103.051 15.319s8.447 1.423 9.24-3.928c.793-5.351 2.417-8.772-2.943-9.907-5.36-1.136-6.712.746-7.405 2.467-.694 1.721-1.07 10.86 1.108 11.367z" fill="#FFB27D"/>
    <path fill-rule="evenodd" clip-rule="evenodd" d="M100.7 1.583c-.363 1.289.608 2.858 2.238 3.375 2.419.767 1.885 3.778 2.973 3.737 1.088-.04 1.528-1.73 2.5-.38.83 1.151-.69 2.516-.586 3.148.18 1.084 1.853 3.302 3.361 3.19 1.509-.11 4.332-7.384 3.766-9.633-.564-2.25-2.822-4.623-4.958-4.95-2.137-.328-5.105.608-5.79.608-.685 0-3.308.21-3.504.905z" fill="#222"/>
    <path fill-rule="evenodd" clip-rule="evenodd" d="M120.315 27.669c-1.221-4.987-4.596-10.219-6.878-10.214-3.887.007-9.477 1.048-11.734 6.697-1.662 4.16-3.879 28.092-1.373 29.794 5.727 3.89 19.004 11.834 21.362 3.733 2.162-7.42.742-21.357-1.377-30.01z" fill="#EB5976"/>
    <path fill-rule="evenodd" clip-rule="evenodd" d="M110.872 22.707c-1.109-2.928-4.687-3.94-7.127-2.014-1.32 1.041-2.935 2.525-4.887 4.634-7.257 7.84-8.731 7.791-10.094 7.63-1.363-.162-12.877-2.642-12.877-2.642s-.59.441-.936 1.155c-.464.952-.23 1.602-.23 1.602-.452-.296 4.08 2.874 6.337 4.138 2.98 1.669 7.468 3.234 9.257 3.828.506.169 1.053.16 1.554-.023 2.654-.97 11.567-4.507 18.822-10.645 1.911-1.617 1.209-4.949.181-7.663z" fill="#EB5976"/>
    <path fill-rule="evenodd" clip-rule="evenodd" d="m113.829 17.503-.88-2.013s-7.879.652-9.204 5.203c0 0 6.108-3.093 10.084-3.19z" fill="#fff"/>
    <path fill-rule="evenodd" clip-rule="evenodd" d="m132.96 99.775.054-.001c.445-.008.788-.377.746-.802l-2.967-30.078-2.59.235 4.261 30.239a.485.485 0 0 0 .496.407zM117.682 99.775l.054-.001c.445-.008.789-.377.747-.802l-2.968-30.078-2.59.235 4.262 30.239a.483.483 0 0 0 .495.407z" fill="#8CB4F4"/>
    <path fill-rule="evenodd" clip-rule="evenodd" d="m89 99.775-.054-.001c-.445-.008-.788-.377-.746-.802l2.967-30.078 2.59.235-4.261 30.239a.484.484 0 0 1-.496.407z" fill="#73A2E5"/>
    <path fill-rule="evenodd" clip-rule="evenodd" d="m132.121 64.634 2.817-25.121c.369-3.62-.824-7.165-5.973-7.44l-9.058-.56c-5.368-.224-7.792 4.31-8.472 7.8l-5.378 27.614 26.064-2.293z" fill="#8CB4F4"/>
    <path fill-rule="evenodd" clip-rule="evenodd" d="M130.607 69.334h-40.2c-.808 0-1.47-.67-1.47-1.49V66.01c0-.82.662-1.49 1.47-1.49h41.668v3.324c0 .82-.66 1.49-1.468 1.49z" fill="#73A2E5"/>
    <path fill-rule="evenodd" clip-rule="evenodd" d="M130.935 69.334h-23.737a1.153 1.153 0 0 1-1.141-1.157v-2.5c0-.637.514-1.157 1.141-1.157h24.877v3.657c0 .636-.513 1.157-1.14 1.157z" fill="#8CB4F4"/>
    <path d="M0 100h135" stroke="#1C2F59"/>
</svg>
