<svg width="151" height="101" viewBox="0 0 151 101" fill="none" xmlns="http://www.w3.org/2000/svg">
    <path fill-rule="evenodd" clip-rule="evenodd" d="M109.315 82.833h-38.8c-1.217 0-2.213-1.004-2.213-2.234V2.234c0-1.228.996-2.234 2.212-2.234h38.801c1.216 0 2.212 1.006 2.212 2.234V80.6c0 1.23-.996 2.234-2.212 2.234z" fill="#78ACEA"/>
    <path fill-rule="evenodd" clip-rule="evenodd" d="M113.811 2.234V80.6c0 1.228-.995 2.233-2.212 2.233h-38.8c-1.217 0-2.212-1.005-2.212-2.233V2.234c0-1.229.995-2.234 2.212-2.234h38.8c1.217 0 2.212 1.005 2.212 2.234z" fill="#AFCDFB"/>
    <path fill-rule="evenodd" clip-rule="evenodd" d="M98.533 3.136H87.297a.44.44 0 0 1-.437-.442.44.44 0 0 1 .437-.441h11.236a.44.44 0 0 1 .437.441.44.44 0 0 1-.437.442zM85.302 3.136a.44.44 0 0 1-.437-.442.44.44 0 0 1 .437-.441.44.44 0 0 1 0 .883z" fill="#8FB5EF"/>
    <path fill-rule="evenodd" clip-rule="evenodd" d="M95.554 78.257c0 .781-.312 1.49-.818 2.004-.51.521-1.22.843-2.002.843-1.557 0-2.82-1.275-2.82-2.847 0-1.012.522-1.9 1.309-2.404a2.782 2.782 0 0 1 1.51-.444c1.558 0 2.821 1.275 2.821 2.847zM73.175 74.008h38.33V5.103h-38.33v68.905z" fill="#95C0F4"/>
    <path fill-rule="evenodd" clip-rule="evenodd" d="M94.736 80.26c-.51.522-1.22.844-2.002.844-1.557 0-2.82-1.275-2.82-2.847 0-1.012.522-1.9 1.309-2.404.276 1.212 1.096 3.24 3.513 4.408z" fill="#8CBAF1"/>
    <path fill-rule="evenodd" clip-rule="evenodd" d="M110.983 37.785H75.312c-.303 0-.551-.325-.551-.721V14.03c0-.397.248-.721.55-.721h35.672c.304 0 .551.324.551.72v23.034c0 .396-.247.72-.551.72z" fill="#7BAEEB"/>
    <path fill-rule="evenodd" clip-rule="evenodd" d="M70.587 65.799h-.752c-.237 0-.43-.325-.43-.72V42.045c0-.397.193-.722.43-.722h.752V65.8z" fill="#78ACEA"/>
    <path fill-rule="evenodd" clip-rule="evenodd" d="M74.76 65.68V41.481c0-.076.062-.138.137-.138h24.334c.236 0 .43.325.43.722v23.034c0 .395-.194.72-.43.72H74.897a.137.137 0 0 1-.136-.139z" fill="#7BAEEB"/>
    <path fill-rule="evenodd" clip-rule="evenodd" d="M118.358 11.988V35.02c0 .396-.28.72-.622.72H77.522c-.342 0-.62-.324-.62-.72V11.988c0-.398.278-.722.62-.722h40.214c.342 0 .622.324.622.722z" fill="#fff"/>
    <path fill-rule="evenodd" clip-rule="evenodd" d="M118.383 11.988V35.02c0 .396-.08.72-.177.72h-4.895V11.266h4.895c.097 0 .177.325.177.722z" fill="#CCE1FF"/>
    <path fill-rule="evenodd" clip-rule="evenodd" d="M118.383 40.277V63.31c0 .397-.28.72-.622.72H77.548c-.342 0-.622-.323-.622-.72V40.277c0-.397.28-.72.622-.72h40.213c.342 0 .622.323.622.72z" fill="#fff"/>
    <path fill-rule="evenodd" clip-rule="evenodd" d="M118.383 40.276V63.31c0 .398-.078.722-.172.722h-4.944V39.555h4.944c.094 0 .172.325.172.721z" fill="#CCE1FF"/>
    <path d="M86.54 21.443v5.06h-.83v-3.268c0-.131.007-.272.021-.424l-1.53 2.874a.353.353 0 0 1-.332.206h-.133a.354.354 0 0 1-.332-.206L81.857 22.8c.007.077.013.152.017.227.005.075.007.144.007.207v3.269h-.83v-5.061h.711c.042 0 .078 0 .109.003.03.002.057.008.08.018a.16.16 0 0 1 .067.045c.02.021.04.05.06.084l1.515 2.81a5.837 5.837 0 0 1 .21.476 5.028 5.028 0 0 1 .213-.482l1.495-2.804a.354.354 0 0 1 .06-.084.2.2 0 0 1 .066-.045.316.316 0 0 1 .084-.018 1.46 1.46 0 0 1 .108-.003h.71zM90.343 24.593l-.616-1.684a3.717 3.717 0 0 1-.095-.266 8.683 8.683 0 0 1-.098-.332c-.03.119-.062.23-.094.336a4.34 4.34 0 0 1-.095.27l-.612 1.676h1.61zm1.662 1.91h-.728a.317.317 0 0 1-.2-.059.396.396 0 0 1-.115-.154l-.378-1.032h-2.096l-.378 1.032a.335.335 0 0 1-.109.147.303.303 0 0 1-.2.067h-.734l1.991-5.061h.96l1.987 5.06zM95.572 22.216h-1.526v4.288h-.942v-4.288H91.58v-.773h3.993v.773zM97.18 22.192v1.403h1.77v.725h-1.77v1.431h2.246v.753h-3.192v-5.061h3.192v.749H97.18zM101.79 23.85c.177 0 .331-.022.462-.066a.893.893 0 0 0 .326-.182.747.747 0 0 0 .192-.28.962.962 0 0 0 .063-.353c0-.257-.085-.454-.255-.592-.168-.137-.426-.206-.774-.206h-.602v1.68h.588zm2.422 2.654h-.85c-.161 0-.278-.063-.35-.19l-1.064-1.62a.37.37 0 0 0-.133-.13.45.45 0 0 0-.21-.038h-.403v1.978h-.941v-5.061h1.543c.343 0 .637.036.882.108.247.07.449.17.606.298.158.128.275.282.35.462.074.177.112.373.112.588 0 .17-.026.331-.077.483a1.36 1.36 0 0 1-.217.413 1.43 1.43 0 0 1-.35.325 1.742 1.742 0 0 1-.473.22.858.858 0 0 1 .168.127.85.85 0 0 1 .14.168l1.267 1.869zM105.704 26.504h-.945v-5.061h.945v5.06zM109.511 24.593l-.616-1.684a3.513 3.513 0 0 1-.095-.266 10.964 10.964 0 0 1-.098-.332c-.03.119-.062.23-.094.336a4.072 4.072 0 0 1-.095.27l-.612 1.676h1.61zm1.662 1.91h-.728a.316.316 0 0 1-.199-.059.393.393 0 0 1-.116-.154l-.378-1.032h-2.096l-.378 1.032a.337.337 0 0 1-.109.147.301.301 0 0 1-.199.067h-.735l1.991-5.061h.959l1.988 5.06zM114.662 25.727v.777h-2.965v-5.061h.942v4.284h2.023zM87.788 50.481v1.498h1.897v.753h-1.897v2.062h-.945v-5.061h3.192v.748h-2.247zM91.753 54.794h-.945v-5.061h.945v5.06zM97.153 49.733v5.06h-.484a.456.456 0 0 1-.188-.035.47.47 0 0 1-.144-.126l-2.642-3.373c.014.154.02.296.02.426v3.108h-.829v-5.06h.493c.04 0 .074.002.102.007.03.002.056.009.077.02a.2.2 0 0 1 .066.046.596.596 0 0 1 .07.077l2.653 3.388a9.216 9.216 0 0 1-.017-.242 3.747 3.747 0 0 1-.007-.22v-3.076h.83zM99.225 54.794h-.945v-5.061h.945v5.06zM103.053 50.653a.343.343 0 0 1-.091.108.2.2 0 0 1-.116.032.317.317 0 0 1-.161-.053 3.12 3.12 0 0 0-.203-.122 1.573 1.573 0 0 0-.28-.119 1.118 1.118 0 0 0-.374-.056c-.131 0-.245.016-.343.049a.722.722 0 0 0-.249.13.536.536 0 0 0-.147.203.642.642 0 0 0-.049.255c0 .119.033.218.098.297.068.08.156.148.266.203.11.056.235.107.375.151s.283.092.43.143c.147.05.291.108.431.175.14.066.264.15.374.252.11.1.197.224.263.371.067.148.101.326.101.536 0 .229-.04.443-.119.644a1.467 1.467 0 0 1-.343.522 1.627 1.627 0 0 1-.549.35 2.057 2.057 0 0 1-.746.126c-.161 0-.32-.017-.476-.05a2.45 2.45 0 0 1-.854-.342 1.943 1.943 0 0 1-.336-.273l.277-.452a.266.266 0 0 1 .091-.08.22.22 0 0 1 .119-.035.33.33 0 0 1 .189.073c.067.047.148.1.241.157.093.059.202.113.326.162a1.3 1.3 0 0 0 .451.07c.268 0 .476-.063.623-.19.147-.128.221-.311.221-.549a.501.501 0 0 0-.102-.325.77.77 0 0 0-.262-.21 1.903 1.903 0 0 0-.375-.148c-.14-.04-.282-.082-.427-.129a3.67 3.67 0 0 1-.427-.168 1.372 1.372 0 0 1-.374-.255 1.173 1.173 0 0 1-.266-.392 1.525 1.525 0 0 1-.098-.585c0-.184.036-.364.108-.539.075-.175.182-.33.322-.466a1.57 1.57 0 0 1 .518-.325 1.9 1.9 0 0 1 .707-.123c.299 0 .574.047.826.14.252.094.467.224.644.392l-.234.445zM108.466 49.733v5.06h-.945v-2.212h-2.377v2.212h-.945v-5.06h.945v2.177h2.377v-2.177h.945z" fill="#4A83C8"/>
    <path fill-rule="evenodd" clip-rule="evenodd" d="M20.785 66.36c-.194-4.82-.613-9.011-1.113-11.935-.798-4.66-1.517-7.341-1.525-7.37-.105-.41-1.623-2.068-5-2.016-3.376.05-3.056 2.225-3.056 2.225 0 .074.01.142.025.194.032.112 3.131 11.46 2.997 26.114-.002.206-.025.561-.01.798 0 0 7.824.204 7.825 0 .273-1.28.14-4.83-.143-8.01z" fill="#B7D3F3"/>
    <path fill-rule="evenodd" clip-rule="evenodd" d="M21.768 73.5c-.002.203-.109.367-.239.367h-.003c-.13-.003-.234-.166-.235-.367h-6.705c-.002.203-.11.367-.24.367h-.002c-.133-.003-.238-.172-.236-.378a103.29 103.29 0 0 0-.557-11.568c-.891-8.621-2.539-14.383-2.562-14.463a.723.723 0 0 1-.024-.194s-.32-2.174 3.055-2.225c3.377-.052 4.895 1.606 5 2.017.007.02.413 1.54.954 4.268.18.905.373 1.942.571 3.101.5 2.924.919 7.116 1.113 11.934.283 3.181.383 5.86.11 7.141z" fill="#8CB4F4"/>
    <path fill-rule="evenodd" clip-rule="evenodd" d="M13.611 73.867H39.9s-.613-2.502-15.836-2.129c-10.774.264-10.451 2.129-10.451 2.129z" fill="#8CB4F4"/>
    <path fill-rule="evenodd" clip-rule="evenodd" d="M11.472 100c3.048-15.583 2.264-25.145 2.26-25.266-.008-.24.43-.457.666-.465.238-.004 1.29-.07 1.412.134.16.27.773 12.051-3.77 25.597h-.568zM36.016 100c-3.048-15.583-2.264-25.145-2.26-25.266.008-.24-.43-.457-.666-.465-.238-.004-1.29-.07-1.412.134-.16.27-.773 12.051 3.77 25.597h.568zM40.88 100c-3.048-15.583-2.264-25.145-2.26-25.266.008-.24-.43-.457-.666-.465-.238-.004-1.29-.07-1.412.134-.16.27-.773 12.051 3.77 25.597h.568zM16.369 100c3.048-15.583 2.264-25.145 2.26-25.266-.007-.24.43-.457.666-.465.238-.004 1.29-.07 1.412.134.16.27.773 12.051-3.77 25.597h-.568z" fill="#B7D3F3"/>
    <path fill-rule="evenodd" clip-rule="evenodd" d="M39.914 74.665H13.627a.543.543 0 0 1-.538-.543v-.358c0-.3.242-.544.538-.544h26.287c.297 0 .539.245.539.544v.358c0 .299-.242.543-.539.543z" fill="#B7D3F3"/>
    <path fill-rule="evenodd" clip-rule="evenodd" d="m38.99 50.69 8.739-1.912.514 1.267s-9.641 5.794-10.544 5.51c-.904-.283 1.292-4.865 1.292-4.865zM31.047 90.603c-.22.253-.247.535-.139.838l.002.004c.2.56.863 1.184 1.631 1.806a9.735 9.735 0 0 1 .32.274c.016.014.03.029.046.041.717.668.447.821 1.735 2.175 1.468 1.543 2.479 1.57 2.766 1.43.244-.12-.25-.938-.798-1.858l-.08-.134-.218-.37c-.642-1.106-.477-1.626-.325-3.273.124-1.338 2.062-7.48 2.062-7.48l-2.813-.489s-.848 4.89-1.782 5.643c-.499.401-1.058.407-1.538.704a2.31 2.31 0 0 0-.1.063c-.272.183-.55.372-.77.626z" fill="#FFB27D"/>
    <path fill-rule="evenodd" clip-rule="evenodd" d="M31.047 90.602c-.22.254-.247.536-.139.838l.002.005c.246.558.89 1.18 1.634 1.8a8.21 8.21 0 0 1 .318.28c.015.014.03.029.045.041.717.667.447.821 1.735 2.175 1.468 1.543 2.479 1.57 2.766 1.43.244-.12-.25-.938-.798-1.858a6.26 6.26 0 0 1-2.618-1.948c-.884-1.14-1.473-2.603-2.075-3.451-.034.02-.068.041-.1.063-.273.183-.55.371-.77.625z" fill="#1C468A"/>
    <path fill-rule="evenodd" clip-rule="evenodd" d="M53.736 88.827c.174.877 1.412.73 2.795.39 1.383-.341 1.054.064 3.023-.156s2.565-.961 2.625-1.257c.054-.262-.919-.355-1.962-.477-.131-.014-.263-.03-.395-.047-1.178-.15-2.041-.917-3.11-1.547-1.014-.598-2.527-3.03-2.527-3.03l-2.7.215s1.417 2.174 1.965 3.118c.322.556.305 1.29.265 1.858-.02.309-.04.625.02.933z" fill="#FFB27D"/>
    <path fill-rule="evenodd" clip-rule="evenodd" d="M56.532 89.216c1.383-.34 1.054.065 3.023-.155 1.968-.22 2.565-.961 2.625-1.257.053-.262-.92-.355-1.963-.477l-.01.02s-1.18.846-2.819.886c-1.335.033-2.75-.354-3.672-.339-.021.309-.041.624.02.933.174.877 1.412.73 2.796.39z" fill="#1C468A"/>
    <path fill-rule="evenodd" clip-rule="evenodd" d="M47.73 48.778s.642-1.591 1.35-1.656c.708-.065 2.959-.423 3.12-.098.16.325 0 1.495-.483 1.916-.482.423-3.473 1.105-3.473 1.105l-.515-1.267z" fill="#FFB27D"/>
    <path fill-rule="evenodd" clip-rule="evenodd" d="M43.39 71.391 37.57 87.207s-.894.087-1.75-.162c-.79-.23-1.693-.833-1.693-.833s1.444-15.185 4.09-18.343c2.646-3.159 5.172 3.522 5.172 3.522z" fill="#163560"/>
    <path fill-rule="evenodd" clip-rule="evenodd" d="M20.375 64.994s16.72-5.71 20.449-4.495c3.728 1.215 14.924 23.711 14.924 23.711s-.252.34-.942.6c-.642.244-2.195.228-2.195.228S42.508 76.291 41.305 73.74c-1.203-2.551-1.684-4.98-2.887-4.738-1.203.244-15.517 5.953-18.764 2.552-3.248-3.402-2.399-7.821-2.399-7.821l3.12 1.26z" fill="#1C468A"/>
    <path fill-rule="evenodd" clip-rule="evenodd" d="M29.907 24.732c-.722-.415-1.588-.46-2.194-.424.156-.162.463-.221.463-.221-.376-.057-1.214.32-1.214.32-5.226-2.034-6.047 5.736-5.937 7.542.109 1.805.122 3.883-2.486 5.502-5.133 3.186-.802 8.747-.802 8.747.04.024 2.388 4.045 2.388 4.045-.132-1.458 6.532-9.157 10.01-11.463.846-1.258 1.147-3.482 1.17-3.657-.147 1.763-.445 2.752-.712 3.309 2.944-2.737 1.23-12.6-.686-13.7z" fill="#222"/>
    <path fill-rule="evenodd" clip-rule="evenodd" d="M29.93 38.895c.017.008-1.68.897-2.956.545-1.2-.33-1.984-1.902-1.968-1.906.509-.102.655-.807.645-3.839l.23.046 3.863.773s-.088 1.228-.09 2.384c-.003.972.055 1.893.275 1.997z" fill="#FFB27D"/>
    <path fill-rule="evenodd" clip-rule="evenodd" d="M29.743 34.514s-.087 1.228-.09 2.385c-2.162-.062-3.305-2.053-3.773-3.157l3.863.772z" fill="#ED975D"/>
    <path fill-rule="evenodd" clip-rule="evenodd" d="M25.481 33.316s-1.133-1.808-1.405-3.353c-.194-1.104.363-5.195 4.433-4.606 0 0 1.183.118 2.294.876.884.602 2.16 1.904.733 5.474l-.37 1.206-5.685.404z" fill="#222"/>
    <path fill-rule="evenodd" clip-rule="evenodd" d="M30.465 35.609s-5.115.085-5.118-3.133c-.004-3.218-.666-5.374 2.6-5.564 3.265-.19 3.901 1.036 4.16 2.11.26 1.074-.311 6.482-1.642 6.587z" fill="#FFB27D"/>
    <path fill-rule="evenodd" clip-rule="evenodd" d="M30.276 26.833s-1.4 3.775-3.55 4.333c-2.15.559-3.081-.023-3.081-.023s1.648-1.323 1.99-3.632c0 0 3.584-2.475 4.64-.678z" fill="#222"/>
    <path fill-rule="evenodd" clip-rule="evenodd" d="M29.929 27.14s1.046.843 1.3 1.662c.256.82.37 2.506.857 2.449 0 0 1.055-2.566-.13-4.018-1.258-1.539-2.027-.093-2.027-.093z" fill="#222"/>
    <path fill-rule="evenodd" clip-rule="evenodd" d="M18.539 52.794c-.505-2.137 1.212-6.283 3.003-9.715 1.626-3.111 3.313-5.635 3.464-5.544 4.288 2.57 4.675.433 4.675.433.002 0 3.895.522 4.997 2.44 1.368 2.378 2.846 9.024 4.313 10.282-.225.697-.129 1.068.11 1.931.052.185.108.361.17.527.222.608.498 1.1.737 1.528-.746.459-2.187 1.33-3.248.703-1.618-.957-2.88-3.868-3.592-5.028l-.008-.013c-1.544 8.83.556 10.84-.507 11.772-1.123.983-2.727-.468-6.255 1.077-2.315 1.013-5.526 2.479-7.688 2.735-1.134.134-1.98-.065-2.256-.838-.802-2.248 3.047-8.217 2.085-12.29z" fill="#fff"/>
    <path fill-rule="evenodd" clip-rule="evenodd" d="M16.454 65.083c.276.773 1.122.972 2.256.838 1.496-.659 7.96-3.188 7.888-4.902-.107-2.537-1.243-2.618-.44-5.75.643-2.515-5.33-7.19-6.283-8.207-1.791 3.432-1.84 3.594-1.336 5.73.962 4.074-2.887 10.043-2.085 12.29z" fill="#EBF3FF"/>
    <path fill-rule="evenodd" clip-rule="evenodd" d="M15.723 55.931c1.146-1.626 2.34-2.486 3.126-2.918-.18-.47 4.822-6.665 4.822-7.625 0-.972 1.335-7.854 1.335-7.854s-4.169.26-5.612 2.292c-1.805 2.543-5.554 12.328-3.671 16.105z" fill="#fff"/>
    <path fill-rule="evenodd" clip-rule="evenodd" d="m18.85 53.013 8.33 2.195-.783 1.418s-10.137-.072-10.674-.695c-.537-.624 3.126-2.918 3.126-2.918z" fill="#FFB27D"/>
    <path fill-rule="evenodd" clip-rule="evenodd" d="M33.168 50.351c.71 1.16 1.973 4.071 3.591 5.028 1.062.626 2.503-.244 3.249-.703-.24-.428-.516-.92-.737-1.528-.596.138-1.322.313-1.79.457-.913.278-4.313-3.254-4.313-3.254z" fill="#163560"/>
    <path fill-rule="evenodd" clip-rule="evenodd" d="M27.18 55.209s2.615-.748 3.238-.573c.623.174 2.758 1.602 2.458 1.99-.3.387-2.18-.233-3.046-.116-.866.118-1.535.55-2.158.456a7.204 7.204 0 0 1-1.274-.34l.781-1.417z" fill="#FFB27D"/>
    <path fill-rule="evenodd" clip-rule="evenodd" d="M27.18 55.209s1.28-.664 1.643-1.043a.101.101 0 0 1 .16.019c.097.155.188.455-.26.754-.647.429-1.544.27-1.544.27z" fill="#FFB27D"/>
    <path fill-rule="evenodd" clip-rule="evenodd" d="M39.269 58.925H27.064c0-.542.436-.982.973-.982h11.232v.982z" fill="#ED7D2B"/>
    <path fill-rule="evenodd" clip-rule="evenodd" d="M39.234 45.5h18.869l-4.526 13.425H34.585l4.649-13.424z" fill="#ED7D2B"/>
    <path fill-rule="evenodd" clip-rule="evenodd" d="m58.381 45.5-4.526 13.425H34.864l4.648-13.424h18.87z" fill="#F99746"/>
    <path fill-rule="evenodd" clip-rule="evenodd" d="M48.208 52.089c-.118.513-.624.929-1.132.929-.508 0-.825-.416-.708-.93.118-.512.624-.928 1.132-.928.508 0 .825.416.708.929z" fill="#F9DDBF"/>
    <path fill-rule="evenodd" clip-rule="evenodd" d="m58.381 45.5-4.526 13.425H41.278c8.33-2.872 10.549-11.63 10.92-13.424h6.183z" fill="#ED893E"/>
    <path fill-rule="evenodd" clip-rule="evenodd" d="M3.601 100c.239 0 .443-.17.484-.4l6.732-38.535-2.428-.07-5.133 38.618A.344.344 0 0 0 3.6 100z" fill="#95C0F4"/>
    <path fill-rule="evenodd" clip-rule="evenodd" d="M7.967 64.162c1.573.701 1.896 2.359 1.896 2.359l.953-5.456-2.428-.07-.42 3.167z" fill="#78ACEA"/>
    <path fill-rule="evenodd" clip-rule="evenodd" d="M63.992 100a.489.489 0 0 1-.483-.4l-6.733-38.535 2.428-.07 5.133 38.618a.344.344 0 0 1-.345.387z" fill="#95C0F4"/>
    <path fill-rule="evenodd" clip-rule="evenodd" d="M59.626 64.162c-1.573.701-1.896 2.359-1.896 2.359l-.953-5.456 2.427-.07.422 3.167z" fill="#78ACEA"/>
    <path fill-rule="evenodd" clip-rule="evenodd" d="M1.981 63.207h62.177c.814 0 1.48-.673 1.48-1.496V60.42c0-.823-.666-1.496-1.48-1.496H1.98c-.815 0-1.481.673-1.481 1.496v1.292c0 .823.666 1.496 1.481 1.496z" fill="#78ACEA"/>
    <path fill-rule="evenodd" clip-rule="evenodd" d="M108.273 23.767s-.946-3.084-1.483-3.416c-.538-.331-2.779-1.447-2.913-1.146-.133.302 1.21 1.767 1.509 2.256.299.489.448.971.239.76-.209-.211-1.343-.917-1.463-.76-.12.157.567.76.896 1.243.328.482.687 1.296 1.851 1.477 1.164.181 1.364-.414 1.364-.414zM142.78 49.738s-.284 2.786-.595 3.313c-.311.527-1.637 2.211-2.201 2.542-.565.33.344-2.22.229-2.716-.115-.495-.464.906-.714.939-.248.033-.184-1.229-.193-1.688-.009-.459 1.211-1.591 1.641-2.57.43-.976 1.833.18 1.833.18z" fill="#FFB27D"/>
    <path fill-rule="evenodd" clip-rule="evenodd" d="M134.13 21.151s-2.295 11.371-14.918 15.086c-3.94 1.16-12.892-11.942-12.892-11.942s.315-1.208 2.287-.93c0 0 8.716 5.827 9.813 6.46.974.562 7.378-7.22 10.297-8.476 2.918-1.256 5.413-.198 5.413-.198z" fill="#DF3F5E"/>
    <path fill-rule="evenodd" clip-rule="evenodd" d="M149.2 92.63s1.566 1.445 1.261 2.47c-.306 1.025-1.719 1.709-1.91 2.962-.191 1.254-.955 1.938-1.642 1.938h-3.278s-.506-.882.716-1.148c1.222-.266 1.683-1.74 1.606-3.106-.076-1.367.115-3.191.115-3.191l2.597-.608.535.684zM129.988 96.364s.281 3.285-.406 3.627l-8.799-.019s0-1.025 1.414-1.253c1.413-.228 3.896-1.063 4.315-2.925.421-1.86 3.476.57 3.476.57z" fill="#233862"/>
    <path fill-rule="evenodd" clip-rule="evenodd" d="M122.56 49.964s.464 5.758 1.009 12.68c.742 9.401 1.633 20.95 1.721 23.137.153 3.8.765 9.877.765 9.877s1.45 1.443 4.354.835c0 0 2.587-8.675 3.326-17.854l.035-.453c.687-9.344 1.757-29.02 1.757-29.02l-12.967.798z" fill="#2B478B"/>
    <path fill-rule="evenodd" clip-rule="evenodd" d="M122.56 49.964s.464 5.758 1.009 12.68l10.166 15.995.035-.453c.687-9.344 1.757-29.02 1.757-29.02l-12.967.798z" fill="#233862"/>
    <path fill-rule="evenodd" clip-rule="evenodd" d="M124.679 50.648S133.044 71.5 138.544 81.3s7.219 12.534 7.219 12.534 3.151-1.253 3.437-2.108c0 0-2.103-18.918-5.787-23.53-2.08-2.606-4.525-10.427-4.64-13.16-.114-2.736-.745-8.148-.745-8.148l-13.349 3.76z" fill="#2B478B"/>
    <path fill-rule="evenodd" clip-rule="evenodd" d="M135.685 18.512s-5.66 2.758-8.923 1.735c0 0 .803-1.023 2.209-1.785a27.019 27.019 0 0 1-.251-1.722c-.138-1.123-.138-1.76-.138-1.76l2.184-1.734 2.07-1.66c-.163 4.667 2.849 6.926 2.849 6.926z" fill="#FFB27D"/>
    <path fill-rule="evenodd" clip-rule="evenodd" d="M138.667 47.955c.013.35-.727.75-1.054.898-2.421 1.074-4.681 1.822-7.241 2.072-3.024.312-6.6-.374-7.831-.349a.508.508 0 0 1-.338-.137c-.088-.063-.151-3.744-.088-8.375 0-.185 0-.373.012-.56v-.063c.025-1.809.088-3.706.176-5.603.176-4.168.503-8.187 1.054-10.408.665-2.62 2.172-4.355 3.54-5.616l1.128-.998c1.13.224 2.322.162 3.514-.424 1.306-.636 2.711-1.323 2.936-1.149 1.707 1.26 2.862 4.093 3.477 7.713.003.018.007.035.009.053.345 2.07.518 4.385.505 6.81 0 .9-.024 1.822-.075 2.733-.251 4.127-.083 7.801.081 10.347.033.503.066.962.094 1.372.051.723.088 1.285.101 1.684z" fill="#EB5976"/>
    <path fill-rule="evenodd" clip-rule="evenodd" d="M138.472 44.899c-9.381-10.94-3.561-18.89-3.561-18.89l3.05-1c.345 2.07.518 4.386.505 6.81 0 .9-.025 1.822-.075 2.733-.251 4.127-.083 7.802.081 10.347z" fill="#DF3F5E"/>
    <path fill-rule="evenodd" clip-rule="evenodd" d="M132.874 13.37s-1.431 2.634-4.154 3.37c-.138-1.123-.138-1.76-.138-1.76l2.184-1.734 2.108.125z" fill="#ED985F"/>
    <path fill-rule="evenodd" clip-rule="evenodd" d="M127.587 14.904s5.398.892 5.905-2.46c.508-3.352 1.545-5.495-1.88-6.206-3.426-.711-4.291.468-4.734 1.546-.442 1.078-.682 6.802.709 7.12z" fill="#FFB27D"/>
    <path fill-rule="evenodd" clip-rule="evenodd" d="M135.455 5.837c.048-.057.161-.103.413-.117 0 0-.201-.127-.47-.133-.053-.354-.239-.98-.841-1.131 0 0 .323.174.366.55-.697-.724-2.192-1.25-6.329-.92-5.453.434-3.656 3.96-2.95 4.381.706.42 2.483-.732 3.798-.627 1.315.106 1.565 2.025 2.011 2.289.447.263.271-.202.876-.478.603-.276.66.735.486 1.392-.174.657.655 1.523.655 1.523l.839-.912c.838-.912 1.628-4.774 1.247-5.597l-.101-.22z" fill="#222"/>
    <path fill-rule="evenodd" clip-rule="evenodd" d="M134.474 17.216s3.416 1.633 5.053 4.145c2.541 3.896 5.486 18.094 5.54 19.41.055 1.314-2.149 10.597-2.149 10.597s-2.236-.15-2.812-1.289c0 0 .447-9.537.164-10.15-.283-.614-9.319-12.794-8.303-15.393 1.016-2.6 2.507-7.32 2.507-7.32z" fill="#EB5976"/>
    <path d="M.5 100h150" stroke="#1C2F59"/>
</svg>
