<svg width="97" height="100" viewBox="0 0 97 100" fill="none" xmlns="http://www.w3.org/2000/svg">
    <g clip-path="url(#gkvbnftbsa)">
        <path fill-rule="evenodd" clip-rule="evenodd" d="m43.842 20.888.524-.998a.658.658 0 0 0 .075-.31c-.005-.543-.233-.987 2.122-2.188 0 0 1.227-.114 1.059.949-.207 1.305-.538 2.093-1.401 2.523l-.714.834-1.665-.81z" fill="#FFB27D"/>
        <path fill-rule="evenodd" clip-rule="evenodd" d="M17.556 17.88s2.388 11.838 15.533 15.706c4.103 1.208 12.961-12.078 12.961-12.078s-1.24-1.13-2.208-1.207c0 0-8.785 5.951-9.928 6.61-1.014.585-7.682-7.518-10.722-8.825-3.04-1.307-5.636-.205-5.636-.205z" fill="#DF3F5E"/>
        <path fill-rule="evenodd" clip-rule="evenodd" d="M1.863 92.296S.232 93.799.55 94.866c.318 1.068 1.79 1.78 1.989 3.085.199 1.305.994 2.016 1.71 2.016h3.413s.527-.918-.746-1.195c-1.272-.276-1.752-1.81-1.673-3.234.08-1.423-.119-3.321-.119-3.321l-2.705-.633-.556.712zM21.868 96.183s-.293 3.419.424 3.775l9.161-.019s0-1.068-1.471-1.305c-1.472-.237-4.057-1.107-4.494-3.044-.438-1.938-3.62.593-3.62.593z" fill="#233862"/>
        <path fill-rule="evenodd" clip-rule="evenodd" d="M29.603 47.877s-.483 5.994-1.05 13.2c-.773 9.787-1.701 21.81-1.793 24.088-.159 3.955-.796 10.281-.796 10.281s-1.51 1.504-4.534.87c0 0-2.694-9.031-3.464-18.587l-.036-.471c-.715-9.728-1.829-30.212-1.829-30.212l13.502.83z" fill="#2B478B"/>
        <path fill-rule="evenodd" clip-rule="evenodd" d="M29.603 47.877s-.483 5.994-1.05 13.2L17.965 77.728l-.036-.471c-.715-9.728-1.829-30.212-1.829-30.212l13.502.83z" fill="#233862"/>
        <path fill-rule="evenodd" clip-rule="evenodd" d="M27.396 48.588S18.686 70.298 12.96 80.5C7.232 90.7 5.442 93.549 5.442 93.549s-3.281-1.305-3.58-2.195c0 0 2.19-19.695 6.026-24.496 2.167-2.714 4.713-10.855 4.832-13.703.12-2.846.776-8.48.776-8.48l13.9 3.913z" fill="#2B478B"/>
        <path fill-rule="evenodd" clip-rule="evenodd" d="M15.936 15.133s5.894 2.872 9.291 1.806c0 0-.836-1.065-2.3-1.857.118-.69.21-1.287.262-1.793.144-1.17.144-1.832.144-1.832L21.059 9.65l-2.156-1.728c.17 4.859-2.967 7.21-2.967 7.21z" fill="#FFB27D"/>
        <path fill-rule="evenodd" clip-rule="evenodd" d="M29.976 48.371a.528.528 0 0 1-.354.143c-1.28-.026-5.005.688-8.153.363-2.666-.26-5.018-1.039-7.54-2.155-.34-.156-1.112-.572-1.098-.935.014-.416.052-1.001.104-1.755.105-1.485.254-3.592.302-6.09.035-1.853.015-3.92-.118-6.11a50.624 50.624 0 0 1-.078-2.845c-.014-2.547.168-4.976.534-7.145.642-3.768 1.844-6.717 3.62-8.03.236-.182 1.7.533 3.058 1.196 1.242.61 2.482.676 3.659.442l1.175 1.04c1.426 1.31 2.994 3.116 3.686 5.845.575 2.313.915 6.496 1.098 10.836.09 1.974.157 3.949.183 5.832v.065c.013.195.013.392.013.586.065 4.82 0 8.653-.091 8.717z" fill="#EB5976"/>
        <path fill-rule="evenodd" clip-rule="evenodd" d="M18.864 9.78s1.49 2.742 4.325 3.509c.144-1.17.144-1.832.144-1.832L21.059 9.65l-2.195.13z" fill="#ED985F"/>
        <path fill-rule="evenodd" clip-rule="evenodd" d="M24.37 11.377s-5.623.93-6.15-2.56c-.528-3.49-1.61-5.721 1.958-6.462 3.567-.74 4.468.487 4.929 1.61.46 1.122.711 7.081-.738 7.412z" fill="#FFB27D"/>
        <path fill-rule="evenodd" clip-rule="evenodd" d="M16.176 1.938c-.051-.06-.169-.107-.43-.122 0 0 .209-.132.489-.139.055-.368.248-1.019.875-1.177 0 0-.337.181-.38.573.726-.753 2.282-1.302 6.59-.958 5.679.452 3.807 4.123 3.072 4.561-.735.438-2.585-.762-3.955-.652-1.37.11-1.63 2.108-2.095 2.382-.465.274-.282-.21-.91-.498-.63-.287-.689.765-.507 1.45.181.683-.683 1.585-.683 1.585l-.873-.949c-.872-.95-1.695-4.97-1.298-5.827l.105-.23z" fill="#222"/>
        <path fill-rule="evenodd" clip-rule="evenodd" d="M13.236 37.941c.036-1.852.016-3.92-.117-6.109-.008-.147-.016-.295-.022-.444.535-2.673 1.343-5.045 2.533-5.122 0 0 3.545 5.625-2.394 11.675z" fill="#DF3F5E"/>
        <path fill-rule="evenodd" clip-rule="evenodd" d="M8.547 47.642s.296 2.9.62 3.449c.324.548 1.705 2.302 2.293 2.646.588.343-.36-2.31-.24-2.827.12-.517.484.943.744.977.259.034.192-1.279.201-1.757.01-.478-1.26-1.658-1.708-2.675-.448-1.018-1.91.187-1.91.187z" fill="#FFB27D"/>
        <path fill-rule="evenodd" clip-rule="evenodd" d="M17.198 13.784s-3.558 1.7-5.263 4.315c-2.646 4.056-5.712 18.838-5.769 20.207-.057 1.368 2.238 11.032 2.238 11.032s2.328-.155 2.928-1.34c0 0-.465-9.93-.17-10.568.295-.639 9.703-13.32 8.645-16.025-1.057-2.706-2.61-7.621-2.61-7.621z" fill="#EB5976"/>
        <path fill-rule="evenodd" clip-rule="evenodd" d="M41.681 35.787h12.355a.678.678 0 0 0 .675-.681V18.405a.678.678 0 0 0-.675-.682H41.68a.678.678 0 0 0-.675.682v16.7c0 .377.303.682.675.682z" fill="#F99746"/>
        <path fill-rule="evenodd" clip-rule="evenodd" d="M46.494 17.485c-.042.244 1.23 1.468 1.592 1.478.313.008.858-.83.79-1.253-.057-.36-2.315-.624-2.382-.225z" fill="#FFB27D"/>
        <path fill-rule="evenodd" clip-rule="evenodd" d="M82.376 7.043c-1.746-.915-3.145-.34-3.145-.34-5.344-.634-6.903 5.658-6.83 7.824.07 2.165.316 4.49-2.07 7.303-6.894 8.125 7.543 8.483 7.543 8.483.123-6.491 7.83-4.122 7.492-3.465 9.879 2.394.982-17.725-2.99-19.805z" fill="#222"/>
        <path fill-rule="evenodd" clip-rule="evenodd" d="M61.763 34.106s-.94-1.445-1.697-1.473c-.758-.029-2.16-.425-2.048-.142.112.283.982.312 1.066.482.085.17-1.29.425-1.683.453-.393.028-1.318 0-1.29.198.028.198 1.668 1.02 2.826.907 1.157-.114 2.588.34 2.588.34l.238-.765z" fill="#FFB27D"/>
        <path fill-rule="evenodd" clip-rule="evenodd" d="M75.354 34.573s-.51 1.021-1.438 2.195c-1.116 1.412-2.838 3.043-5 3.365-1.032.154-2.042-.07-2.97-.486l-.004-.001c-2.625-1.177-4.6-3.883-4.6-3.883-.463-1.275.295-2.14.295-2.14s5.302 1.205 5.806.95c.505-.255 3.45-8.823 4.152-9.9.702-1.076 3.092-1.635 3.092-1.635l.667 11.535z" fill="#fff"/>
        <path fill-rule="evenodd" clip-rule="evenodd" d="M73.916 36.768c-1.116 1.412-2.838 3.043-5 3.365-1.032.154-2.042-.07-2.97-.486.102.013 2.724.34 3.77-1.548 1.066-1.926 2.219-4.985 3.803-3.965.683.44.653 1.533.397 2.634z" fill="#EBF3FF"/>
        <path fill-rule="evenodd" clip-rule="evenodd" d="M95.134 92.357s1.617 1.491 1.301 2.55c-.315 1.059-1.775 1.765-1.972 3.06-.198 1.294-.987 2-1.697 2H89.38s-.523-.91.74-1.185c1.262-.275 1.739-1.796 1.66-3.208-.08-1.412.118-3.295.118-3.295l2.683-.628.553.706zM81.441 92.99s.582 6.315-.128 6.668l-9.09-.019s0-1.059 1.46-1.294c1.46-.236 4.025-1.099 4.459-3.021.434-1.922 3.3-2.334 3.3-2.334z" fill="#233862"/>
        <path fill-rule="evenodd" clip-rule="evenodd" d="M87.918 47.684c-1.87-4.235-3.015-5.45-2.796-6.765.162-.979-.496-18.242-.496-18.242-.221-.07-.666-.132-.91-.186a2.289 2.289 0 0 1-1.666-1.464c-.319-.9-.572-2.23-.566-3.895l-.24.047-4.028.806s.092 1.28.095 2.486v.03a2.337 2.337 0 0 1-1.672 2.262c-.51.149-.952.275-.952.275s-1.48 4.265-1.762 8.646c-.282 4.38 2.69 6.284-.023 15.038-2.768 8.941 16.049 3.303 15.016.962z" fill="#FFB27D"/>
        <path fill-rule="evenodd" clip-rule="evenodd" d="M77.216 17.985s.092 1.28.095 2.486c2.254-.064 3.445-2.14 3.934-3.291l-4.029.805z" fill="#E8945B"/>
        <path fill-rule="evenodd" clip-rule="evenodd" d="M76.463 19.127s5.334.089 5.338-3.266c.003-3.355.694-5.603-2.711-5.801-3.406-.199-4.069 1.08-4.34 2.2-.27 1.12.326 6.757 1.713 6.867z" fill="#FFB27D"/>
        <path fill-rule="evenodd" clip-rule="evenodd" d="M76.66 9.978s1.46 3.936 3.702 4.517c2.242.582 3.214-.024 3.214-.024s-1.72-1.379-2.076-3.786c0 0-3.738-2.58-4.84-.707z" fill="#222"/>
        <path fill-rule="evenodd" clip-rule="evenodd" d="M77.022 10.297s-1.082.41-1.528 1.207c-.436.78-.807 1.812-.72 3.08 0 0-1.101-2.676.135-4.19 1.311-1.604 2.113-.097 2.113-.097z" fill="#163560"/>
        <path fill-rule="evenodd" clip-rule="evenodd" d="M87.192 30.313s-.02 2.555-.156 4.868c-.09 1.534-.23 2.962-.448 3.47-.547 1.275-1.164 1.482-1.164 1.482l-4.772 1.181-1.678.415-5.291-1.596s-2.41-6.792-1.443-10.616c.968-3.823 2.447-6.479 2.447-6.479s4.318 4.27 9.94-.362l2.565 7.637z" fill="#fff"/>
        <path fill-rule="evenodd" clip-rule="evenodd" d="M87.036 35.181c-.09 1.534-.23 2.962-.448 3.47-.547 1.275-1.164 1.482-1.164 1.482l-4.772 1.181-2.073-.615s6.92-1.058 6.153-7.07l2.304 1.552z" fill="#EBF3FF"/>
        <path fill-rule="evenodd" clip-rule="evenodd" d="M74.019 41.164s-2.62 8.236-2.789 11.04c-.168 2.804 5.01 39.833 5.218 41.126.197 1.217 1.694 1.994 1.694 1.994s.689.41 1.672.13c1.364-.388 1.795-.854 1.795-.854s2.04-26.41.778-35.843c-1.263-9.435-1.277-17.593-1.277-17.593h-7.091z" fill="#163560"/>
        <path fill-rule="evenodd" clip-rule="evenodd" d="M85.122 40.919s3.997 5.415 4.37 9.076c.372 3.66.584 16.52 1.378 20.088.794 3.57 3.71 10.437 3.71 21.568 0 0-.302.638-1.239.978-.299.109-.7.214-1.09.304a1.709 1.709 0 0 1-1.916-.919c-1.972-4.008-8.254-16.939-8.576-19.623-.227-1.9-2.212-14.471-6.538-21.848-1.039-1.771.638-8.814.638-8.814l9.263-.81z" fill="#1C468A"/>
        <path fill-rule="evenodd" clip-rule="evenodd" d="M73.6 39.893s1.053.84 3.142.883c2.497.05 8.682-.643 8.682-.643s.275.775.263 1.594c0 0-7.554 1.924-11.93.281 0 0-.566-1.072-.157-2.115z" fill="#233862"/>
        <path fill-rule="evenodd" clip-rule="evenodd" d="M76.144 40.725c-.42 0-.762.413-.762.921s.342.92.761.92c.42 0 .762-.412.762-.92s-.341-.92-.761-.92zm0 2.223c-.628 0-1.14-.584-1.14-1.302 0-.718.512-1.302 1.14-1.302.627 0 1.138.584 1.138 1.302 0 .718-.51 1.302-1.138 1.302z" fill="#fff"/>
        <path fill-rule="evenodd" clip-rule="evenodd" d="m95.08 53.934-11.888 2.588-1.436-6.728 11.888-2.587 1.437 6.727z" fill="#CD8544"/>
        <path fill-rule="evenodd" clip-rule="evenodd" d="M81.756 49.794s3.323 2.812 7.017 1.834c3.694-.978 4.871-4.422 4.871-4.422l-11.888 2.588z" fill="#E9AA70"/>
        <path fill-rule="evenodd" clip-rule="evenodd" d="M83.418 48.909c-.243 0-.44.2-.44.445 0 .246.198.446.44.446.243 0 .441-.2.441-.446a.444.444 0 0 0-.44-.445zm0 1.112c-.363 0-.66-.3-.66-.667 0-.368.297-.667.66-.667.365 0 .66.3.66.667a.664.664 0 0 1-.66.667z" fill="#17467F"/>
        <path fill-rule="evenodd" clip-rule="evenodd" d="M93.096 50.198s.005.976.188 1.446.733 1.098.916 1.098c.183 0-.168-.98-.076-.96.092.019.533 1.63.854 1.67.32.038.611-1.808.443-2.533-.168-.725-.893-1.595-.893-1.595l-1.432.874z" fill="#FFB27D"/>
        <path fill-rule="evenodd" clip-rule="evenodd" d="M84.626 22.677s2.951.404 4.539 3.563c1.227 2.441 2.07 10.12 2.935 12.539.829 2.314 1.972 6.787 2.61 10.372a.595.595 0 0 1-.362.656l-1.085.434a.51.51 0 0 1-.63-.216c-.964-1.634-4.766-8.18-6.085-11.968-1.544-4.427-4.431-7.177-4.431-7.177l2.51-8.203z" fill="#fff"/>
        <path fill-rule="evenodd" clip-rule="evenodd" d="M83.201 48.837c-.007-.11-.693-11.06-.562-17.218.07-3.233.564-5.51.967-6.852.439-1.463 1.096-2.062 1.113-2.09l.224.066c-.016.027-1.837 2.793-1.967 8.884-.13 6.142.555 17.08.561 17.189l-.336.021z" fill="#0C2442"/>
        <path d="M.5 99.658h96" stroke="#1C2F59"/>
    </g>
    <defs>
        <clipPath id="gkvbnftbsa">
            <path fill="#fff" transform="translate(.5)" d="M0 0h96v100H0z"/>
        </clipPath>
    </defs>
</svg>
