<svg width="137" height="100" viewBox="0 0 137 100" fill="none" xmlns="http://www.w3.org/2000/svg">
    <g clip-path="url(#tys34gui5a)">
        <path fill-rule="evenodd" clip-rule="evenodd" d="M121.46 52.178s1.608-1.87.1-3.058c0 0-1.103-.665-2.001-.611 0 0 1.273 2.129.861 2.34-.411.212-1.247-2.474-1.247-2.474s-2.508-.242-3.314.145c0 0 2.144 1.749 1.692 1.853-.452.104-2.767-1.613-2.767-1.613s-2.334.397-2.209 1.815c.124 1.42.927 1.858 1.281 1.82.354-.037 2.421-.824 2.466-.535.046.288-1.199 1.232-2.07 1.276 0 0 1.645 1.81 2.738 1.287 1.094-.522 1.188-1.35 1.869-1.66.682-.31 1.264-.31.982.007-.281.317-1.515.624-1.905 1.312-.39.687-.739 1.151.392.981 1.131-.17 2.971-.995 3.051-1.94l.081-.945z" fill="#82B378"/>
        <path fill-rule="evenodd" clip-rule="evenodd" d="M113.721 50.614s6.34-.244 7.739 1.564c0 0 .31.924 1.263 1.766l.149.404s-1.099-1.155-1.493-1.225c0 0 .616-2.239-7.658-2.509z" fill="#82B378"/>
        <path fill-rule="evenodd" clip-rule="evenodd" d="M122.723 53.944s1.36 1.003 1.455 2.795l-.247.023s-.434-1.854-1.22-2.578c-.785-.725.012-.24.012-.24z" fill="#82B378"/>
        <path fill-rule="evenodd" clip-rule="evenodd" d="M127.081 49.826s-2.556-1.428-1.363-3.365c0 0 .955-1.19 1.977-1.496 0 0-.545 2.889 0 2.957.547.068.376-3.264.376-3.264s2.694-1.291 3.751-1.19c0 0-1.671 2.823-1.126 2.754.546-.068 2.422-2.923 2.422-2.923s2.762-.51 3.205 1.122c.444 1.631-.272 2.447-.682 2.549-.409.103-3.035.068-2.966.408.067.34 1.841.884 2.83.578 0 0-1.092 2.686-2.524 2.55-1.432-.136-1.875-1.02-2.762-1.088-.886-.068-1.534.17-1.091.408.444.238 1.944.078 2.66.685.716.607 1.295.981-.034 1.253-1.33.272-3.718.102-4.195-.918l-.478-1.02z" fill="#A8D29F"/>
        <path fill-rule="evenodd" clip-rule="evenodd" d="M135.062 44.93s-7.162 2.313-7.981 4.896c0 0 .035 1.156-.681 2.482v.51s.75-1.734 1.159-1.972c0 0-1.602-2.244 7.503-5.916z" fill="#82B378"/>
        <path fill-rule="evenodd" clip-rule="evenodd" d="M126.4 52.308s-1.105 1.672-.475 3.707l.284-.076s-.276-2.242.302-3.369c.578-1.127-.111-.262-.111-.262z" fill="#82B378"/>
        <path fill-rule="evenodd" clip-rule="evenodd" d="M123.013 47.857s3.371-1.882 1.798-4.437c0 0-1.259-1.568-2.607-1.971 0 0 .719 3.809 0 3.899-.72.089-.495-4.303-.495-4.303s-3.551-1.703-4.945-1.568c0 0 2.203 3.72 1.484 3.63-.72-.09-3.192-3.855-3.192-3.855s-3.641-.671-4.225 1.48c-.584 2.15.36 3.226.899 3.361.539.134 4 .09 3.911.538-.09.448-2.428 1.165-3.731.762 0 0 1.438 3.54 3.326 3.36 1.888-.18 2.473-1.344 3.641-1.434 1.169-.09 2.023.224 1.439.538-.585.314-2.562.103-3.507.903-.943.8-1.708 1.293.045 1.651 1.753.36 4.9.135 5.53-1.21l.629-1.344z" fill="#A8D29F"/>
        <path fill-rule="evenodd" clip-rule="evenodd" d="M112.494 41.404s9.44 3.047 10.519 6.453c0 0-.045 1.524.899 3.271v.673s-.989-2.286-1.528-2.6c0 0 2.112-2.958-9.89-7.797z" fill="#82B378"/>
        <path fill-rule="evenodd" clip-rule="evenodd" d="M123.912 51.128s1.456 2.204.626 4.887l-.375-.1s.364-2.955-.398-4.441c-.761-1.487.147-.346.147-.346z" fill="#82B378"/>
        <path fill-rule="evenodd" clip-rule="evenodd" d="M123.126 61.832c-3.647 0-6.604-2.947-6.604-6.583h13.209c0 3.636-2.958 6.583-6.605 6.583z" fill="#AEC3FF"/>
        <path fill-rule="evenodd" clip-rule="evenodd" d="M125.077 61.782c-.268.034-.543.05-.821.05-3.647 0-6.604-2.947-6.604-6.583h1.641c0 3.36 2.524 6.13 5.784 6.533z" fill="#CCDCFF"/>
        <path fill-rule="evenodd" clip-rule="evenodd" d="M116.431 62.168h13.391a.814.814 0 0 0-.815-.813h-11.761a.814.814 0 0 0-.815.813zM116.372 55.451h13.576v-.202h-13.576v.202z" fill="#AEC3FF"/>
        <path fill-rule="evenodd" clip-rule="evenodd" d="M102.917 99.468h28.71v-23.6h-28.71v23.6z" fill="#C3DAFC"/>
        <path fill-rule="evenodd" clip-rule="evenodd" d="M102.934 93.483h4.549l-.4-1.276.4-.912h-4.549v2.188z" fill="#2A4E96"/>
        <path fill-rule="evenodd" clip-rule="evenodd" d="M117.272 83.171h4.549l-.4-1.276.4-.911h-4.549v2.188z" fill="#618DC1"/>
        <path fill-rule="evenodd" clip-rule="evenodd" d="M117.272 80.984h-4.549l.4 1.276-.4.911h4.549v-2.188z" fill="#2A4E96"/>
        <path fill-rule="evenodd" clip-rule="evenodd" d="M118.504 75.855h16.635V62.18h-16.635v13.675z" fill="#ED823A"/>
        <path fill-rule="evenodd" clip-rule="evenodd" d="M110.186 75.855h16.635V62.18h-16.635v13.675z" fill="#FF9E55"/>
        <path fill-rule="evenodd" clip-rule="evenodd" d="M135.129 72.387h-2.635l.232-.739-.232-.529h2.635v1.268z" fill="#DD732C"/>
        <path fill-rule="evenodd" clip-rule="evenodd" d="M126.822 66.412h-2.636l.232-.74-.232-.527h2.636v1.267z" fill="#FFB27D"/>
        <path fill-rule="evenodd" clip-rule="evenodd" d="M126.821 65.145h2.636l-.232.739.232.528h-2.636v-1.267z" fill="#DD732C"/>
        <path fill-rule="evenodd" clip-rule="evenodd" d="M110.186 72.534h2.636l-.232.74.232.528h-2.636v-1.268zM123.364 95.51h3.14l-.276.881.276.63h-3.14v-1.51z" fill="#FFB27D"/>
        <path fill-rule="evenodd" clip-rule="evenodd" d="M92.377 82.784c.067.61.009 1.538-.129 2.631-.542 4.327-2.31 11.239-2.31 11.239l-2.216.267c.161-1.221-.3-5.902-.912-11.088-.925-7.825-2.194-16.802-2.194-16.802s4.823-3.974 7.666-2.876c2.843 1.099-.239 13.597.095 16.63z" fill="#ED975D"/>
        <path fill-rule="evenodd" clip-rule="evenodd" d="M92.248 85.415c-.542 4.327-2.31 11.239-2.31 11.239l-2.216.267c.161-1.221-.3-5.902-.912-11.088.789.139 2.928.413 4.718-.26.275-.103.514-.151.72-.158z" fill="#DFEBFD"/>
        <path fill-rule="evenodd" clip-rule="evenodd" d="M90.219 36.91s-1.168-.558-2.48 0c-1.31.56-2.264 2.94-1.678 5.162.588 2.222-1.394 2.26-.477 4.043.326.632 4.635 1.17 4.782-1.292.09-1.526-1.294-1.601-.89-3.259.403-1.657.743-4.654.743-4.654z" fill="#222"/>
        <path fill-rule="evenodd" clip-rule="evenodd" d="M96.405 82.31c.13.748.095 2.002-.031 3.463-.376 4.411-1.579 10.716-1.579 10.716l-2.191.505c.083-1.207-.632-5.746-1.535-10.825-1.405-7.9-3.26-17.107-3.26-17.107s4.57-4.264 7.474-3.342c2.904.921.603 13.585 1.122 16.59z" fill="#FFB27D"/>
        <path fill-rule="evenodd" clip-rule="evenodd" d="M87.748 96.486s-.526.963-1.529 1.188c-.632.14-1.172.471-1.506.934a.588.588 0 0 0 .479.933l5.097-.028a.732.732 0 0 0 .725-.809c-.04-.377-.082-.815-.101-1.15-.042-.734-.84-1.394-.84-1.394s-.7.401-.97.448c-.586.102-1.355-.123-1.355-.123z" fill="#212D4C"/>
        <path fill-rule="evenodd" clip-rule="evenodd" d="M86.777 47.525s-3.581 6.274-4.254 10.84c0 0 1.871 1.503 2.53-.027.659-1.53 5.389-9.722 1.724-10.813z" fill="#FFB27D"/>
        <path fill-rule="evenodd" clip-rule="evenodd" d="M87.41 37.586c.037-.059 1.528-2.408 4.314-2.877 2.257-.38 4.37 1.21 4.717 3.465.349 2.267-.007 5.204-3.716 6.262l-5.314-6.85z" fill="#222"/>
        <path fill-rule="evenodd" clip-rule="evenodd" d="m88.092 47.687 4.198 2.485 1.108-2.937s-.534-1.082-.675-2.799a11.39 11.39 0 0 1 .068-2.476l-3.65 1.58s.063.332.089.817c.027.523.009 1.225-.182 1.881-.164.563-.455 1.093-.956 1.449z" fill="#FFB27D"/>
        <path fill-rule="evenodd" clip-rule="evenodd" d="M89.05 46.238c2.013.074 3.675-1.802 3.675-1.802l-3.494-.08c.027.524.01 1.226-.181 1.882z" fill="#ED975D"/>
        <path fill-rule="evenodd" clip-rule="evenodd" d="M88.146 45.06s3.942 1.31 5.528-1.781c1.712-3.336.234-5.94-1.117-6.194-2.694-.509-4.337.423-4.884 1.484-.547 1.061-1.704 5.788.473 6.49z" fill="#FFB27D"/>
        <path fill-rule="evenodd" clip-rule="evenodd" d="M98.14 79.575c-1.14 1.086-9.555 3.33-14.297 1.716-.85-.289.51-26.431 1.32-31.479a3.184 3.184 0 0 1 2.719-2.65c.236-.032.543-.094.819-.12-.059.62.101 1.234 1.186 1.447 1.445.281 2.81-.627 3.512-1.259 1.131.235 1.789.321 2.686.695a2.352 2.352 0 0 1 1.429 2.485l-1.135 8.344a8.362 8.362 0 0 0 .018 2.403c.368 2.414.953 8.294 1.345 12.767.275 3.146.456 5.596.398 5.651z" fill="#F99746"/>
        <path fill-rule="evenodd" clip-rule="evenodd" d="M90.908 37.452s-.374 3.687 3.135 4.993c1.395.52 2.121-5.112-.794-6.236-2.915-1.125-5.79.21-6.133 2.177-.344 1.965-.082 2.375-.082 2.375s1.364-3.74 3.874-3.31z" fill="#222"/>
        <path fill-rule="evenodd" clip-rule="evenodd" d="m85.69 48.505-1.826 3.111s.235 1.444 1.6 1.588c1.366.144.225-4.7.225-4.7z" fill="#F99746"/>
        <path fill-rule="evenodd" clip-rule="evenodd" d="M95.263 36.942s1.167-.63 2.478 0c1.312.63 2.266 3.309 1.68 5.812-.589 2.502 1.394 2.544.476 4.552-.326.711-4.634 1.317-4.782-1.455-.09-1.718 1.294-1.802.89-3.669-.403-1.867-.742-5.24-.742-5.24z" fill="#222"/>
        <path fill-rule="evenodd" clip-rule="evenodd" d="M96.374 85.773c-.376 4.411-1.579 10.716-1.579 10.716l-2.191.505c.083-1.207-.632-5.746-1.535-10.825 1.169.122 3.322.215 5.305-.396z" fill="#fff"/>
        <path fill-rule="evenodd" clip-rule="evenodd" d="M92.542 96.486s-.527.963-1.53 1.188c-.632.14-1.171.471-1.506.934a.587.587 0 0 0 .479.933l5.097-.028a.732.732 0 0 0 .726-.809c-.04-.377-.083-.815-.102-1.15-.042-.734-.84-1.394-.84-1.394s-.699.401-.969.448c-.587.102-1.355-.123-1.355-.123z" fill="#2C3A64"/>
        <path fill-rule="evenodd" clip-rule="evenodd" d="M89.177 57.947v4.717c0 .567-.641 1.03-1.425 1.03h-4.263c-.784 0-1.426-.463-1.426-1.03v-4.717h7.114z" fill="#AEC3FF"/>
        <path fill-rule="evenodd" clip-rule="evenodd" d="M84.354 57.954c-.007-.05-.682-5.099-3.311-7.603l.071-.075c2.656 2.53 3.336 7.614 3.342 7.665l-.102.013zM85.57 57.95c-.11-3.21.736-9.925.744-9.992l.102.014c-.008.067-.854 6.772-.744 9.973l-.103.004zM87.169 57.952l-.103-.01c.146-1.553 1.141-2.458 1.95-2.944a5.85 5.85 0 0 1 1.735-.688l.02.1c-.009.002-.846.16-1.704.677-.788.474-1.757 1.356-1.898 2.865z" fill="#A8D29F"/>
        <path fill-rule="evenodd" clip-rule="evenodd" d="M81.412 50.657s-.214-1.912-1.195-1.942c-.98-.03-1.95.178-1.95.178s.713.38 1.05.792c.336.412 2.096.972 2.096.972zM82.049 51.458s-1.228-.177-1.683.178c-.456.356-.298 1.441-.298 1.441s.595-.158 1.01-.434c.416-.277.614-.433.792-.81l.179-.375z" fill="#A8D29F"/>
        <path fill-rule="evenodd" clip-rule="evenodd" d="M84.405 57.812s-1.65-.926-2.495-.67c-.845.255-1.22 1.888-1.22 1.888s.934.102 1.678-.064c.745-.165 1.114-.28 1.575-.717l.462-.437zM86.365 48.005c.035.028-.534-.992-1.143-.873-.61.118-1.337.696-1.337.696s.861.118 1.24.236c.379.119 1.017-.236 1.24-.059z" fill="#82B378"/>
        <path fill-rule="evenodd" clip-rule="evenodd" d="M90.548 54.428c.001.04-.43-1.079-.003-1.286.427-.208 1.26-.1 1.26-.1s-.395.528-.52.814c-.124.286-.743.316-.737.572z" fill="#A8D29F"/>
        <path fill-rule="evenodd" clip-rule="evenodd" d="M86.365 47.995s-.01-.44.495-.676c0 0 .109.286 0 .493-.109.208-.495.183-.495.183z" fill="#82B378"/>
        <path fill-rule="evenodd" clip-rule="evenodd" d="M88.068 55.785s-.427-.108-.522-.656c0 0 .306-.029.477.132.172.16.045.524.045.524z" fill="#A8D29F"/>
        <path fill-rule="evenodd" clip-rule="evenodd" d="M86.326 48.353s.445-.178.732-.139c.287.04.574.77.574.77s-.594-.01-.791-.089c-.199-.079-.337-.562-.515-.542z" fill="#82B378"/>
        <path fill-rule="evenodd" clip-rule="evenodd" d="M89.086 55.056s.399-.267.687-.288c.29-.021.723.633.723.633s-.583.114-.793.078c-.21-.035-.447-.48-.617-.423zM86.187 49.476s-.773-.578-1.386-.492c-.614.087-1.208.876-1.208.876s.693.217 1.079.158c.386-.06.891-.31 1.025-.444.134-.133.49-.098.49-.098z" fill="#A8D29F"/>
        <path fill-rule="evenodd" clip-rule="evenodd" d="M86.066 49.325s.122-.345-.108-.568l-.299-.289s-.065.258.003.465c.068.209.404.392.404.392z" fill="#82B378"/>
        <path fill-rule="evenodd" clip-rule="evenodd" d="M86.053 50.784s1.247-.653 2.064-.194 1.084 1.54 1.084 1.54-1.44-.03-1.915-.4c-.476-.37-.436-.903-.65-.933-.212-.03-.583-.013-.583-.013zM85.813 53.444s.37-.857.985-.96c.615-.103 1.207.344 1.207.344s-.757.585-1.158.591c-.402.007-.605-.284-.727-.211a2.821 2.821 0 0 0-.307.236zM87.546 56.438s1.655-.866 2.739-.258c1.084.61 1.439 2.044 1.439 2.044s-1.912-.04-2.542-.53c-.63-.492-.58-1.199-.861-1.238-.282-.04-.775-.018-.775-.018zM90.182 54.489s1.247-.654 2.064-.194c.817.458 1.084 1.539 1.084 1.539s-1.44-.03-1.916-.4c-.475-.37-.436-.903-.649-.933-.212-.029-.583-.012-.583-.012z" fill="#A8D29F"/>
        <path fill-rule="evenodd" clip-rule="evenodd" d="M85.944 51.413s-.117-.67-.74-.756c-.62-.087-1.24.757-1.24.757s.58.193.906.193c.327 0 .66-.509.82-.398.16.112.254.204.254.204z" fill="#82B378"/>
        <path fill-rule="evenodd" clip-rule="evenodd" d="M85.85 54.277s-.963-1.148-2.244-.63c-1.28.519-1.528 2.805-1.528 2.805s1.317-.268 1.94-.628c.623-.359.692-1.693 1.122-1.658.43.036.71.111.71.111z" fill="#A8D29F"/>
        <path fill-rule="evenodd" clip-rule="evenodd" d="M87.633 56.47s.102-.722-.398-.963c-.5-.24-1.277.483-1.277.483s.433.34.71.419c.275.08.709-.367.811-.213a1.9 1.9 0 0 1 .154.274z" fill="#82B378"/>
        <path fill-rule="evenodd" clip-rule="evenodd" d="M94.8 50.473s-.054 7.787-.97 8.647c-.916.859-4.778 2.772-4.778 2.772l.343 1.138s4.596-.527 6.374-1.816c1.778-1.289 2.37-8.217 2.317-8.915-.054-.698-3.286-1.826-3.286-1.826z" fill="#FFB27D"/>
        <path fill-rule="evenodd" clip-rule="evenodd" d="M96.572 48.207s1.08.645 1.485 2.054c.404 1.41.36 4.612.36 4.612s-1.98.726-4.365-.564c-2.384-1.289 2.52-6.102 2.52-6.102z" fill="#F99746"/>
        <path fill-rule="evenodd" clip-rule="evenodd" d="M89.1 61.868s-.438-.338-.867-.311c-.428.027-1.3-.187-1.3.027 0 .213.483.333.51.467.026.133-.442.507-.763.614-.322.107-.898.08-.79.454.107.374 1.03.64 1.767.614.737-.027 2.203-.773 2.203-.773l-.76-1.092zM81.79 59.727s-.533.893-.317 1.43c.215.538.913.497 1.236.282.323-.215-.091-.775-.243-1.138-.156-.373-.3-.923-.676-.574z" fill="#FFB27D"/>
        <path fill-rule="evenodd" clip-rule="evenodd" d="M26.89 34.228s-.615-5.448 1.75-10.039c.25-.486.873-.364.975.193.368 1.998.734 5.987-.96 10.226-2.412 6.033-1.764-.38-1.764-.38zM29.715 35.305s.386-5.469 3.547-9.556c.335-.433.925-.2.924.367-.002 2.03-.367 6.02-2.806 9.882-3.47 5.496-1.665-.693-1.665-.693z" fill="#A8D29F"/>
        <path fill-rule="evenodd" clip-rule="evenodd" d="M28.142 34.216s.011-5.482 2.885-9.775c.304-.455.909-.262.947.303.137 2.026.045 6.031-2.123 10.05-3.086 5.718-1.71-.578-1.71-.578z" fill="#82B378"/>
        <path fill-rule="evenodd" clip-rule="evenodd" d="M30 34.493s1.085-4.141 4.1-6.824c.32-.285.738-.021.656.413-.294 1.558-1.15 4.567-3.579 7.181-3.454 3.72-1.178-.77-1.178-.77z" fill="#82B378"/>
        <path fill-rule="evenodd" clip-rule="evenodd" d="M1.774 92.739s-1.49 1.355-1.2 2.318c.291.963 1.636 1.605 1.817 2.783.182 1.177.909 1.82 1.563 1.82h3.119s.481-.83-.682-1.08c-1.163-.249-1.601-1.632-1.528-2.916.072-1.285-.11-2.996-.11-2.996l-2.47-.571-.51.642zM14.385 93.454s-.536 5.742.118 6.064l8.371-.018s0-.963-1.344-1.177c-1.345-.214-3.707-.999-4.107-2.747-.4-1.747-3.038-2.122-3.038-2.122z" fill="#233862"/>
        <path fill-rule="evenodd" clip-rule="evenodd" d="M21.22 46.186s2.414 7.489 2.57 10.039c.154 2.55-4.615 36.223-4.806 37.398-.181 1.107-1.56 1.814-1.56 1.814s-.635.373-1.54.118c-1.257-.354-1.654-.778-1.654-.778s-1.879-24.015-.716-32.593c1.162-8.58 1.176-15.998 1.176-15.998h6.53z" fill="#ED7D2B"/>
        <path fill-rule="evenodd" clip-rule="evenodd" d="M10.995 45.962s-3.682 4.925-4.025 8.254c-.343 3.33-.539 15.022-1.27 18.268-.731 3.245-3.418 9.49-3.418 19.613 0 0 .28.58 1.142.889.276.099.645.194 1.004.276a1.58 1.58 0 0 0 1.765-.835c1.816-3.646 7.602-15.405 7.899-17.845.21-1.727 2.036-13.16 6.021-19.867.957-1.61-.587-8.015-.587-8.015l-8.531-.738z" fill="#F99746"/>
        <path fill-rule="evenodd" clip-rule="evenodd" d="M10.453 10.324c-.088-.214-1.12-2.482-4.624-1.244 0 0 1.778-.46 2.358.192 0 0-1.511-.494-2.34.182-.83.676-.751 2.592-.549 3.152.202.56 1.397 2.155 2.053 2.072.248-.03.503-.149.725-.284a9.218 9.218 0 0 0-.147 1.035c-.296 3.453 2.187 5.738 3.238 4.964.674-.496 1.376.735 1.376.735l5.024-8.918s-4.792-4.633-7.114-1.886z" fill="#222"/>
        <path fill-rule="evenodd" clip-rule="evenodd" d="M19.878 31.328c-4.758 2.185-8.336-5.527-8.025-5.606.476-.553.966-2.523.618-5.359l.246.018 4.138.315s.065 1.319.208 2.549c.094.808.224 1.58.392 1.916.049.1.946.232.948.235.07.078 2.744 5.35 1.475 5.932z" fill="#FFB27D"/>
        <path fill-rule="evenodd" clip-rule="evenodd" d="M23.251 33.725c.308 1.16.561 2.197.685 2.898.574 3.225.286 19.624.286 19.624-8.397 3.193-18.45-.917-18.45-.917-.312-3.057.883-9.857 1.609-15.908.178-1.483.327-2.92.42-4.246a27.42 27.42 0 0 1 .384-3.097c1.206-6.466 4.31-7.177 4.31-7.177 1.451 2.896 6.03 3.676 6.03 3.676.058-1.63-.456-3.706-.456-3.706.58.072 2.535.317 3.064.58 1.568.78 5.285 7.315 5.285 7.315s.963-.437-3.167.958z" fill="#fff"/>
        <path fill-rule="evenodd" clip-rule="evenodd" d="M16.856 20.696s.063 1.318.207 2.55c-2.269.218-3.716-1.751-4.345-2.864l4.138.314z" fill="#ED985F"/>
        <path fill-rule="evenodd" clip-rule="evenodd" d="M17.75 21.767s-5.34.762-5.75-2.66c-.411-3.424-1.377-5.631 2.014-6.263 3.392-.631 4.212.59 4.62 1.7.407 1.107.494 6.936-.884 7.223z" fill="#FFB27D"/>
        <path fill-rule="evenodd" clip-rule="evenodd" d="M18.248 12.66c-.95-.927-1.547-.622-1.86-.268-3.121-1.285-4.715 1.394-4.715 1.394-.065 2.501-1.622 4.125-1.622 4.125s1.049.496 3.226-.38c.665-.267 1.218-.846 1.667-1.52a12.957 12.957 0 0 1-1.827 2.966c2.533-1.613 3.155-5.585 3.214-6.004.362.26 1.084.834 1.356 1.45.37.84.704 2.619 1.206 2.494 0 0 .779-2.869-.645-4.258z" fill="#222"/>
        <path fill-rule="evenodd" clip-rule="evenodd" d="M12.473 23.886s-.627.528-.628 1.312c0 0 .977 2.743 6.68 3.38 0 0-5.45-2.653-6.052-4.692zM17.318 25.002s1.249 2.252 1.208 3.576c0 0 .098-3.008-.106-3.706-.204-.698-1.315-1.285-1.315-1.285l.213 1.415z" fill="#EBF3FF"/>
        <path fill-rule="evenodd" clip-rule="evenodd" d="M25.942 34.867s.616-5.448-1.749-10.039c-.25-.487-.873-.364-.975.193-.368 1.997-.734 5.987.96 10.226 2.412 6.032 1.764-.38 1.764-.38zM23.119 35.944s-.387-5.469-3.548-9.556c-.335-.433-.924-.2-.924.366.002 2.031.368 6.021 2.806 9.883 3.47 5.496 1.666-.693 1.666-.693z" fill="#A8D29F"/>
        <path fill-rule="evenodd" clip-rule="evenodd" d="M24.692 34.855s-.012-5.483-2.886-9.775c-.304-.455-.909-.263-.947.303-.137 2.026-.045 6.03 2.123 10.05 3.086 5.718 1.71-.578 1.71-.578zM27.892 35.15s1.037-5.384-.963-10.144c-.212-.505-.842-.43-.988.117-.521 1.963-1.197 5.912.163 10.27 1.936 6.2 1.788-.243 1.788-.243z" fill="#82B378"/>
        <path fill-rule="evenodd" clip-rule="evenodd" d="M22.834 35.132s-1.085-4.141-4.1-6.825c-.32-.284-.739-.02-.657.414.294 1.558 1.15 4.567 3.579 7.181 3.455 3.72 1.178-.77 1.178-.77z" fill="#82B378"/>
        <path fill-rule="evenodd" clip-rule="evenodd" d="M29.48 44.155h-5.928c-2.463 0-4.477-2.008-4.477-4.463v-5.389c0-.128.105-.234.235-.234h14.646v5.623c0 2.455-2.014 4.463-4.476 4.463z" fill="#F99746"/>
        <path fill-rule="evenodd" clip-rule="evenodd" d="M11.467 31.457c-1.692-.752-2.893.8-2.577 2.62.876 5.05 2.96 12.298 4.666 12.814 2.562.775 11.777-5.107 11.777-5.107l-1.056-1.529s-7.885 2.332-8.024 1.969c-.138-.362-2.942-9.948-2.942-9.948l-1.844-.819z" fill="#FFB27D"/>
        <path fill-rule="evenodd" clip-rule="evenodd" d="M24.277 40.255s-.015-.466.535-.722c.55-.255 1.09-.361 1.538-.676.448-.315.458.08.264.39-.194.312-.598.429-.324.52.274.09 1.37-.567 2.23-.855.463-.155.305 1.624-.151 1.974-.397.304-1.462.869-2.348.958-1.101.11-1.901.687-1.901.687l.157-2.276z" fill="#FFB27D"/>
        <path fill-rule="evenodd" clip-rule="evenodd" d="M12.231 27.592s-2.268.862-3.06 2.042c-.791 1.18-.888 4.948.337 9.846 0 0 4.682-1.478 7.098-3.985 0 0-1.883-8.612-4.375-7.903z" fill="#fff"/>
        <path fill-rule="evenodd" clip-rule="evenodd" d="M52.494 17.512s-7.69 13.396-6.147 18.016c1.542 4.62 6.702 4.915 6.702 4.915l-.555-22.93z" fill="#EB5976"/>
        <path fill-rule="evenodd" clip-rule="evenodd" d="M48.507 99.95h10.735c.769-.52-.208-5.603-.208-5.603s-2.93-1.108-3.436 1.146c-.507 2.252-3.731 2.968-5.438 3.243-1.168.19-1.537.828-1.653 1.215zM64.428 99.95h10.734c.77-.52-.207-5.603-.207-5.603s-2.93-1.108-3.436 1.146c-.507 2.252-3.731 2.968-5.438 3.243-1.167.19-1.537.828-1.653 1.215z" fill="#233862"/>
        <path fill-rule="evenodd" clip-rule="evenodd" d="M51.395 48.087s.482 6.001 1.05 13.216c.77 9.8 2.85 34.097 2.85 34.097s1.362 1.16 4.38.525c0 0 2.57-8.382 3.34-17.949l.035-.473c.715-9.739 1.826-30.247 1.826-30.247l-13.481.83z" fill="#2B478B"/>
        <path fill-rule="evenodd" clip-rule="evenodd" d="M51.23 46.014s.647 8.075 1.215 15.289l10.57 16.673.035-.473c.715-9.739 1.826-30.247 1.826-30.247L51.23 46.014z" fill="#233862"/>
        <path fill-rule="evenodd" clip-rule="evenodd" d="M54.31 46.014s7.666 19.023 10.117 26.234c1.746 5.136 6.669 23.156 6.669 23.156s2.141.65 3.94-.606c0 0 1.832-18.41-1.868-23.6-1.962-2.755-.487-28.63-8.446-28.851-7.959-.222-10.411 3.667-10.411 3.667z" fill="#2B478B"/>
        <path fill-rule="evenodd" clip-rule="evenodd" d="M57.735 17.97c1.17.614 2.313.652 3.303.443.906-.19 1.683-.589 2.237-.942.569-.362.903-.677.903-.677s-.04-.058-.107-.17c-.345-.59-1.393-2.709-.927-6.114.006-.045-.332.018-.844.139-1.52.359-4.578 1.224-4.714 1.262h-.005s-.038.716-.163 2c-.01.113-.023.232-.035.354-.015.15-.031.31-.05.474-.141 1.335.402 3.23.402 3.23z" fill="#FFB27D"/>
        <path fill-rule="evenodd" clip-rule="evenodd" d="M57.418 13.911c2.27.52 5.66-2.823 5.66-2.823a3.574 3.574 0 0 0-.778-.44c-1.52.36-4.578 1.225-4.714 1.263h-.005s-.038.716-.163 2z" fill="#ED975D"/>
        <path fill-rule="evenodd" clip-rule="evenodd" d="M50.196 42.809c.165 2.181.628 3.742 1.64 3.742 0 0 4.504 1.58 9.887 1.624 1.052.007 2.543-.197 3.778-.403a59.246 59.246 0 0 0 2.262-.428c1.082-.25 2.277-.916 2.117-2.146a30.25 30.25 0 0 1-.189-2.47l-.008-.189c-.119-2.85-.1-6.776-.115-10.535-.01-2.308-.033-4.553-.11-6.446 0 0 1.063-7.436-.117-8.657-1.383-1.427-5.44-1.865-5.695-1.81-.077-.016-.153-.035-.231-.049 0 0-3.456 1.942-6.025.505 0 0-.069-.076-.079-.073-.6.2-3.74.902-4.817 2.038-.373.391-1.857 2.791-1.897 5.428-.056 3.675.088 7.85.088 7.852-.04.597-.104 1.366-.174 2.245-.075.936-.158 1.993-.229 3.096-.034.556-.067 1.123-.094 1.69-.08 1.75-.104 3.51.008 4.986z" fill="#EB5976"/>
        <path fill-rule="evenodd" clip-rule="evenodd" d="M56.646 11.73s.934.334 2.124.494c1.741.234 4.03.096 4.75-2.004 1.211-3.534 2.758-5.654-.806-7.097-1.909-.772-3.13-.813-3.959-.518-.72.254-1.145.762-1.466 1.265-.692 1.082-2.085 7.241-.643 7.86z" fill="#FFB27D"/>
        <path fill-rule="evenodd" clip-rule="evenodd" d="M57.019 1.736c-.805.195-1.168 1.46-.401 1.985 1.374.942 3.053.572 3.672.847.886.392 1.046 1.875 1.061 2.345.016.472.079.87 1.282.587.198-.046.34-.032.438.026.5.296-.14 1.727-.332 2.037 0 0-.276 1.026.338 1.525.075.06 1.282.586 4.192-3.854.458-.697.894-2.267.188-3.779C66.752 1.944 64.57.072 61.95.072c-2.071 0-3.227 1.25-4.931 1.664z" fill="#222"/>
        <path fill-rule="evenodd" clip-rule="evenodd" d="M59.217 38.546c-.382.715 1.264 1.66 1.264 1.66s4.548 2.156 9.21 2.522l-.008-.189c-.119-2.85-.1-6.776-.115-10.535 0 0-9.72 5.362-10.35 6.542z" fill="#DF3F5E"/>
        <path fill-rule="evenodd" clip-rule="evenodd" d="M46.79 41.567h17.768V23.718H46.79v17.85z" fill="#ED823A"/>
        <path fill-rule="evenodd" clip-rule="evenodd" d="M37.907 41.567h17.767V23.718H37.907v17.85z" fill="#FF9E55"/>
        <path fill-rule="evenodd" clip-rule="evenodd" d="M64.547 37.04h-2.815l.248-.964-.248-.69h2.815v1.655z" fill="#2B478B"/>
        <path fill-rule="evenodd" clip-rule="evenodd" d="M55.674 29.242h-2.816l.248-.965-.248-.69h2.816v1.655z" fill="#4168B5"/>
        <path fill-rule="evenodd" clip-rule="evenodd" d="M55.674 27.587h2.815l-.248.965.248.69h-2.815v-1.655z" fill="#2B478B"/>
        <path fill-rule="evenodd" clip-rule="evenodd" d="M37.906 37.232h2.815l-.247.966.247.69h-2.815v-1.656z" fill="#4168B5"/>
        <path fill-rule="evenodd" clip-rule="evenodd" d="M37.327 30.709a.99.99 0 0 1 .744-.852c.565-.142 1.372-.25 1.47.253.153.784-.897 2.759-1.584 2.759-.521 0-.727-1.27-.63-2.16zM60.48 40.206s-2.877 1.892-3.988 2.013c-.755.084-3.74-.038-3.756-.415-.023-.53 1.823-1.092 2.302-1.305.477-.214.852-.46.849-.665-.004-.206-1.85.475-1.651.027.199-.45 1.905-1.231 2.317-1.306.413-.076 1.742.374 2.258.136.517-.238 1.67 1.515 1.67 1.515z" fill="#FFB27D"/>
        <path fill-rule="evenodd" clip-rule="evenodd" d="M68.344 16.21s1.97.83 4.313 5.193c2.342 4.362 4.557 13.6 3.608 15.103-.95 1.502-8.946 4.94-15.917 4.024 0 0-1.73-1.57-1.38-2.175 0 0 11.687-4.75 11.694-5.318.007-.568-5.255-9.374-5.493-11.81-.237-2.438 3.175-5.017 3.175-5.017z" fill="#EB5976"/>
        <path d="M.5 99.518h136" stroke="#1C2F59"/>
    </g>
    <defs>
        <clipPath id="tys34gui5a">
            <path fill="#fff" transform="translate(.5)" d="M0 0h136v100H0z"/>
        </clipPath>
    </defs>
</svg>
