<svg width="36" height="36" viewBox="0 0 36 36" fill="none" xmlns="http://www.w3.org/2000/svg">
    <path d="M35 18c0 9.389-7.611 17-17 17S1 27.389 1 18 8.611 1 18 1s17 7.611 17 17z" stroke="#222" stroke-miterlimit="10" stroke-linecap="round" stroke-linejoin="round"/>
    <path d="M7.005 27.469a14.454 14.454 0 0 1-3.515-9.47C3.49 9.987 9.986 3.49 18 3.49S32.51 9.986 32.51 18c0 8.015-6.496 14.511-14.51 14.511a14.451 14.451 0 0 1-9.186-3.277" stroke="#222" stroke-miterlimit="10" stroke-linecap="round" stroke-linejoin="round"/>
    <path d="m20.593 21.268 6.184-6.185a1.393 1.393 0 0 0 0-1.97L25.065 11.4a1.393 1.393 0 0 0-1.97 0l-7.221 7.221-2.832-2.831a1.393 1.393 0 0 0-1.97 0l-1.85 1.849a1.393 1.393 0 0 0 0 1.97l4.738 4.737a2.514 2.514 0 0 0 3.555 0l1.367-1.368M15.873 18.621l-1.29 1.29" stroke="#EB5976" stroke-miterlimit="10" stroke-linecap="round" stroke-linejoin="round"/>
</svg>
